<svg id="a20b5829-57f5-4968-a2a5-caaec4be1d6e" data-name="Logo" xmlns="http://www.w3.org/2000/svg" xmlns:xlink="http://www.w3.org/1999/xlink" viewBox="0 0 1859.6709 558.4166"><defs><style>.a347bdc5-70ba-4e9f-9e12-834efef0ed05{fill:url(#e593a981-7503-489d-9e08-54afcc9846cd);}.be324630-07ba-4a9a-9f09-49d1d89729c7{fill:#eb5b21;}.b0c90f56-d0ce-4ef2-a7cd-e46c057dedb4{fill:url(#e887adf1-8871-4d5a-836c-8759f26280be);}.f5a25d1e-dcc0-473a-a01e-7c009881c5e6{fill:url(#aade521e-544b-47a8-98f6-68f88ccece6c);}.b0a239e0-39e1-4bcc-bfd7-01005f72172f{fill:url(#a207fedd-c217-417b-b1da-24308f88d1a2);}.ac7824ec-c324-479d-8b2f-bd89c6d9a07e{fill:url(#e9c84883-5399-4fc3-94df-a5341982f4df);}.b3fe84d6-0410-4124-8167-9eddf262be72{fill:url(#f826ef85-4a11-43d3-b862-e42d81db5493);}.b733c879-5e2a-4b87-beb1-410cd4aa176c{fill:url(#aa57ff82-0ed6-45bc-bb65-f37e0ab81dfe);}.eb5c202b-225b-4d5f-968f-3d3f2ddbe88a{fill:url(#a20a022f-9334-4447-a75a-2cacdfaa79d7);}.a019eee4-3386-4288-a160-673c0b315cbe{fill:url(#b15ad457-f78f-43b7-a681-d2f0ac8495bb);}.a3c354d8-57c1-4b28-9d36-d41733c4dd58{fill:#2f4294;}.a6efeac1-d9d9-4ccf-9a87-c963ebbd5650{fill:#26214d;}.ac2f28f7-de71-42de-83fc-01367962848b{fill:#989897;}.e7844e44-9791-4380-8c60-8f49f25d2426{fill:#fff;}</style><linearGradient id="e593a981-7503-489d-9e08-54afcc9846cd" x1="210.75" y1="69.75" x2="210.75" y2="558.4166" gradientUnits="userSpaceOnUse"><stop offset="0.1606" stop-color="#264294"/><stop offset="0.3617" stop-color="#4a368e"/><stop offset="0.6298" stop-color="#732887"/><stop offset="0.8411" stop-color="#8d1f83"/><stop offset="0.9679" stop-color="#961c81"/></linearGradient><radialGradient id="e887adf1-8871-4d5a-836c-8759f26280be" cx="35.7514" cy="446.3914" r="32.4043" gradientUnits="userSpaceOnUse"><stop offset="0" stop-color="#fff"/><stop offset="0.1153" stop-color="#f2f1f2"/><stop offset="0.5066" stop-color="#c9c8c9"/><stop offset="0.815" stop-color="#afaeaf"/><stop offset="1" stop-color="#a6a5a6"/></radialGradient><linearGradient id="aade521e-544b-47a8-98f6-68f88ccece6c" x1="332.4584" y1="191.9822" x2="332.4584" y2="293.3156" xlink:href="#e887adf1-8871-4d5a-836c-8759f26280be"/><linearGradient id="a207fedd-c217-417b-b1da-24308f88d1a2" x1="86.125" y1="189.0833" x2="86.125" y2="290.4166" xlink:href="#e887adf1-8871-4d5a-836c-8759f26280be"/><radialGradient id="e9c84883-5399-4fc3-94df-a5341982f4df" cx="56.5533" cy="365.7474" r="45.4276" xlink:href="#e887adf1-8871-4d5a-836c-8759f26280be"/><radialGradient id="f826ef85-4a11-43d3-b862-e42d81db5493" cx="392.6653" cy="446.3914" r="32.4043" xlink:href="#e887adf1-8871-4d5a-836c-8759f26280be"/><radialGradient id="aa57ff82-0ed6-45bc-bb65-f37e0ab81dfe" cx="212.625" cy="425.4167" r="129.9963" gradientTransform="translate(0 -197.4549) scale(1 1.4641)" xlink:href="#e887adf1-8871-4d5a-836c-8759f26280be"/><radialGradient id="a20a022f-9334-4447-a75a-2cacdfaa79d7" cx="371.8634" cy="365.7474" r="45.4276" xlink:href="#e887adf1-8871-4d5a-836c-8759f26280be"/><radialGradient id="b15ad457-f78f-43b7-a681-d2f0ac8495bb" cx="210.125" cy="241.1994" fy="282.9293356415235" r="181.1968" gradientTransform="translate(-2.1751 25.3497) rotate(-0.5745) scale(1 0.9037)" gradientUnits="userSpaceOnUse"><stop offset="0" stop-color="#fff"/><stop offset="0.1806" stop-color="#f9f9f9"/><stop offset="0.4205" stop-color="#e9e8e9"/><stop offset="0.6935" stop-color="#cdcdcd"/><stop offset="0.9893" stop-color="#a8a7a8"/><stop offset="1" stop-color="#a6a5a6"/></radialGradient></defs><path class="a347bdc5-70ba-4e9f-9e12-834efef0ed05" d="M210.75,69.75,0,158.5984V291.8712C0,415.1484,89.92,530.4294,210.75,558.4166,331.58,530.4294,421.5,415.1484,421.5,291.8712V158.5984Zm1.2476,229.3333c-31.8025,0-57.5835-16.8639-57.5835-37.6667s25.781-37.6666,57.5835-37.6666c28.3276,0,51.8606,13.3841,56.6684,31.01-3.1726-5.7966-10.4726-10.689-20.1584-13.75q-.9382-.2964-1.9055-.57-1.9341-.5466-3.9773-.9966-1.0207-.2245-2.0662-.4238a83.9285,83.9285,0,0,0-15.6445-1.4361c-9.335,0-18.0286.4919-25.25,3-10.3919,3.6093-17.7349,10.0883-19.7037,16.9986-.0119.04-.0239.079-.0354.1187-.08.29-.1521.58-.2128.8708-.0542.25-.0965.5023-.1358.7548-.0268.1786-.0588.3567-.0781.5355a12.5034,12.5034,0,0,0-.0842,1.3883l0,.0051a12.6057,12.6057,0,0,0,.0837,1.3818c.02.18.0518.36.0791.54.0389.2507.0809.5008.1348.7493.0608.2925.1333.5838.2136.875.011.038.0227.0759.034.1138,1.968,6.9113,9.3113,13.3914,19.7046,17.0011,7.2214,2.5081,15.9152,3,25.25,3a83.9285,83.9285,0,0,0,15.6445-1.4361q1.0452-.199,2.0662-.4237,2.0412-.4491,3.9773-.9966.9671-.2731,1.9055-.57c9.8479-3.1125,17.2439-8.1147,20.3283-14.039C264.4194,285.3843,240.6584,299.0833,211.9976,299.0833Z"/><g id="efb75735-f8b0-468c-a74d-8e6097a2506d" data-name="Robot"><g id="a12023c8-7ab8-43b6-8ebe-fb8b8769fca6" data-name="Joints"><rect class="be324630-07ba-4a9a-9f09-49d1d89729c7" x="64.625" y="326.25" width="296" height="50.5"/><path class="be324630-07ba-4a9a-9f09-49d1d89729c7" d="M21.0306,418.1468a19.7624,19.7624,0,0,0,38.2421,9.9878l10.8118-41.3968L31.8424,376.75Z"/><path class="be324630-07ba-4a9a-9f09-49d1d89729c7" d="M407.386,418.1468,396.5742,376.75l-38.2419,9.9878,10.8117,41.3968a19.7623,19.7623,0,0,0,24.1149,14.1271h0A19.7624,19.7624,0,0,0,407.386,418.1468Z"/></g><path id="a4bfc226-0795-4b1b-95bb-4399526fa73e" data-name="Left Hand" class="b0c90f56-d0ce-4ef2-a7cd-e46c057dedb4" d="M14.6438,412.6323l-9.0023,34.469A26.9225,26.9225,0,0,0,24.887,479.9534h0c.28.0732.5607.1333.8412.1972l9.2456-35.4,14.2842,3.7306-7.986,30.5775a26.8816,26.8816,0,0,0,16.4672-18.3506l9.0024-34.4689Z"/><path id="a173ff7d-000f-4f83-8b37-78d486407e6f" data-name="Right Ear" class="f5a25d1e-dcc0-473a-a01e-7c009881c5e6" d="M321.4583,191.9822H318.125V293.3156h3.3333a25.3335,25.3335,0,0,0,25.3334-25.3334V217.3156A25.3334,25.3334,0,0,0,321.4583,191.9822Z"/><path id="b34e0b7e-5bb2-40b6-a287-1e8c63546a33" data-name="Left Ear" class="b0a239e0-39e1-4bcc-bfd7-01005f72172f" d="M98.7917,189.0833a25.3334,25.3334,0,0,0-25.3334,25.3333v50.6667a25.3334,25.3334,0,0,0,25.3334,25.3333Z"/><path id="edaa19fc-fd1e-40c0-853d-7dc719cbe5fb" data-name="Left Shoulder" class="ac7824ec-c324-479d-8b2f-bd89c6d9a07e" d="M95.625,314.75H69.875a38.7582,38.7582,0,0,0-37.3025,28.2643,26.3649,26.3649,0,0,0-.952,2.9914l-14.0723,55.948a2.1885,2.1885,0,0,0,1.5885,2.6562l47.9807,12.0683a2.1885,2.1885,0,0,0,2.6563-1.5885l7.0329-27.9612Z"/><path id="b895cc71-3044-4c5a-818b-5ee9f6ace225" data-name="Right Hand" class="b3fe84d6-0410-4124-8167-9eddf262be72" d="M413.7729,412.6323l9.0023,34.469A26.9226,26.9226,0,0,1,403.53,479.9534h0c-.28.0732-.5607.1333-.8412.1972l-9.2456-35.4-14.2842,3.7306,7.986,30.5775a26.8814,26.8814,0,0,1-16.4672-18.3506L361.675,426.239Z"/><path id="ab96dd84-df25-440f-a6ed-fc0ecba16271" data-name="Torso" class="b733c879-5e2a-4b87-beb1-410cd4aa176c" d="M323.9583,313.75H275.9812a66.8044,66.8044,0,0,1-38.99,12.5H186.2588a66.8044,66.8044,0,0,1-38.99-12.5H107.125l-23.3333,78,6.3836,20.2334c17.2748,54.7542,58.5111,99.1251,112.51,121.0618l9.94,4.0381,9.94-4.0381c53.9984-21.9367,95.2347-66.3076,112.51-121.0618l6.3836-20.2334Z"/><circle id="a4dac687-0705-4eb0-b71f-ea0123e923e8" data-name="Belly" class="be324630-07ba-4a9a-9f09-49d1d89729c7" cx="215.0833" cy="416.7448" r="36.25"/><path id="bac85c7f-dff4-4112-a504-77d004b2a0e7" data-name="Right Shoulder" class="eb5c202b-225b-4d5f-968f-3d3f2ddbe88a" d="M332.7917,314.75h25.75a38.7582,38.7582,0,0,1,37.3025,28.2643,26.3649,26.3649,0,0,1,.952,2.9914l14.0722,55.948A2.1884,2.1884,0,0,1,409.28,404.61l-47.9807,12.0683a2.1885,2.1885,0,0,1-2.6562-1.5885l-7.033-27.9612Z"/><path id="fa4abcb4-9d6a-4faf-a567-8c2ade6c9685" data-name="Head" class="a019eee4-3386-4288-a160-673c0b315cbe" d="M237.5745,133.9822h-54.899a95.2173,95.2173,0,0,0-95.2172,95.2172v24a95.2173,95.2173,0,0,0,95.2172,95.2172h54.899a95.2173,95.2173,0,0,0,95.2172-95.2172v-24A95.2173,95.2173,0,0,0,237.5745,133.9822ZM304.125,259.1161A67.1339,67.1339,0,0,1,236.9912,326.25H186.2588a67.1339,67.1339,0,0,1-67.1338-67.1339h0a67.1339,67.1339,0,0,1,67.1338-67.1338h50.7324A67.1339,67.1339,0,0,1,304.125,259.116Z"/><g id="e923559d-30ea-4b5f-81c2-49694fb3a168" data-name="Antenna"><path class="a3c354d8-57c1-4b28-9d36-d41733c4dd58" d="M47.125,447.4641"/><path id="bd45ab6d-30a1-4c86-9dce-f188739d1503" data-name="Antenna Socket" class="a6efeac1-d9d9-4ccf-9a87-c963ebbd5650" d="M211.625,153.6994c17.1208,0,31-8.8277,31-19.7172h-62C180.625,144.8717,194.5042,153.6994,211.625,153.6994Z"/><path id="a02373b2-636c-4650-a0af-cb27dfff92c4" data-name="Antenna Rod" class="ac2f28f7-de71-42de-83fc-01367962848b" d="M206.4167,13.75h8.6667a0,0,0,0,1,0,0V142.5625a2.5208,2.5208,0,0,1-2.5208,2.5208h-3.625a2.5208,2.5208,0,0,1-2.5208-2.5208V13.75A0,0,0,0,1,206.4167,13.75Z"/><circle id="bd885dd0-a456-4c97-918c-a9ea444385eb" data-name="Antenna" class="be324630-07ba-4a9a-9f09-49d1d89729c7" cx="210.75" cy="26.6667" r="26.6667"/></g><path class="a6efeac1-d9d9-4ccf-9a87-c963ebbd5650" d="M237.0353,191.9822H186.303a67.1338,67.1338,0,0,0-67.1338,67.1338h0A67.1338,67.1338,0,0,0,186.303,326.25h50.7323a67.1339,67.1339,0,0,0,67.1339-67.1339h0A67.1339,67.1339,0,0,0,237.0353,191.9822ZM212.0417,299.0833c-31.8024,0-57.5834-16.8639-57.5834-37.6667s25.781-37.6666,57.5834-37.6666c28.3277,0,51.8605,13.3841,56.6685,31.01-3.1726-5.7966-10.4727-10.689-20.1584-13.75q-.9382-.2964-1.9056-.57-1.934-.5466-3.9773-.9966-1.0206-.2245-2.0661-.4238a83.9285,83.9285,0,0,0-15.6445-1.4361c-9.335,0-18.0286.4919-25.25,3-10.3919,3.6093-17.7349,10.0883-19.7038,16.9986-.0118.04-.0238.079-.0353.1187-.08.29-.1521.58-.2129.8708-.0542.25-.0965.5023-.1357.7548-.0268.1786-.0588.3567-.0782.5355a12.5275,12.5275,0,0,0-.0841,1.3883l0,.0051a12.5318,12.5318,0,0,0,.0837,1.3818c.02.18.0518.36.079.54.039.2507.0809.5008.1348.7493.0609.2925.1334.5838.2137.875.011.038.0226.0759.034.1138,1.9679,6.9113,9.3112,13.3914,19.7046,17.0011,7.2214,2.5081,15.9151,3,25.25,3a83.9285,83.9285,0,0,0,15.6445-1.4361q1.0452-.199,2.0661-.4237,2.0413-.4491,3.9773-.9966.9672-.2731,1.9056-.57c9.8479-3.1125,17.2439-8.1147,20.3282-14.039C264.4636,285.3843,240.7026,299.0833,212.0417,299.0833Z"/></g><path class="e7844e44-9791-4380-8c60-8f49f25d2426" d="M676.5361,350.5576a29.4062,29.4062,0,0,0-10.2832-22.831Q655.97,318.5259,629.78,312.2539q-31.673-7.5586-49.4287-22.2656-17.7583-14.7063-17.7569-36.9746,0-23.3628,19.128-39.0323,19.1264-15.6693,49.5664-15.6694,32.7686,0,52.1718,17.9619,19.4,17.9641,18.7159,41.6826l-.2745.8223H676.125q0-17.5488-11.5859-28.3823-11.5884-10.83-33.25-10.832-20.1562,0-30.919,9.1181-10.7665,9.12-10.7637,23.7891,0,13.0275,11.6543,21.7329,11.6529,8.7085,37.8438,15.2886,31.5351,7.8148,47.9893,23.0351t16.4541,37.7061q0,24.1332-19.7442,38.8027Q664.059,403.71,632.249,403.708q-29.8931,0-52.8574-16.2471-22.9673-16.248-22.2812-43.3964l.2744-.8233h25.7773q0,19.1982,14.1231,29.2051,14.12,10.0107,34.9638,10.01,20.4288,0,32.3584-8.587A27.2332,27.2332,0,0,0,676.5361,350.5576Z"/><path class="e7844e44-9791-4380-8c60-8f49f25d2426" d="M823.291,302.6563l52.1026-101.4649h30.8505L836.18,330.627v70.2021h-26.875V328.8447L740.3369,201.1914h30.8506Z"/><path class="e7844e44-9791-4380-8c60-8f49f25d2426" d="M1090.1563,336.7969l.2734.8232q.5463,28.109-19.7442,47.0987-20.2938,18.9917-53.6113,18.9892-33.8672,0-55.1875-23.9941-21.3222-23.9927-21.3213-60.8789V283.3228q0-36.8833,21.3213-60.9473,21.3179-24.0637,55.1875-24.0635,33.8658,0,53.8858,18.03,20.017,18.0315,19.47,47.7842l-.2734.8222h-25.9151q0-20.9779-12.34-33.1811t-34.8272-12.2031q-22.623,0-36.0605,18.2211-13.44,18.2212-13.4375,45.209V318.752q0,27.2636,13.4375,45.4824,13.4355,18.2211,36.0605,18.2217,22.4854,0,34.8272-12.1348,12.34-12.1348,12.34-33.5244Z"/><path class="e7844e44-9791-4380-8c60-8f49f25d2426" d="M1173.2891,379.5762h94.4716v21.2529H1146.2783V201.1914h27.0108Z"/><path class="e7844e44-9791-4380-8c60-8f49f25d2426" d="M1464.9727,318.835q0,36.6093-22.6924,60.7412-22.6934,24.1347-58.89,24.1318-34.9642,0-56.834-24.1318-21.8715-24.13-21.8691-60.7412V283.3228q0-36.4717,21.8691-60.7417t56.834-24.2691q36.1979,0,58.89,24.2007t22.6924,60.81Zm-27.0108-35.7867q0-27.4218-14.8086-44.9736-14.808-17.5488-39.7627-17.55-23.5854,0-37.6377,17.55-14.0566,17.5533-14.0547,44.9736V318.835q0,27.6987,14.0547,45.248,14.0523,17.5518,37.6377,17.55,25.0914,0,39.8311-17.4814,14.7378-17.4815,14.74-45.3164Z"/><path class="e7844e44-9791-4380-8c60-8f49f25d2426" d="M1551.6709,320.7549v80.0742H1524.66V201.1914h76.372q31.9468,0,49.6348,16.4536t17.6875,43.3281q0,27.2857-17.6875,43.5337t-49.6348,16.2481Zm0-21.2529h49.3613q20.2911,0,30.3018-10.8809,10.0079-10.8816,10.01-27.4429,0-16.5593-10.0782-27.6474t-30.2334-11.087h-49.3613Z"/><path class="e7844e44-9791-4380-8c60-8f49f25d2426" d="M1832.6592,350.5576a29.4066,29.4066,0,0,0-10.2832-22.831q-10.2832-9.2007-36.4727-15.4727-31.6728-7.5586-49.4287-22.2656-17.7584-14.7063-17.7568-36.9746,0-23.3628,19.1279-39.0323t49.5664-15.6694q32.7686,0,52.1719,17.9619,19.4,17.9641,18.7158,41.6826l-.2744.8223H1832.248q0-17.5488-11.5859-28.3823-11.5884-10.83-33.25-10.832-20.1562,0-30.9189,9.1181-10.7667,9.12-10.7637,23.7891,0,13.0275,11.6543,21.7329,11.6527,8.7085,37.8437,15.2886,31.5352,7.8148,47.9893,23.0351t16.4541,37.7061q0,24.1332-19.7441,38.8027-19.7446,14.6733-51.5547,14.6709-29.893,0-52.8575-16.2471-22.9673-16.248-22.2812-43.3964l.2744-.8233h25.7774q0,19.1982,14.123,29.2051,14.12,10.0107,34.9639,10.01,20.4286,0,32.3584-8.587A27.2332,27.2332,0,0,0,1832.6592,350.5576Z"/></svg>