<svg id="a8741276-a344-4ea9-a101-a47b946b3185" data-name="Layer 2" xmlns="http://www.w3.org/2000/svg" xmlns:xlink="http://www.w3.org/1999/xlink" viewBox="0 0 764 464"><defs><style>.bc0cb6e1-42c4-4f72-803e-dae9b877bc75{fill:#d1d0d1;}.ef144f77-e229-423d-9a3e-c5d6a885f898{fill:#454444;}.b21f9d27-34ea-4a0d-8095-ca09fb52e7ef{fill:#636363;}.b0fdcf9e-7cdf-454c-a332-fe5532f19b0f,.b1290139-b4dd-418f-81d4-ec1c7ce4f698{fill:#fff;}.b1290139-b4dd-418f-81d4-ec1c7ce4f698{opacity:0.24;}.af0440bc-493c-43da-9db8-c7076eeaaeae{opacity:0.57;}.ab13766c-79e3-4a3c-9e7c-2cddff5d1e84{fill:url(#e2d2803b-27c4-481e-af4d-009c061fc2e5);}.b42e26ce-99e5-44e9-99c7-d1ff07f44c05{fill:url(#b45e9206-d8b8-45a1-bf87-54872867f26f);}.a7580d2f-cc40-43ac-98c0-3b4525c48f71{fill:#9a6aaa;}.b86e7951-e569-4bef-8c1c-a05ff44b9ef7{fill:#3d2985;}.aa894c67-0221-4eee-918f-ec3d53f81851{fill:none;stroke:#fff;stroke-miterlimit:10;}.aed01946-a9d9-4949-8ef4-2582c9f48f3b{fill:#1d1d1b;}.bca78a2b-7116-4530-8552-a36bf6e4fe85{fill:#6c6c6c;}</style><linearGradient id="e2d2803b-27c4-481e-af4d-009c061fc2e5" x1="580.7027" y1="264.982" x2="714.7027" y2="264.982" gradientUnits="userSpaceOnUse"><stop offset="0" stop-color="#2a327f"/><stop offset="1" stop-color="#642584"/></linearGradient><linearGradient id="b45e9206-d8b8-45a1-bf87-54872867f26f" x1="505.7027" y1="421.3153" x2="505.7027" y2="108.6486" xlink:href="#e2d2803b-27c4-481e-af4d-009c061fc2e5"/></defs><rect class="bc0cb6e1-42c4-4f72-803e-dae9b877bc75" width="764" height="464" rx="9.3423"/><g id="fe79f674-7956-46b2-9e6b-ffab292e9d5c" data-name="Panel 1"><rect class="ef144f77-e229-423d-9a3e-c5d6a885f898" x="51.3694" y="108.6486" width="134" height="312.6667" rx="8.3333"/><rect class="b21f9d27-34ea-4a0d-8095-ca09fb52e7ef" x="57.2027" y="186.1486" width="121.75" height="49.25" rx="5.625"/><circle class="b1290139-b4dd-418f-81d4-ec1c7ce4f698" cx="118.0777" cy="310.0236" r="33.375"/><path class="b0fdcf9e-7cdf-454c-a332-fe5532f19b0f" d="M98.9322,150.436l.1494.6558h.05l.1411-.6392,2.6314-8.89h2.5566l-4.1089,12.0859h-2.49l-4.1006-12.0859h2.5566Z"/><path class="b0fdcf9e-7cdf-454c-a332-fe5532f19b0f" d="M108.9927,153.8228a4.0443,4.0443,0,0,1-3.1045-1.2452,4.4511,4.4511,0,0,1-1.1621-3.1626v-.332a4.9127,4.9127,0,0,1,1.1-3.2954,4.1,4.1,0,0,1,5.773-.1909,4.217,4.217,0,0,1,1.0044,2.9634v1.32h-5.3623l-.0166.0493a2.3306,2.3306,0,0,0,.5937,1.4556,1.8532,1.8532,0,0,0,1.4317.57,4.6449,4.6449,0,0,0,1.3364-.1621,6.1155,6.1155,0,0,0,1.1621-.51l.6558,1.4976a4.4677,4.4677,0,0,1-1.4361.7466A6.2269,6.2269,0,0,1,108.9927,153.8228Zm-.2158-7.4541a1.2617,1.2617,0,0,0-1.0625.5146,2.68,2.68,0,0,0-.4814,1.353l.0249.0415H110.23v-.2158a1.9432,1.9432,0,0,0-.3614-1.2329A1.3018,1.3018,0,0,0,108.7769,146.3687Z"/><path class="b0fdcf9e-7cdf-454c-a332-fe5532f19b0f" d="M117.7833,151.9551a1.433,1.433,0,0,0,1.0376-.3755,1.326,1.326,0,0,0,.39-1.0025h2.2l.0249.05a2.7958,2.7958,0,0,1-1.0254,2.2783,4.3219,4.3219,0,0,1-5.7231-.3526,4.8379,4.8379,0,0,1-1.0874-3.2622v-.249a4.8725,4.8725,0,0,1,1.083-3.2622,3.83,3.83,0,0,1,3.0923-1.2783,3.7727,3.7727,0,0,1,2.6772.9463,3.1441,3.1441,0,0,1,.9834,2.49l-.0166.05h-2.208a1.7562,1.7562,0,0,0-.3818-1.1582,1.2961,1.2961,0,0,0-1.0542-.46,1.4057,1.4057,0,0,0-1.357.746,4.1,4.1,0,0,0-.3945,1.9229v.2485a4.087,4.087,0,0,0,.3945,1.9356A1.4188,1.4188,0,0,0,117.7833,151.9551Z"/><path class="b0fdcf9e-7cdf-454c-a332-fe5532f19b0f" d="M125.6939,142.4673v2.2h1.5108v1.7017h-1.5108v4.5737a1.0569,1.0569,0,0,0,.2158.7471.7692.7692,0,0,0,.5811.2241,2.1773,2.1773,0,0,0,.3276-.021,2.8071,2.8071,0,0,0,.32-.07l.2076,1.7514a4.925,4.925,0,0,1-.7139.187,4.343,4.343,0,0,1-.7554.0621,2.5835,2.5835,0,0,1-1.93-.689,3.0226,3.0226,0,0,1-.6763-2.1831v-4.582h-1.3115V144.667H123.27v-2.2Z"/><path class="b0fdcf9e-7cdf-454c-a332-fe5532f19b0f" d="M128.3751,149.0747a4.8211,4.8211,0,0,1,1.1206-3.2915A3.9071,3.9071,0,0,1,132.6,144.501a3.9479,3.9479,0,0,1,3.1211,1.2783,4.7947,4.7947,0,0,1,1.1289,3.2954v.1743a4.802,4.802,0,0,1-1.125,3.3,4.44,4.44,0,0,1-6.2256,0,4.8042,4.8042,0,0,1-1.1245-3.3Zm2.4155.17a3.9,3.9,0,0,0,.4316,1.9688,1.66,1.66,0,0,0,2.7686-.0044,3.8754,3.8754,0,0,0,.4355-1.9644v-.1738a3.8293,3.8293,0,0,0-.44-1.9478,1.4891,1.4891,0,0,0-1.3862-.7543,1.4719,1.4719,0,0,0-1.3741.7583,3.8732,3.8732,0,0,0-.4355,1.9438Z"/><path class="b0fdcf9e-7cdf-454c-a332-fe5532f19b0f" d="M143.0674,146.7505l-.8881-.0249a1.614,1.614,0,0,0-.8882.2241,1.4206,1.4206,0,0,0-.5313.6309v6.0678h-2.4155V144.667h2.2495l.1079,1.3281a2.8371,2.8371,0,0,1,.8174-1.1,1.8222,1.8222,0,0,1,1.1582-.3945,1.7863,1.7863,0,0,1,.3359.0293q.1539.0285.3116.07Z"/><path class="b0fdcf9e-7cdf-454c-a332-fe5532f19b0f" d="M84.088,213.39l.0166.05a3.8061,3.8061,0,0,1-1.191,2.9838,4.65,4.65,0,0,1-3.3164,1.15,4.483,4.483,0,0,1-3.44-1.4233,5.1336,5.1336,0,0,1-1.3242-3.64V210.21a5.1864,5.1864,0,0,1,1.3076-3.64,4.3866,4.3866,0,0,1,3.3989-1.4321,4.82,4.82,0,0,1,3.3745,1.1245,3.8019,3.8019,0,0,1,1.1993,3.0259l-.0166.05H82.1456a2.3409,2.3409,0,0,0-2.6065-2.5816,2.3186,2.3186,0,0,0-1.9634.9785,4.0091,4.0091,0,0,0-.726,2.4551v2.3135a3.9715,3.9715,0,0,0,.7427,2.4717,2.3865,2.3865,0,0,0,2.0048.9785,2.5248,2.5248,0,0,0,1.9009-.67,2.6171,2.6171,0,0,0,.6475-1.8951Z"/><path class="b0fdcf9e-7cdf-454c-a332-fe5532f19b0f" d="M95.2608,205.313v8.1016a3.7588,3.7588,0,0,1-1.3115,3.0839,5.2374,5.2374,0,0,1-3.4282,1.0747,5.0576,5.0576,0,0,1-3.3619-1.0791,3.7942,3.7942,0,0,1-1.2866-3.0795V205.313H87.89v8.0952a2.4277,2.4277,0,0,0,.7139,1.9077,2.77,2.77,0,0,0,1.9175.6387,2.9289,2.9289,0,0,0,1.9838-.6387,2.3841,2.3841,0,0,0,.7388-1.9077V205.313Z"/><path class="b0fdcf9e-7cdf-454c-a332-fe5532f19b0f" d="M97.668,217.3989V205.313h3.918a5.0676,5.0676,0,0,1,3.74,1.436,4.9926,4.9926,0,0,1,1.44,3.6939v1.8344a4.9751,4.9751,0,0,1-1.44,3.6939,5.0847,5.0847,0,0,1-3.74,1.4277Zm2.0171-10.4673V215.78h1.8428a2.9785,2.9785,0,0,0,2.3613-.9785,3.6909,3.6909,0,0,0,.8594-2.5293v-1.85a3.6666,3.6666,0,0,0-.8594-2.5127,2.9782,2.9782,0,0,0-2.3613-.9786Z"/><path class="b0fdcf9e-7cdf-454c-a332-fe5532f19b0f" d="M115.2076,214.5767h-4.7315l-.9629,2.8222h-2.0419l4.4409-12.0859h1.9092l4.3911,12.0859h-2.05Zm-4.15-1.6851h3.5776l-1.7514-5.1631h-.05Z"/><path class="b0fdcf9e-7cdf-454c-a332-fe5532f19b0f" d="M119.0176,211.3477a6.128,6.128,0,0,1,1.7183-4.4078,5.7485,5.7485,0,0,1,8.3423,0,6.5276,6.5276,0,0,1-.0044,8.8321,5.7252,5.7252,0,0,1-8.3379,0A6.1669,6.1669,0,0,1,119.0176,211.3477Zm1.0127,0a5.1545,5.1545,0,0,0,1.4234,3.69,4.7289,4.7289,0,0,0,6.9062,0,5.4716,5.4716,0,0,0,0-7.3633,4.7515,4.7515,0,0,0-6.91,0A5.1227,5.1227,0,0,0,120.03,211.3477Zm3.6856.6391v2.7891h-1.2534V207.72h2.3325a3.1766,3.1766,0,0,1,1.9756.5527,1.9009,1.9009,0,0,1,.7221,1.608,1.5048,1.5048,0,0,1-.2529.8637,1.9909,1.9909,0,0,1-.7432.6319,1.4822,1.4822,0,0,1,.7432.68,2.3347,2.3347,0,0,1,.228,1.07v.4643a5.84,5.84,0,0,0,.0288.6094,1.3881,1.3881,0,0,0,.1124.4434v.1328h-1.2867a1.5452,1.5452,0,0,1-.0913-.5088q-.0168-.3354-.0166-.6831v-.4468a1.193,1.193,0,0,0-.2783-.8691,1.24,1.24,0,0,0-.9087-.2813Zm0-1.1206h1.187a1.7268,1.7268,0,0,0,.9546-.251.7926.7926,0,0,0,.39-.7041.968.968,0,0,0-.3237-.8315,1.9757,1.9757,0,0,0-1.1289-.2388h-1.0791Z"/><path class="b0fdcf9e-7cdf-454c-a332-fe5532f19b0f" d="M133.4776,218.4365h-1.8511l4.7564-13.1235h1.8511Z"/><path class="b0fdcf9e-7cdf-454c-a332-fe5532f19b0f" d="M149.3321,217.3989h-2.0088v-5.1548h-5.4121v5.1548h-2.0171V205.313h2.0171v5.3125h5.4121V205.313h2.0088Z"/><path class="b0fdcf9e-7cdf-454c-a332-fe5532f19b0f" d="M153.8726,206.2178h-2.0171V204.45h2.0171Zm0,11.1811h-2.0171v-8.9814h2.0171Z"/><path class="b0fdcf9e-7cdf-454c-a332-fe5532f19b0f" d="M164,213.207a5.0637,5.0637,0,0,1-.9214,3.1626,3.0477,3.0477,0,0,1-2.565,1.2036,3.1769,3.1769,0,0,1-1.353-.2739,2.7856,2.7856,0,0,1-1.0127-.8052v4.358H156.13V208.4175h1.7017l.1992,1.1289a2.9979,2.9979,0,0,1,1.0415-.9629,2.9188,2.9188,0,0,1,1.4155-.332,2.9819,2.9819,0,0,1,2.5855,1.3154A5.9034,5.9034,0,0,1,164,213.0327Zm-2.0088-.1787a4.3669,4.3669,0,0,0-.5186-2.25,1.6886,1.6886,0,0,0-1.5483-.8745,2.0132,2.0132,0,0,0-1.0708.27,1.985,1.985,0,0,0-.7056.75v4.0537a1.8748,1.8748,0,0,0,.7056.7251,2.15,2.15,0,0,0,1.0874.2529,1.7306,1.7306,0,0,0,1.54-.7583,3.507,3.507,0,0,0,.5108-1.9937Z"/><path class="b0fdcf9e-7cdf-454c-a332-fe5532f19b0f" d="M112.6119,375.8477a4.5654,4.5654,0,0,1-1.6807,1.2705,6.5738,6.5738,0,0,1-2.8847.5556,4.9481,4.9481,0,0,1-3.6192-1.3769,4.7959,4.7959,0,0,1-1.4028-3.5781v-2.5235a4.8987,4.8987,0,0,1,1.3491-3.5732,4.6387,4.6387,0,0,1,3.4736-1.3819,4.8384,4.8384,0,0,1,3.3828,1.0743,3.728,3.728,0,0,1,1.1993,2.8261l-.0166.0508H110.13a2.3249,2.3249,0,0,0-.6142-1.5234,2.14,2.14,0,0,0-1.6021-.5606,2.1764,2.1764,0,0,0-1.7929.8584,3.4493,3.4493,0,0,0-.6807,2.21v2.5381a3.4063,3.4063,0,0,0,.7056,2.2343,2.3324,2.3324,0,0,0,1.9009.8584,4.3547,4.3547,0,0,0,1.3613-.1738,2.058,2.058,0,0,0,.78-.4307v-2.2343h-2.1416V371.291h4.5654Z"/><path class="b0fdcf9e-7cdf-454c-a332-fe5532f19b0f" d="M117.1192,373.1172V377.5h-2.4238V365.4141H119.51a4.7614,4.7614,0,0,1,3.2788,1.0625,3.86,3.86,0,0,1,0,5.5859,4.7827,4.7827,0,0,1-3.2788,1.0547Zm0-1.8672H119.51a2.0164,2.0164,0,0,0,1.5357-.5527,1.9632,1.9632,0,0,0,.5229-1.4063,2.0539,2.0539,0,0,0-.5185-1.44,1.9828,1.9828,0,0,0-1.54-.5693h-2.3906Z"/><path class="b0fdcf9e-7cdf-454c-a332-fe5532f19b0f" d="M135.3311,365.4141v8.0185a3.83,3.83,0,0,1-1.3447,3.1377,5.3676,5.3676,0,0,1-3.5195,1.1035,5.3053,5.3053,0,0,1-3.4991-1.1035,3.8477,3.8477,0,0,1-1.332-3.1377v-8.0185h2.4321v8.0117a2.3233,2.3233,0,0,0,.6392,1.7881,2.4865,2.4865,0,0,0,1.76.5927,2.5535,2.5535,0,0,0,1.7846-.5888,2.3034,2.3034,0,0,0,.6475-1.792v-8.0117Z"/><g class="af0440bc-493c-43da-9db8-c7076eeaaeae"><path class="b0fdcf9e-7cdf-454c-a332-fe5532f19b0f" d="M86.5049,393.25H84.942l-3.1582-5.3437-.0323.0048V393.25H80.1832v-7.82h1.5683l3.1582,5.3389.0323-.0049V385.43h1.5629Z"/><path class="b0fdcf9e-7cdf-454c-a332-fe5532f19b0f" d="M90.6246,391.1719l.0967.4238h.0322l.0913-.4141,1.7026-5.7519h1.6543l-2.6587,7.82H89.9317l-2.6533-7.82h1.6543Z"/><path class="b0fdcf9e-7cdf-454c-a332-fe5532f19b0f" d="M96.6348,393.25H95.0665v-7.82h1.5683Z"/><path class="b0fdcf9e-7cdf-454c-a332-fe5532f19b0f" d="M98.1978,393.25v-7.82h2.6856a3.2278,3.2278,0,0,1,2.3632.916,3.1552,3.1552,0,0,1,.9292,2.35V389.99a3.1459,3.1459,0,0,1-.9292,2.35,3.2387,3.2387,0,0,1-2.3632.91Zm1.5684-6.6113v5.4023h1.0366a1.6339,1.6339,0,0,0,1.3213-.5683,2.232,2.232,0,0,0,.478-1.4864v-1.3037a2.2147,2.2147,0,0,0-.478-1.4756,1.6339,1.6339,0,0,0-1.3213-.5683Z"/><path class="b0fdcf9e-7cdf-454c-a332-fe5532f19b0f" d="M107.0709,393.25h-1.5684v-7.82h1.5684Z"/><path class="b0fdcf9e-7cdf-454c-a332-fe5532f19b0f" d="M112.8287,391.5635h-2.7446l-.5318,1.6865h-1.5845l2.691-7.82h1.6059l2.68,7.82H113.36Zm-2.3579-1.2295h1.9712l-.9668-3.0723h-.0323Z"/><path class="b0fdcf9e-7cdf-454c-a332-fe5532f19b0f" d="M115.4068,389.334a3.9656,3.9656,0,0,1,1.1118-2.8516,3.7231,3.7231,0,0,1,5.4009,0,4.2169,4.2169,0,0,1-.0029,5.7149,3.7068,3.7068,0,0,1-5.398,0A3.9916,3.9916,0,0,1,115.4068,389.334Zm.6553,0a3.3361,3.3361,0,0,0,.9209,2.3877,3.059,3.059,0,0,0,4.4687,0,3.5393,3.5393,0,0,0,0-4.7637,3.0745,3.0745,0,0,0-4.4712,0A3.3126,3.3126,0,0,0,116.0621,389.334Zm2.3847.4082v1.81h-.811v-4.5654h1.5093a2.0275,2.0275,0,0,1,1.2783.3652,1.2446,1.2446,0,0,1,.4673,1.042.9562.9562,0,0,1-.1558.545,1.2749,1.2749,0,0,1-.4565.4.9942.9942,0,0,1,.4536.4541,1.5584,1.5584,0,0,1,.1426.69v.3008a3.813,3.813,0,0,0,.0185.3945.9027.9027,0,0,0,.0728.2871v.0859h-.8325a1.0038,1.0038,0,0,1-.0591-.33c-.0073-.1456-.0108-.293-.0108-.4434v-.29a.7734.7734,0,0,0-.18-.5635.7986.7986,0,0,0-.5879-.1836Zm0-.7188h.7251a1.2236,1.2236,0,0,0,.647-.1621.5089.5089,0,0,0,.2661-.4609.6347.6347,0,0,0-.2094-.543,1.2727,1.2727,0,0,0-.7305-.1562h-.6983Z"/><path class="b0fdcf9e-7cdf-454c-a332-fe5532f19b0f" d="M126.6378,391.1445a1.75,1.75,0,0,1,.3491-1.0927,4.7451,4.7451,0,0,1,1.0635-.959,4.8021,4.8021,0,0,1-.545-.9024,2.0452,2.0452,0,0,1-.18-.833,1.96,1.96,0,0,1,.58-1.4844,2.1487,2.1487,0,0,1,1.5523-.5566,1.8907,1.8907,0,0,1,1.3887.5293,1.7379,1.7379,0,0,1,.5341,1.2813,1.8211,1.8211,0,0,1-.2631.9609,2.5867,2.5867,0,0,1-.72.7637l-.5.3535,1.4824,1.73a2.905,2.905,0,0,0,.3008-.6992,2.87,2.87,0,0,0,.1074-.7949H132.96a4.8509,4.8509,0,0,1-.1826,1.3652,3.2881,3.2881,0,0,1-.5586,1.1055l1.1172,1.3106-.0107.0273h-1.74l-.4135-.4785a3.729,3.729,0,0,1-.94.4433,3.5225,3.5225,0,0,1-1.0366.1485,2.7043,2.7043,0,0,1-1.8638-.6153A2.0427,2.0427,0,0,1,126.6378,391.1445Zm2.6372,1.01a2.319,2.319,0,0,0,.5693-.0723,2.2858,2.2858,0,0,0,.5479-.2168L128.7808,390l-.102.07a1.476,1.476,0,0,0-.3736.501,1.2951,1.2951,0,0,0-.0991.49,1.0916,1.0916,0,0,0,.2954.7852A1.0231,1.0231,0,0,0,129.275,392.1543Zm-.5479-4.8125a1.1134,1.1134,0,0,0,.1153.4756,2.964,2.964,0,0,0,.3466.54l.4619-.3008a1.1061,1.1061,0,0,0,.4053-.3984.9534.9534,0,0,0,.105-.4453.6845.6845,0,0,0-.1958-.4785.6737.6737,0,0,0-.5132-.209.6507.6507,0,0,0-.5371.2334A.9011.9011,0,0,0,128.7271,387.3418Z"/><path class="b0fdcf9e-7cdf-454c-a332-fe5532f19b0f" d="M141.2042,391.5635H138.46l-.5317,1.6865h-1.5845l2.6909-7.82h1.606l2.68,7.82h-1.5845Zm-2.3579-1.2295h1.9711l-.9667-3.0723h-.0323Z"/><path class="b0fdcf9e-7cdf-454c-a332-fe5532f19b0f" d="M146.0972,385.43l1.9927,5.7637h.0322l2.0088-5.7637h2.0518v7.82h-1.5684v-2.3311l.15-3.4541-.0322-.0048-2.0947,5.79H147.585l-2.084-5.7686-.0322.0049.15,3.4326V393.25h-1.5684v-7.82Z"/><path class="b0fdcf9e-7cdf-454c-a332-fe5532f19b0f" d="M153.649,393.25v-7.82h2.6855a3.2279,3.2279,0,0,1,2.3633.916,3.1556,3.1556,0,0,1,.9292,2.35V389.99a3.1463,3.1463,0,0,1-.9292,2.35,3.2388,3.2388,0,0,1-2.3633.91Zm1.5684-6.6113v5.4023h1.0366a1.6339,1.6339,0,0,0,1.3213-.5683,2.232,2.232,0,0,0,.478-1.4864v-1.3037a2.2147,2.2147,0,0,0-.478-1.4756,1.6339,1.6339,0,0,0-1.3213-.5683Z"/></g></g><g id="f24f73e3-8f7f-4d66-bf85-847c6c7686f3" data-name="Panel 2"><rect class="ef144f77-e229-423d-9a3e-c5d6a885f898" x="194.3277" y="108.6486" width="134" height="312.6667" rx="8.3333"/><rect class="b21f9d27-34ea-4a0d-8095-ca09fb52e7ef" x="200.161" y="186.1486" width="121.75" height="49.25" rx="5.625"/><circle class="b1290139-b4dd-418f-81d4-ec1c7ce4f698" cx="261.036" cy="310.0236" r="33.375"/><path class="b0fdcf9e-7cdf-454c-a332-fe5532f19b0f" d="M240.9527,141.5625l3.08,8.9067h.05l3.1045-8.9067h3.1709v12.0859h-2.4238v-3.6025l.2324-5.3374-.05-.0083-3.2373,8.9482h-1.627l-3.2207-8.915-.05.0083.2324,5.3042v3.6025H237.79V141.5625Z"/><path class="b0fdcf9e-7cdf-454c-a332-fe5532f19b0f" d="M257.6954,153.6484a5.0671,5.0671,0,0,1-.228-.6474,4.4981,4.4981,0,0,1-.1373-.6973,3.3356,3.3356,0,0,1-.9838,1.0874,2.4564,2.4564,0,0,1-1.4566.4317,3.0343,3.0343,0,0,1-2.1748-.7261,2.6027,2.6027,0,0,1-.7637-1.98,2.3685,2.3685,0,0,1,1.0171-2.0464,5.08,5.08,0,0,1,2.9673-.7261h1.353V147.63a1.3961,1.3961,0,0,0-.34-1.0044,1.5884,1.5884,0,0,0-1.9136-.07,1.009,1.009,0,0,0-.3193.7924l-2.3408-.0083-.0083-.05a2.28,2.28,0,0,1,.9878-1.9629,4.3046,4.3046,0,0,1,2.7475-.8261,4.0105,4.0105,0,0,1,2.6148.8174,2.8318,2.8318,0,0,1,1.0044,2.3286v3.71a7.0328,7.0328,0,0,0,.0952,1.187,5.992,5.992,0,0,0,.3032,1.104Zm-2.2163-1.6186a2.0788,2.0788,0,0,0,1.1372-.3154,1.6428,1.6428,0,0,0,.6723-.7305v-1.27h-1.353a1.62,1.62,0,0,0-1.17.3857,1.2538,1.2538,0,0,0-.3984.9341.9334.9334,0,0,0,.2988.7222A1.1575,1.1575,0,0,0,255.4791,152.03Z"/><path class="b0fdcf9e-7cdf-454c-a332-fe5532f19b0f" d="M264.4356,142.4673v2.2h1.5108v1.7017h-1.5108v4.5737a1.0569,1.0569,0,0,0,.2158.7471.7692.7692,0,0,0,.5811.2241,2.1773,2.1773,0,0,0,.3276-.021,2.8071,2.8071,0,0,0,.32-.07l.2076,1.7514a4.925,4.925,0,0,1-.7139.187,4.343,4.343,0,0,1-.7554.0621,2.5835,2.5835,0,0,1-1.93-.689,3.0226,3.0226,0,0,1-.6763-2.1831v-4.582H260.7V144.667h1.3115v-2.2Z"/><path class="b0fdcf9e-7cdf-454c-a332-fe5532f19b0f" d="M272.2134,146.7505l-.8881-.0249a1.614,1.614,0,0,0-.8882.2241,1.4206,1.4206,0,0,0-.5313.6309v6.0678H267.49V144.667h2.25l.1079,1.3281a2.8371,2.8371,0,0,1,.8174-1.1,1.8222,1.8222,0,0,1,1.1582-.3945,1.7863,1.7863,0,0,1,.3359.0293q.1539.0285.3116.07Z"/><path class="b0fdcf9e-7cdf-454c-a332-fe5532f19b0f" d="M275.99,142.5171h-2.4238v-1.8179H275.99Zm0,11.1313h-2.4238V144.667H275.99Z"/><path class="b0fdcf9e-7cdf-454c-a332-fe5532f19b0f" d="M281.3609,147.5225h.05l1.3779-2.8555h2.7393l-2.7061,4.4409,2.7974,4.5405h-2.731l-1.4692-2.98-1.4692,2.98h-2.7393l2.7974-4.5405-2.7144-4.4409h2.7227Z"/><path class="b0fdcf9e-7cdf-454c-a332-fe5532f19b0f" d="M242.546,213.39l.0166.05a3.8061,3.8061,0,0,1-1.191,2.9838,4.65,4.65,0,0,1-3.3164,1.15,4.483,4.483,0,0,1-3.44-1.4233,5.1336,5.1336,0,0,1-1.3242-3.64V210.21a5.1864,5.1864,0,0,1,1.3076-3.64,4.3866,4.3866,0,0,1,3.3989-1.4321,4.82,4.82,0,0,1,3.3745,1.1245,3.8019,3.8019,0,0,1,1.1993,3.0259l-.0166.05h-1.9507a2.3409,2.3409,0,0,0-2.6065-2.5816,2.3183,2.3183,0,0,0-1.9633.9785,4.0085,4.0085,0,0,0-.7261,2.4551v2.3135a3.9715,3.9715,0,0,0,.7427,2.4717,2.3865,2.3865,0,0,0,2.0048.9785,2.5248,2.5248,0,0,0,1.9009-.67,2.6171,2.6171,0,0,0,.6475-1.8951Z"/><path class="b0fdcf9e-7cdf-454c-a332-fe5532f19b0f" d="M249.8756,216.0874a3.0674,3.0674,0,0,1-1.0708,1.1,3.1716,3.1716,0,0,1-3.752-.5351,4.2429,4.2429,0,0,1-.8135-2.8638v-5.3706h2.0088v5.3872a2.6943,2.6943,0,0,0,.3818,1.6518,1.3941,1.3941,0,0,0,1.1539.4732,2.6031,2.6031,0,0,0,1.2246-.2612,1.9014,1.9014,0,0,0,.7758-.76v-6.4912h2.0171v8.9814h-1.76Z"/><path class="b0fdcf9e-7cdf-454c-a332-fe5532f19b0f" d="M258.9566,214.9585a.9374.9374,0,0,0-.3984-.772,3.9741,3.9741,0,0,0-1.4859-.54,6.1709,6.1709,0,0,1-2.436-.9668,2.0275,2.0275,0,0,1-.8262-1.7061,2.4281,2.4281,0,0,1,.9546-1.9258,3.7954,3.7954,0,0,1,2.5152-.7968,3.9356,3.9356,0,0,1,2.61.81,2.3947,2.3947,0,0,1,.9258,2.0044l-.0166.05h-1.9341a1.2657,1.2657,0,0,0-.4233-.9546,1.6278,1.6278,0,0,0-1.1621-.3984,1.6623,1.6623,0,0,0-1.1124.3281,1.0175,1.0175,0,0,0-.3818.8008.8967.8967,0,0,0,.3613.751,3.8728,3.8728,0,0,0,1.4649.4941,6.179,6.179,0,0,1,2.5107.9834,2.0741,2.0741,0,0,1,.8179,1.731,2.3534,2.3534,0,0,1-1,1.9673,4.2614,4.2614,0,0,1-2.6352.7553,4.0233,4.0233,0,0,1-2.7642-.8964,2.5316,2.5316,0,0,1-.9629-2.0586l.0166-.05h1.876a1.3455,1.3455,0,0,0,.5644,1.1372,2.2692,2.2692,0,0,0,1.295.3569,2.0688,2.0688,0,0,0,1.2036-.2988A.9371.9371,0,0,0,258.9566,214.9585Z"/><path class="b0fdcf9e-7cdf-454c-a332-fe5532f19b0f" d="M265.2569,206.2344v2.1831h1.61v1.4941h-1.61v4.9639a1.0836,1.0836,0,0,0,.2407.793.8748.8748,0,0,0,.6392.2363,1.7692,1.7692,0,0,0,.3237-.0293,1.9447,1.9447,0,0,0,.2988-.0786l.2159,1.4775a2.31,2.31,0,0,1-.6143.22,3.4321,3.4321,0,0,1-.7388.0786,2.3118,2.3118,0,0,1-1.7431-.6518,2.8532,2.8532,0,0,1-.6309-2.0459v-4.9639h-1.37v-1.4941h1.37v-2.1831Z"/><path class="b0fdcf9e-7cdf-454c-a332-fe5532f19b0f" d="M268.2867,212.8252a4.8929,4.8929,0,0,1,1.0957-3.2871,4.1912,4.1912,0,0,1,6.043,0,4.85,4.85,0,0,1,1.104,3.2871V213a4.875,4.875,0,0,1-1.104,3.3037,4.22,4.22,0,0,1-6.043-.0083A4.8846,4.8846,0,0,1,268.2867,213Zm2.0171.17a3.9993,3.9993,0,0,0,.5146,2.1387,1.9416,1.9416,0,0,0,3.1709,0,3.9031,3.9031,0,0,0,.5313-2.1387v-.1738a3.8525,3.8525,0,0,0-.5313-2.1138,1.92,1.92,0,0,0-3.1709,0,3.974,3.974,0,0,0-.5146,2.1138Z"/><path class="b0fdcf9e-7cdf-454c-a332-fe5532f19b0f" d="M280.1319,208.4175l.1079,1.17a3.0421,3.0421,0,0,1,1.104-.9878,3.2569,3.2569,0,0,1,1.5357-.3486,2.7708,2.7708,0,0,1,1.5107.3984,2.41,2.41,0,0,1,.9463,1.1953,3.1491,3.1491,0,0,1,1.0957-1.17,2.9547,2.9547,0,0,1,1.5937-.4233,2.6538,2.6538,0,0,1,2.1373.9257,4.263,4.263,0,0,1,.7846,2.81v5.4121h-2.0171v-5.42a2.5184,2.5184,0,0,0-.3945-1.61,1.4629,1.4629,0,0,0-1.1826-.4649,1.73,1.73,0,0,0-1.0957.3487,1.9418,1.9418,0,0,0-.6475.9379c0,.083.0029.1548.0083.2159s.0083.1191.0083.1743v5.8188H283.61v-5.42a2.49,2.49,0,0,0-.4028-1.5893,1.4461,1.4461,0,0,0-1.1826-.4859,2.1193,2.1193,0,0,0-1.042.2368,1.7432,1.7432,0,0,0-.6763.668v6.5908h-2.0171v-8.9814Z"/><path class="b0fdcf9e-7cdf-454c-a332-fe5532f19b0f" d="M250.44,374.8936h-4.2417L245.376,377.5h-2.4487l4.1587-12.0859h2.4819L253.71,377.5h-2.4487Zm-3.644-1.9014h3.0464l-1.4942-4.7481h-.05Z"/><path class="b0fdcf9e-7cdf-454c-a332-fe5532f19b0f" d="M261.3633,374.3457a1.4046,1.4046,0,0,0-.4941-1.1211,5.0293,5.0293,0,0,0-1.7305-.7969,9.8471,9.8471,0,0,1-3.2622-1.4765,2.8016,2.8016,0,0,1-1.104-2.3418,2.9,2.9,0,0,1,1.2657-2.4278,5.2731,5.2731,0,0,1,3.2334-.9414,4.86,4.86,0,0,1,3.2456,1.0577,3.1691,3.1691,0,0,1,1.2119,2.61l-.0166.0508h-2.3492a1.7612,1.7612,0,0,0-.56-1.3574,2.2279,2.2279,0,0,0-1.5728-.52,2.3284,2.3284,0,0,0-1.5024.4317,1.3617,1.3617,0,0,0-.5312,1.1045,1.1857,1.1857,0,0,0,.5683,1.0088,7.8693,7.8693,0,0,0,1.9634.8339,7.6282,7.6282,0,0,1,3.03,1.4688,3.0559,3.0559,0,0,1,1.0293,2.3994,2.8711,2.8711,0,0,1-1.2246,2.4482,5.3461,5.3461,0,0,1-3.2329.8965,5.9033,5.9033,0,0,1-3.4449-1.0166,3.1742,3.1742,0,0,1-1.4277-2.8506l.0166-.0507h2.3574a1.86,1.86,0,0,0,.66,1.582,2.9731,2.9731,0,0,0,1.8384.5019,2.424,2.424,0,0,0,1.5107-.4062A1.3085,1.3085,0,0,0,261.3633,374.3457Z"/><path class="b0fdcf9e-7cdf-454c-a332-fe5532f19b0f" d="M268.1949,377.5h-2.4238V365.4141h2.4238Z"/><path class="b0fdcf9e-7cdf-454c-a332-fe5532f19b0f" d="M279.733,373.3828l.0166.05a3.94,3.94,0,0,1-1.1909,3.0967,4.7819,4.7819,0,0,1-3.3995,1.1445,4.7167,4.7167,0,0,1-3.5444-1.4023,4.9688,4.9688,0,0,1-1.3613-3.6113v-2.3985a5.06,5.06,0,0,1,1.3281-3.6113,4.5263,4.5263,0,0,1,3.4531-1.41,5.0091,5.0091,0,0,1,3.503,1.1494,3.9328,3.9328,0,0,1,1.2285,3.1338l-.0166.0489h-2.3574a2.6439,2.6439,0,0,0-.5728-1.83,2.29,2.29,0,0,0-1.7847-.6348,2.0219,2.0219,0,0,0-1.7265.8828,3.7454,3.7454,0,0,0-.6392,2.252v2.4131a3.64,3.64,0,0,0,.6724,2.2685,2.1642,2.1642,0,0,0,1.8178.8828,2.137,2.137,0,0,0,1.6807-.61,2.6475,2.6475,0,0,0,.544-1.8135Z"/><g class="af0440bc-493c-43da-9db8-c7076eeaaeae"><path class="b0fdcf9e-7cdf-454c-a332-fe5532f19b0f" d="M241.293,389.79v3.126h-1.5683v-7.82h2.9487a3.2444,3.2444,0,0,1,2.0923.6094,2.0642,2.0642,0,0,1,.7544,1.7,1.7215,1.7215,0,0,1-.3169,1.042,2.213,2.213,0,0,1-.9292.7031,1.6894,1.6894,0,0,1,.9966.6826,2.1646,2.1646,0,0,1,.3032,1.1816v.5752a2.87,2.87,0,0,0,.0884.6846.9409.9409,0,0,0,.3037.5283v.1133h-1.6167a.8846.8846,0,0,1-.2793-.5742,4.85,4.85,0,0,1-.0645-.7637v-.5527a1.2409,1.2409,0,0,0-.32-.91,1.2034,1.2034,0,0,0-.8994-.3252Zm0-1.208h1.3536a1.4836,1.4836,0,0,0,.9853-.2793,1.033,1.033,0,0,0,.3252-.8281,1.1369,1.1369,0,0,0-.3252-.8535,1.3208,1.3208,0,0,0-.9585-.3164h-1.38Z"/><path class="b0fdcf9e-7cdf-454c-a332-fe5532f19b0f" d="M248.6622,392.916h-1.5684v-7.82h1.5684Z"/><path class="b0fdcf9e-7cdf-454c-a332-fe5532f19b0f" d="M254.4468,390.875a.9056.9056,0,0,0-.3193-.7246,3.1994,3.1994,0,0,0-1.12-.5156,6.3847,6.3847,0,0,1-2.1108-.9571,1.81,1.81,0,0,1-.7144-1.5136,1.8749,1.8749,0,0,1,.8193-1.5713,3.4106,3.4106,0,0,1,2.0918-.61,3.1408,3.1408,0,0,1,2.1.6856,2.0489,2.0489,0,0,1,.7842,1.6894l-.0107.0313h-1.52a1.1425,1.1425,0,0,0-.3623-.878,1.4435,1.4435,0,0,0-1.018-.3349,1.5023,1.5023,0,0,0-.9722.2793.8785.8785,0,0,0-.3437.7138.766.766,0,0,0,.3681.6524,5.075,5.075,0,0,0,1.27.54,4.9275,4.9275,0,0,1,1.96.9512,1.9751,1.9751,0,0,1,.666,1.5518,1.86,1.86,0,0,1-.792,1.5849,3.4613,3.4613,0,0,1-2.0923.58,3.8207,3.8207,0,0,1-2.229-.6582,2.0547,2.0547,0,0,1-.9238-1.8457l.0107-.0313h1.5254a1.204,1.204,0,0,0,.4268,1.0225,1.9264,1.9264,0,0,0,1.19.3252,1.5635,1.5635,0,0,0,.9776-.2637A.8438.8438,0,0,0,254.4468,390.875Z"/><path class="b0fdcf9e-7cdf-454c-a332-fe5532f19b0f" d="M263.105,390.252l.0108.0322a2.5466,2.5466,0,0,1-.771,2.0029,3.0928,3.0928,0,0,1-2.1992.7422,3.052,3.052,0,0,1-2.2935-.9082,3.2142,3.2142,0,0,1-.8808-2.3359v-1.5528a3.2708,3.2708,0,0,1,.8593-2.3359,2.9269,2.9269,0,0,1,2.2344-.9141,3.241,3.241,0,0,1,2.2666.7442,2.5447,2.5447,0,0,1,.7949,2.0273l-.0107.0332H261.59a1.71,1.71,0,0,0-.3706-1.1846,1.4789,1.4789,0,0,0-1.1548-.4111,1.3088,1.3088,0,0,0-1.1172.5713,2.423,2.423,0,0,0-.4136,1.457v1.5616a2.3553,2.3553,0,0,0,.4351,1.4677,1.4008,1.4008,0,0,0,1.1763.5713,1.3868,1.3868,0,0,0,1.0879-.3945,1.7175,1.7175,0,0,0,.3515-1.1738Z"/><path class="b0fdcf9e-7cdf-454c-a332-fe5532f19b0f" d="M263.9644,389a3.9656,3.9656,0,0,1,1.1118-2.8516,3.7231,3.7231,0,0,1,5.4009,0,4.2169,4.2169,0,0,1-.0029,5.7149,3.7068,3.7068,0,0,1-5.398,0A3.9916,3.9916,0,0,1,263.9644,389Zm.6553,0a3.3361,3.3361,0,0,0,.9209,2.3877,3.059,3.059,0,0,0,4.4687,0,3.5393,3.5393,0,0,0,0-4.7637,3.0746,3.0746,0,0,0-4.4711,0A3.3123,3.3123,0,0,0,264.62,389Zm2.3848.4082v1.8106h-.8111v-4.5655h1.5093a2.0269,2.0269,0,0,1,1.2783.3653,1.2443,1.2443,0,0,1,.4673,1.0419.9552.9552,0,0,1-.1558.545,1.2761,1.2761,0,0,1-.4565.4.9933.9933,0,0,1,.4536.4541,1.5577,1.5577,0,0,1,.1426.69v.3008a3.8116,3.8116,0,0,0,.0185.3945.9054.9054,0,0,0,.0728.2871v.086h-.8325a1.0071,1.0071,0,0,1-.0591-.33c-.0073-.1455-.0107-.293-.0107-.4434v-.29a.7734.7734,0,0,0-.18-.5635.7983.7983,0,0,0-.5879-.1836Zm0-.7187h.7251a1.2233,1.2233,0,0,0,.6469-.1622.5087.5087,0,0,0,.2661-.4609.6348.6348,0,0,0-.2094-.543,1.2727,1.2727,0,0,0-.7305-.1562h-.6982Z"/><path class="b0fdcf9e-7cdf-454c-a332-fe5532f19b0f" d="M275.7647,390.1768h-3.0293v-1.208h3.0293Z"/><path class="b0fdcf9e-7cdf-454c-a332-fe5532f19b0f" d="M279.8145,390.8379l.0967.4238h.0322l.0913-.414,1.7027-5.752h1.6543l-2.6587,7.82h-1.6114l-2.6533-7.82h1.6543Z"/></g></g><g id="a5dad8dc-f94f-4963-a0cc-9e1815f7f440" data-name="Panel 4"><rect class="ab13766c-79e3-4a3c-9e7c-2cddff5d1e84" x="580.7027" y="108.6486" width="134" height="312.6667" rx="8.3333"/><circle class="b1290139-b4dd-418f-81d4-ec1c7ce4f698" cx="647.411" cy="310.0236" r="33.375"/><path class="b0fdcf9e-7cdf-454c-a332-fe5532f19b0f" d="M627.3277,141.5625l3.08,8.9067h.05l3.1045-8.9067h3.1709v12.0859h-2.4238v-3.6025l.2324-5.3374-.05-.0083-3.2373,8.9482h-1.627l-3.2207-8.915-.05.0083.2324,5.3042v3.6025h-2.4238V141.5625Z"/><path class="b0fdcf9e-7cdf-454c-a332-fe5532f19b0f" d="M644.07,153.6484a5.0671,5.0671,0,0,1-.228-.6474,4.4981,4.4981,0,0,1-.1373-.6973,3.3356,3.3356,0,0,1-.9838,1.0874,2.4564,2.4564,0,0,1-1.4566.4317,3.0343,3.0343,0,0,1-2.1748-.7261,2.6027,2.6027,0,0,1-.7637-1.98,2.3685,2.3685,0,0,1,1.0171-2.0464,5.08,5.08,0,0,1,2.9673-.7261h1.353V147.63a1.3961,1.3961,0,0,0-.34-1.0044,1.5884,1.5884,0,0,0-1.9136-.07,1.009,1.009,0,0,0-.3193.7924L638.75,147.34l-.0083-.05a2.28,2.28,0,0,1,.9878-1.9629,4.3046,4.3046,0,0,1,2.7475-.8261,4.0105,4.0105,0,0,1,2.6148.8174,2.8318,2.8318,0,0,1,1.0044,2.3286v3.71a7.0328,7.0328,0,0,0,.0952,1.187,5.992,5.992,0,0,0,.3032,1.104Zm-2.2163-1.6186a2.0788,2.0788,0,0,0,1.1372-.3154,1.6428,1.6428,0,0,0,.6723-.7305v-1.27h-1.353a1.62,1.62,0,0,0-1.17.3857,1.2538,1.2538,0,0,0-.3984.9341.9334.9334,0,0,0,.2988.7222A1.1575,1.1575,0,0,0,641.8541,152.03Z"/><path class="b0fdcf9e-7cdf-454c-a332-fe5532f19b0f" d="M650.8106,142.4673v2.2h1.5108v1.7017h-1.5108v4.5737a1.0569,1.0569,0,0,0,.2158.7471.7692.7692,0,0,0,.5811.2241,2.1773,2.1773,0,0,0,.3276-.021,2.8071,2.8071,0,0,0,.32-.07l.2076,1.7514a4.925,4.925,0,0,1-.7139.187,4.343,4.343,0,0,1-.7554.0621,2.5835,2.5835,0,0,1-1.93-.689,3.0226,3.0226,0,0,1-.6763-2.1831v-4.582h-1.3115V144.667h1.3115v-2.2Z"/><path class="b0fdcf9e-7cdf-454c-a332-fe5532f19b0f" d="M658.5884,146.7505l-.8881-.0249a1.614,1.614,0,0,0-.8882.2241,1.4206,1.4206,0,0,0-.5313.6309v6.0678h-2.4155V144.667h2.2495l.1079,1.3281a2.8371,2.8371,0,0,1,.8174-1.1,1.8222,1.8222,0,0,1,1.1582-.3945,1.7863,1.7863,0,0,1,.3359.0293q.1539.0285.3116.07Z"/><path class="b0fdcf9e-7cdf-454c-a332-fe5532f19b0f" d="M662.3653,142.5171h-2.4238v-1.8179h2.4238Zm0,11.1313h-2.4238V144.667h2.4238Z"/><path class="b0fdcf9e-7cdf-454c-a332-fe5532f19b0f" d="M667.7359,147.5225h.05l1.3779-2.8555h2.7393l-2.7061,4.4409,2.7974,4.5405h-2.731l-1.4692-2.98-1.4692,2.98h-2.7393l2.7974-4.5405-2.7144-4.4409h2.7227Z"/><path class="b0fdcf9e-7cdf-454c-a332-fe5532f19b0f" d="M636.8145,374.8936h-4.2417L631.751,377.5h-2.4487l4.1587-12.0859h2.4819L640.085,377.5h-2.4487Zm-3.644-1.9014h3.0464l-1.4942-4.7481h-.05Z"/><path class="b0fdcf9e-7cdf-454c-a332-fe5532f19b0f" d="M647.7383,374.3457a1.4046,1.4046,0,0,0-.4941-1.1211,5.0293,5.0293,0,0,0-1.7305-.7969,9.8471,9.8471,0,0,1-3.2622-1.4765,2.8016,2.8016,0,0,1-1.104-2.3418,2.9,2.9,0,0,1,1.2657-2.4278,5.2731,5.2731,0,0,1,3.2334-.9414,4.86,4.86,0,0,1,3.2456,1.0577,3.1691,3.1691,0,0,1,1.2119,2.61l-.0166.0508h-2.3492a1.7612,1.7612,0,0,0-.56-1.3574,2.2279,2.2279,0,0,0-1.5728-.52,2.3284,2.3284,0,0,0-1.5024.4317,1.3617,1.3617,0,0,0-.5312,1.1045,1.1857,1.1857,0,0,0,.5683,1.0088,7.8693,7.8693,0,0,0,1.9634.8339,7.6282,7.6282,0,0,1,3.03,1.4688,3.0559,3.0559,0,0,1,1.0293,2.3994,2.8711,2.8711,0,0,1-1.2246,2.4482,5.3461,5.3461,0,0,1-3.2329.8965,5.9033,5.9033,0,0,1-3.4449-1.0166,3.1742,3.1742,0,0,1-1.4277-2.8506l.0166-.0507h2.3574a1.86,1.86,0,0,0,.66,1.582,2.9731,2.9731,0,0,0,1.8384.5019,2.424,2.424,0,0,0,1.5107-.4062A1.3085,1.3085,0,0,0,647.7383,374.3457Z"/><path class="b0fdcf9e-7cdf-454c-a332-fe5532f19b0f" d="M654.57,377.5h-2.4238V365.4141H654.57Z"/><path class="b0fdcf9e-7cdf-454c-a332-fe5532f19b0f" d="M666.108,373.3828l.0166.05a3.94,3.94,0,0,1-1.1909,3.0967,4.7819,4.7819,0,0,1-3.3995,1.1445,4.7167,4.7167,0,0,1-3.5444-1.4023,4.9688,4.9688,0,0,1-1.3613-3.6113v-2.3985a5.06,5.06,0,0,1,1.3281-3.6113,4.5263,4.5263,0,0,1,3.4531-1.41,5.0091,5.0091,0,0,1,3.503,1.1494,3.9328,3.9328,0,0,1,1.2285,3.1338l-.0166.0489h-2.3574a2.6439,2.6439,0,0,0-.5728-1.83,2.29,2.29,0,0,0-1.7847-.6348,2.0219,2.0219,0,0,0-1.7265.8828,3.7454,3.7454,0,0,0-.6392,2.252v2.4131a3.64,3.64,0,0,0,.6724,2.2685,2.1642,2.1642,0,0,0,1.8178.8828,2.137,2.137,0,0,0,1.6807-.61,2.6475,2.6475,0,0,0,.544-1.8135Z"/><g class="af0440bc-493c-43da-9db8-c7076eeaaeae"><path class="b0fdcf9e-7cdf-454c-a332-fe5532f19b0f" d="M627.8345,390.124v3.126h-1.5683v-7.82h2.9487a3.2444,3.2444,0,0,1,2.0923.6094,2.0642,2.0642,0,0,1,.7544,1.7,1.7215,1.7215,0,0,1-.3169,1.042,2.213,2.213,0,0,1-.9292.7031,1.6894,1.6894,0,0,1,.9966.6826,2.1646,2.1646,0,0,1,.3032,1.1816v.5752a2.87,2.87,0,0,0,.0884.6846.9409.9409,0,0,0,.3037.5283v.1133h-1.6167a.8848.8848,0,0,1-.2793-.5742,4.8513,4.8513,0,0,1-.0645-.7637v-.5527a1.2409,1.2409,0,0,0-.32-.91,1.2034,1.2034,0,0,0-.8994-.3252Zm0-1.208h1.3536a1.4836,1.4836,0,0,0,.9853-.2793,1.033,1.033,0,0,0,.3252-.8281,1.1369,1.1369,0,0,0-.3252-.8535,1.32,1.32,0,0,0-.9585-.3164h-1.38Z"/><path class="b0fdcf9e-7cdf-454c-a332-fe5532f19b0f" d="M635.2037,393.25h-1.5684v-7.82h1.5684Z"/><path class="b0fdcf9e-7cdf-454c-a332-fe5532f19b0f" d="M640.9883,391.209a.9056.9056,0,0,0-.3193-.7246,3.1994,3.1994,0,0,0-1.12-.5156,6.3847,6.3847,0,0,1-2.1108-.9571,1.81,1.81,0,0,1-.7144-1.5137,1.8747,1.8747,0,0,1,.8193-1.5712,3.4106,3.4106,0,0,1,2.0918-.61,3.1408,3.1408,0,0,1,2.1.6856,2.0489,2.0489,0,0,1,.7842,1.6894l-.0107.0313h-1.52a1.1421,1.1421,0,0,0-.3623-.878,1.4435,1.4435,0,0,0-1.018-.3349,1.5017,1.5017,0,0,0-.9722.2793.8785.8785,0,0,0-.3437.7138.766.766,0,0,0,.3681.6524,5.075,5.075,0,0,0,1.27.54,4.9262,4.9262,0,0,1,1.9605.9512,1.9748,1.9748,0,0,1,.666,1.5517,1.86,1.86,0,0,1-.792,1.585,3.4613,3.4613,0,0,1-2.0923.58,3.8207,3.8207,0,0,1-2.229-.6582,2.0547,2.0547,0,0,1-.9238-1.8457l.0107-.0313h1.5254a1.204,1.204,0,0,0,.4268,1.0225,1.9264,1.9264,0,0,0,1.19.3252,1.5635,1.5635,0,0,0,.9776-.2637A.8438.8438,0,0,0,640.9883,391.209Z"/><path class="b0fdcf9e-7cdf-454c-a332-fe5532f19b0f" d="M649.6466,390.5859l.0107.0323a2.5463,2.5463,0,0,1-.771,2.0029,3.0933,3.0933,0,0,1-2.1992.7422,3.0524,3.0524,0,0,1-2.2935-.9082,3.2143,3.2143,0,0,1-.8808-2.336v-1.5527a3.2708,3.2708,0,0,1,.8593-2.3359,2.9269,2.9269,0,0,1,2.2344-.9141,3.2415,3.2415,0,0,1,2.2666.7441,2.5449,2.5449,0,0,1,.7949,2.0274l-.0107.0332h-1.5254a1.71,1.71,0,0,0-.3706-1.1846,1.4789,1.4789,0,0,0-1.1548-.4111,1.3088,1.3088,0,0,0-1.1172.5713,2.4228,2.4228,0,0,0-.4136,1.457v1.5615a2.3556,2.3556,0,0,0,.4351,1.4678,1.4008,1.4008,0,0,0,1.1763.5713,1.3868,1.3868,0,0,0,1.0879-.3945,1.7177,1.7177,0,0,0,.3515-1.1739Z"/><path class="b0fdcf9e-7cdf-454c-a332-fe5532f19b0f" d="M650.5059,389.334a3.9656,3.9656,0,0,1,1.1118-2.8516,3.7231,3.7231,0,0,1,5.4009,0,4.2169,4.2169,0,0,1-.0029,5.7149,3.7068,3.7068,0,0,1-5.398,0A3.9916,3.9916,0,0,1,650.5059,389.334Zm.6553,0a3.3361,3.3361,0,0,0,.9209,2.3877,3.059,3.059,0,0,0,4.4687,0,3.5393,3.5393,0,0,0,0-4.7637,3.0744,3.0744,0,0,0-4.4711,0A3.3127,3.3127,0,0,0,651.1612,389.334Zm2.3848.4082v1.81h-.8111v-4.5654h1.5093a2.0275,2.0275,0,0,1,1.2783.3652,1.2443,1.2443,0,0,1,.4673,1.042.9562.9562,0,0,1-.1557.545,1.2761,1.2761,0,0,1-.4566.4.9942.9942,0,0,1,.4536.4541,1.5584,1.5584,0,0,1,.1426.69v.3008a3.7833,3.7833,0,0,0,.0186.3945.9029.9029,0,0,0,.0727.2871v.0859h-.8325a1.0065,1.0065,0,0,1-.0591-.33c-.0073-.1456-.0107-.293-.0107-.4434v-.29a.7734.7734,0,0,0-.18-.5635.7983.7983,0,0,0-.5879-.1836Zm0-.7188h.7251a1.2233,1.2233,0,0,0,.6469-.1621.5087.5087,0,0,0,.2661-.4609.6347.6347,0,0,0-.2094-.543,1.2727,1.2727,0,0,0-.7305-.1562h-.6982Z"/><path class="b0fdcf9e-7cdf-454c-a332-fe5532f19b0f" d="M662.3062,390.5107h-3.0293v-1.208h3.0293Z"/><path class="b0fdcf9e-7cdf-454c-a332-fe5532f19b0f" d="M666.356,391.1719l.0967.4238h.0322l.0913-.4141,1.7027-5.7519h1.6543l-2.6587,7.82h-1.6113l-2.6534-7.82h1.6543Z"/></g></g><g id="a590f20b-c8d7-488e-a16c-f5cfcfd13da7" data-name="Panel 3"><rect class="b42e26ce-99e5-44e9-99c7-d1ff07f44c05" x="438.7027" y="108.6486" width="134" height="312.6667" rx="8.3333"/><circle class="b1290139-b4dd-418f-81d4-ec1c7ce4f698" cx="505.411" cy="310.0236" r="33.375"/><path class="b0fdcf9e-7cdf-454c-a332-fe5532f19b0f" d="M486.2657,150.436l.1494.6558h.05l.1411-.6392,2.6314-8.89h2.5566l-4.1089,12.0859h-2.49l-4.1006-12.0859h2.5566Z"/><path class="b0fdcf9e-7cdf-454c-a332-fe5532f19b0f" d="M496.3262,153.8228a4.0441,4.0441,0,0,1-3.1045-1.2452,4.4511,4.4511,0,0,1-1.1621-3.1626v-.332a4.9127,4.9127,0,0,1,1.1-3.2954,4.1,4.1,0,0,1,5.773-.1909,4.217,4.217,0,0,1,1.0044,2.9634v1.32h-5.3623l-.0166.0493a2.3306,2.3306,0,0,0,.5937,1.4556,1.8532,1.8532,0,0,0,1.4317.57,4.6449,4.6449,0,0,0,1.3364-.1621,6.1155,6.1155,0,0,0,1.1621-.51l.6558,1.4976a4.4677,4.4677,0,0,1-1.4361.7466A6.2269,6.2269,0,0,1,496.3262,153.8228Zm-.2158-7.4541a1.2617,1.2617,0,0,0-1.0625.5146,2.68,2.68,0,0,0-.4814,1.353l.0249.0415h2.9717v-.2158a1.9432,1.9432,0,0,0-.3614-1.2329A1.3018,1.3018,0,0,0,496.11,146.3687Z"/><path class="b0fdcf9e-7cdf-454c-a332-fe5532f19b0f" d="M505.1168,151.9551a1.433,1.433,0,0,0,1.0376-.3755,1.326,1.326,0,0,0,.39-1.0025h2.2l.0249.05a2.7958,2.7958,0,0,1-1.0254,2.2783,4.3219,4.3219,0,0,1-5.7231-.3526,4.8379,4.8379,0,0,1-1.0874-3.2622v-.249a4.8725,4.8725,0,0,1,1.083-3.2622,3.83,3.83,0,0,1,3.0923-1.2783,3.7727,3.7727,0,0,1,2.6772.9463,3.1441,3.1441,0,0,1,.9834,2.49l-.0166.05h-2.208a1.7562,1.7562,0,0,0-.3818-1.1582,1.2961,1.2961,0,0,0-1.0542-.46,1.4057,1.4057,0,0,0-1.357.746,4.0983,4.0983,0,0,0-.3945,1.9229v.2485a4.0858,4.0858,0,0,0,.3945,1.9356A1.4188,1.4188,0,0,0,505.1168,151.9551Z"/><path class="b0fdcf9e-7cdf-454c-a332-fe5532f19b0f" d="M513.0274,142.4673v2.2h1.5108v1.7017h-1.5108v4.5737a1.0569,1.0569,0,0,0,.2158.7471.7692.7692,0,0,0,.5811.2241,2.1773,2.1773,0,0,0,.3276-.021,2.8071,2.8071,0,0,0,.32-.07l.2076,1.7514a4.925,4.925,0,0,1-.7139.187,4.343,4.343,0,0,1-.7554.0621,2.5835,2.5835,0,0,1-1.93-.689,3.0226,3.0226,0,0,1-.6763-2.1831v-4.582h-1.3115V144.667h1.3115v-2.2Z"/><path class="b0fdcf9e-7cdf-454c-a332-fe5532f19b0f" d="M515.7086,149.0747a4.8211,4.8211,0,0,1,1.1206-3.2915,3.9071,3.9071,0,0,1,3.1045-1.2822,3.9479,3.9479,0,0,1,3.1211,1.2783,4.7947,4.7947,0,0,1,1.1289,3.2954v.1743a4.802,4.802,0,0,1-1.125,3.3,4.44,4.44,0,0,1-6.2256,0,4.8042,4.8042,0,0,1-1.1245-3.3Zm2.4155.17a3.9,3.9,0,0,0,.4316,1.9688,1.66,1.66,0,0,0,2.7686-.0044,3.8754,3.8754,0,0,0,.4355-1.9644v-.1738a3.83,3.83,0,0,0-.44-1.9478,1.4891,1.4891,0,0,0-1.3862-.7543,1.4719,1.4719,0,0,0-1.3741.7583,3.8732,3.8732,0,0,0-.4355,1.9438Z"/><path class="b0fdcf9e-7cdf-454c-a332-fe5532f19b0f" d="M530.4009,146.7505l-.8881-.0249a1.614,1.614,0,0,0-.8882.2241,1.4206,1.4206,0,0,0-.5313.6309v6.0678h-2.4155V144.667h2.2495l.1079,1.3281a2.8371,2.8371,0,0,1,.8174-1.1,1.8222,1.8222,0,0,1,1.1582-.3945,1.7863,1.7863,0,0,1,.3359.0293q.1539.0285.3116.07Z"/><path class="b0fdcf9e-7cdf-454c-a332-fe5532f19b0f" d="M499.9454,375.8477a4.5654,4.5654,0,0,1-1.6807,1.2705,6.574,6.574,0,0,1-2.8848.5556,4.9481,4.9481,0,0,1-3.6191-1.3769,4.7955,4.7955,0,0,1-1.4028-3.5781v-2.5235a4.8987,4.8987,0,0,1,1.3491-3.5732,4.6387,4.6387,0,0,1,3.4736-1.3819,4.8384,4.8384,0,0,1,3.3828,1.0743,3.728,3.728,0,0,1,1.1993,2.8261l-.0166.0508h-2.2828a2.3249,2.3249,0,0,0-.6142-1.5234,2.14,2.14,0,0,0-1.6021-.5606,2.1764,2.1764,0,0,0-1.7929.8584,3.4493,3.4493,0,0,0-.6807,2.21v2.5381a3.4063,3.4063,0,0,0,.7056,2.2343,2.3323,2.3323,0,0,0,1.9008.8584,4.355,4.355,0,0,0,1.3614-.1738,2.058,2.058,0,0,0,.78-.4307v-2.2343H495.38V371.291h4.5655Z"/><path class="b0fdcf9e-7cdf-454c-a332-fe5532f19b0f" d="M504.4527,373.1172V377.5h-2.4238V365.4141h4.8144a4.7614,4.7614,0,0,1,3.2788,1.0625,3.8607,3.8607,0,0,1,0,5.5859,4.7827,4.7827,0,0,1-3.2788,1.0547Zm0-1.8672h2.3906a2.0164,2.0164,0,0,0,1.5357-.5527,1.9632,1.9632,0,0,0,.5229-1.4063,2.0539,2.0539,0,0,0-.5185-1.44,1.9828,1.9828,0,0,0-1.54-.5693h-2.3906Z"/><path class="b0fdcf9e-7cdf-454c-a332-fe5532f19b0f" d="M522.6646,365.4141v8.0185A3.83,3.83,0,0,1,521.32,376.57a5.3676,5.3676,0,0,1-3.5195,1.1035,5.3053,5.3053,0,0,1-3.4991-1.1035,3.8477,3.8477,0,0,1-1.332-3.1377v-8.0185h2.4321v8.0117a2.3233,2.3233,0,0,0,.6392,1.7881,2.4865,2.4865,0,0,0,1.76.5927,2.5535,2.5535,0,0,0,1.7846-.5888,2.3034,2.3034,0,0,0,.6475-1.792v-8.0117Z"/><g class="af0440bc-493c-43da-9db8-c7076eeaaeae"><path class="b0fdcf9e-7cdf-454c-a332-fe5532f19b0f" d="M479.8384,393.25h-1.5629l-3.1582-5.3437-.0323.0048V393.25h-1.5683v-7.82h1.5683l3.1582,5.3389.0323-.0049V385.43h1.5629Z"/><path class="b0fdcf9e-7cdf-454c-a332-fe5532f19b0f" d="M483.9581,391.1719l.0967.4238h.0322l.0913-.4141,1.7026-5.7519h1.6543l-2.6587,7.82h-1.6113l-2.6533-7.82h1.6543Z"/><path class="b0fdcf9e-7cdf-454c-a332-fe5532f19b0f" d="M489.9683,393.25H488.4v-7.82h1.5683Z"/><path class="b0fdcf9e-7cdf-454c-a332-fe5532f19b0f" d="M491.5313,393.25v-7.82h2.6856a3.2278,3.2278,0,0,1,2.3632.916,3.1552,3.1552,0,0,1,.9292,2.35V389.99a3.1459,3.1459,0,0,1-.9292,2.35,3.2387,3.2387,0,0,1-2.3632.91Zm1.5684-6.6113v5.4023h1.0366a1.6339,1.6339,0,0,0,1.3213-.5683,2.232,2.232,0,0,0,.478-1.4864v-1.3037a2.2147,2.2147,0,0,0-.478-1.4756,1.6339,1.6339,0,0,0-1.3213-.5683Z"/><path class="b0fdcf9e-7cdf-454c-a332-fe5532f19b0f" d="M500.4044,393.25H498.836v-7.82h1.5684Z"/><path class="b0fdcf9e-7cdf-454c-a332-fe5532f19b0f" d="M506.1622,391.5635h-2.7447l-.5317,1.6865h-1.5845l2.691-7.82h1.6059l2.68,7.82h-1.5845Zm-2.3579-1.2295h1.9712l-.9668-3.0723h-.0323Z"/><path class="b0fdcf9e-7cdf-454c-a332-fe5532f19b0f" d="M511.3453,391.1445a1.75,1.75,0,0,1,.3491-1.0927,4.7451,4.7451,0,0,1,1.0635-.959,4.7957,4.7957,0,0,1-.5449-.9024,2.0437,2.0437,0,0,1-.18-.833,1.9592,1.9592,0,0,1,.58-1.4844,2.1485,2.1485,0,0,1,1.5522-.5566,1.8907,1.8907,0,0,1,1.3887.5293,1.738,1.738,0,0,1,.5342,1.2813,1.82,1.82,0,0,1-.2632.9609,2.5867,2.5867,0,0,1-.72.7637l-.5.3535,1.4825,1.73a2.9008,2.9008,0,0,0,.3007-.6992,2.87,2.87,0,0,0,.1075-.7949h1.1709a4.8508,4.8508,0,0,1-.1827,1.3652,3.2862,3.2862,0,0,1-.5586,1.1055l1.1172,1.3106-.0107.0273h-1.74l-.4136-.4785a3.729,3.729,0,0,1-.94.4433,3.5225,3.5225,0,0,1-1.0366.1485,2.7042,2.7042,0,0,1-1.8637-.6153A2.0425,2.0425,0,0,1,511.3453,391.1445Zm2.6372,1.01a2.319,2.319,0,0,0,.5693-.0723,2.2842,2.2842,0,0,0,.5479-.2168L513.4883,390l-.102.07a1.4756,1.4756,0,0,0-.3735.501,1.2933,1.2933,0,0,0-.0992.49,1.0912,1.0912,0,0,0,.2955.7852A1.0227,1.0227,0,0,0,513.9825,392.1543Zm-.5479-4.8125a1.1134,1.1134,0,0,0,.1153.4756,2.96,2.96,0,0,0,.3467.54l.4619-.3008a1.1065,1.1065,0,0,0,.4052-.3984.9522.9522,0,0,0,.105-.4453.6845.6845,0,0,0-.1958-.4785.6734.6734,0,0,0-.5132-.209.6507.6507,0,0,0-.5371.2334A.9011.9011,0,0,0,513.4346,387.3418Z"/><path class="b0fdcf9e-7cdf-454c-a332-fe5532f19b0f" d="M525.9117,391.5635h-2.7446l-.5318,1.6865h-1.5845l2.691-7.82h1.6059l2.68,7.82h-1.5845Zm-2.3579-1.2295h1.9712l-.9668-3.0723h-.0323Z"/><path class="b0fdcf9e-7cdf-454c-a332-fe5532f19b0f" d="M530.8048,385.43l1.9926,5.7637h.0323l2.0087-5.7637H536.89v7.82h-1.5684v-2.3311l.15-3.4541-.0322-.0048-2.0947,5.79h-1.0528l-2.0839-5.7686-.0323.0049.15,3.4326V393.25h-1.5683v-7.82Z"/><path class="b0fdcf9e-7cdf-454c-a332-fe5532f19b0f" d="M538.3565,393.25v-7.82h2.6856a3.2278,3.2278,0,0,1,2.3632.916,3.1552,3.1552,0,0,1,.9292,2.35V389.99a3.1459,3.1459,0,0,1-.9292,2.35,3.2387,3.2387,0,0,1-2.3632.91Zm1.5684-6.6113v5.4023h1.0366a1.6339,1.6339,0,0,0,1.3213-.5683,2.232,2.232,0,0,0,.478-1.4864v-1.3037a2.2147,2.2147,0,0,0-.478-1.4756,1.6339,1.6339,0,0,0-1.3213-.5683Z"/></g><rect class="a7580d2f-cc40-43ac-98c0-3b4525c48f71" x="444.536" y="186.1486" width="262.1667" height="49.25" rx="5.625"/><path class="b0fdcf9e-7cdf-454c-a332-fe5532f19b0f" d="M565.1549,214.2852a1.5461,1.5461,0,0,0-.5606-1.2315,5.2729,5.2729,0,0,0-1.98-.8594,8.3825,8.3825,0,0,1-3.1172-1.4067,2.8022,2.8022,0,0,1-1.0913-2.2954,2.9318,2.9318,0,0,1,1.2075-2.4072,4.9062,4.9062,0,0,1,3.1172-.9463,4.6373,4.6373,0,0,1,3.2,1.0747,3.2088,3.2088,0,0,1,1.166,2.5776l-.0166.05h-1.934a1.9459,1.9459,0,0,0-.6309-1.5063,2.5748,2.5748,0,0,0-1.8013-.5772,2.6368,2.6368,0,0,0-1.6972.4805,1.5243,1.5243,0,0,0-.5938,1.2422,1.357,1.357,0,0,0,.6436,1.143,7.121,7.121,0,0,0,2.1289.8614,7.0918,7.0918,0,0,1,2.9633,1.4443,3.0352,3.0352,0,0,1,1.0127,2.3491,2.8369,2.8369,0,0,1-1.2075,2.4034,5.2179,5.2179,0,0,1-3.1753.892,5.6107,5.6107,0,0,1-3.32-1.0083,3.096,3.096,0,0,1-1.3862-2.7519l.0166-.05h1.9424a1.8872,1.8872,0,0,0,.7636,1.6474,3.3427,3.3427,0,0,0,1.9839.544,2.9316,2.9316,0,0,0,1.7432-.45A1.4274,1.4274,0,0,0,565.1549,214.2852Z"/><path class="b0fdcf9e-7cdf-454c-a332-fe5532f19b0f" d="M573.24,211.19l2.9219-5.8769h2.25l-4.1919,7.8442v4.2417h-2.0088v-4.35l-4.1255-7.7363h2.25Z"/><path class="b0fdcf9e-7cdf-454c-a332-fe5532f19b0f" d="M588.397,213.39l.0166.05a3.806,3.806,0,0,1-1.1909,2.9838,4.65,4.65,0,0,1-3.3164,1.15,4.483,4.483,0,0,1-3.44-1.4233,5.1336,5.1336,0,0,1-1.3242-3.64V210.21a5.1864,5.1864,0,0,1,1.3076-3.64,4.3866,4.3866,0,0,1,3.3989-1.4321,4.82,4.82,0,0,1,3.3745,1.1245,3.8015,3.8015,0,0,1,1.1992,3.0259l-.0166.05h-1.9506a2.3409,2.3409,0,0,0-2.6065-2.5816,2.3186,2.3186,0,0,0-1.9634.9785,4.0085,4.0085,0,0,0-.726,2.4551v2.3135a3.9721,3.9721,0,0,0,.7426,2.4717,2.3867,2.3867,0,0,0,2.0049.9785,2.5248,2.5248,0,0,0,1.9009-.67,2.6175,2.6175,0,0,0,.6475-1.8951Z"/><path class="b0fdcf9e-7cdf-454c-a332-fe5532f19b0f" d="M592.4063,215.78H597.96v1.6186h-7.57V205.313h2.0171Z"/><path class="b0fdcf9e-7cdf-454c-a332-fe5532f19b0f" d="M602.3424,206.1016h-1.1456v3.6772h-.9711v-3.6772h-1.129v-.7886h3.2457Zm4.3247,1.0625-.05-.0083-1.0708,2.64H605.04l-1.1123-2.7392-.05.0083v2.7309h-.9214V205.313h1.1372l1.17,3.0962h.05l1.1787-3.0962H607.58v4.4824h-.913Z"/></g><g id="f0eb2972-4a5b-4c71-9bc9-5919c2319f2e" data-name="Arrow"><polygon class="b86e7951-e569-4bef-8c1c-a05ff44b9ef7" points="384.203 250 413.203 274.5 384.203 299.5 384.203 287.5 361.203 287.5 361.203 264.5 383.703 264.5 384.203 250"/></g><g id="a949e2ca-5ba3-454f-8b46-7a1e4d01d1ab" data-name="Layer 8"><rect class="b0fdcf9e-7cdf-454c-a332-fe5532f19b0f" x="99.2444" y="293.9403" width="2.1667" height="32.1667"/><rect class="b0fdcf9e-7cdf-454c-a332-fe5532f19b0f" x="103.7444" y="293.9403" width="2.1667" height="32.1667"/><rect class="b0fdcf9e-7cdf-454c-a332-fe5532f19b0f" x="108.161" y="293.9403" width="2.1667" height="32.1667"/><rect class="b0fdcf9e-7cdf-454c-a332-fe5532f19b0f" x="112.5777" y="293.9403" width="2.1667" height="32.1667"/><rect class="b0fdcf9e-7cdf-454c-a332-fe5532f19b0f" x="117.0777" y="293.9403" width="2.1667" height="32.1667"/><rect class="b0fdcf9e-7cdf-454c-a332-fe5532f19b0f" x="121.4944" y="293.9403" width="2.1667" height="32.1667"/><rect class="b0fdcf9e-7cdf-454c-a332-fe5532f19b0f" x="125.911" y="293.9403" width="2.1667" height="32.1667"/><rect class="b0fdcf9e-7cdf-454c-a332-fe5532f19b0f" x="130.3277" y="293.9403" width="2.1667" height="32.1667"/><rect class="b0fdcf9e-7cdf-454c-a332-fe5532f19b0f" x="134.7444" y="293.9403" width="2.1667" height="32.1667"/></g><g id="f361d136-e1cd-457f-8535-baaa039539c6" data-name="Layer 11"><rect class="b0fdcf9e-7cdf-454c-a332-fe5532f19b0f" x="486.8694" y="294.875" width="2.1667" height="32.1667"/><rect class="b0fdcf9e-7cdf-454c-a332-fe5532f19b0f" x="491.3694" y="294.875" width="2.1667" height="32.1667"/><rect class="b0fdcf9e-7cdf-454c-a332-fe5532f19b0f" x="495.786" y="294.875" width="2.1667" height="32.1667"/><rect class="b0fdcf9e-7cdf-454c-a332-fe5532f19b0f" x="500.2027" y="294.875" width="2.1667" height="32.1667"/><rect class="b0fdcf9e-7cdf-454c-a332-fe5532f19b0f" x="504.7027" y="294.875" width="2.1667" height="32.1667"/><rect class="b0fdcf9e-7cdf-454c-a332-fe5532f19b0f" x="509.1194" y="294.875" width="2.1667" height="32.1667"/><rect class="b0fdcf9e-7cdf-454c-a332-fe5532f19b0f" x="513.536" y="294.875" width="2.1667" height="32.1667"/><rect class="b0fdcf9e-7cdf-454c-a332-fe5532f19b0f" x="517.9527" y="294.875" width="2.1667" height="32.1667"/><rect class="b0fdcf9e-7cdf-454c-a332-fe5532f19b0f" x="522.3694" y="294.875" width="2.1667" height="32.1667"/></g><g id="a30d8ee7-85cd-4808-be7a-c330486248b3" data-name="Layer 9"><rect class="aa894c67-0221-4eee-918f-ec3d53f81851" x="629.7548" y="291.7083" width="6.375" height="6.375"/><rect class="aa894c67-0221-4eee-918f-ec3d53f81851" x="639.5673" y="291.7083" width="6.375" height="6.375"/><rect class="aa894c67-0221-4eee-918f-ec3d53f81851" x="649.4631" y="291.7083" width="6.375" height="6.375"/><rect class="aa894c67-0221-4eee-918f-ec3d53f81851" x="659.2756" y="291.7083" width="6.375" height="6.375"/><rect class="aa894c67-0221-4eee-918f-ec3d53f81851" x="629.7548" y="301.3333" width="6.375" height="6.375"/><rect class="aa894c67-0221-4eee-918f-ec3d53f81851" x="639.5673" y="301.3333" width="6.375" height="6.375"/><rect class="aa894c67-0221-4eee-918f-ec3d53f81851" x="649.4631" y="301.3333" width="6.375" height="6.375"/><rect class="aa894c67-0221-4eee-918f-ec3d53f81851" x="659.2756" y="301.3333" width="6.375" height="6.375"/><rect class="aa894c67-0221-4eee-918f-ec3d53f81851" x="629.7548" y="310.9583" width="6.375" height="6.375"/><rect class="aa894c67-0221-4eee-918f-ec3d53f81851" x="639.5673" y="310.9583" width="6.375" height="6.375"/><rect class="aa894c67-0221-4eee-918f-ec3d53f81851" x="649.4631" y="310.9583" width="6.375" height="6.375"/><rect class="aa894c67-0221-4eee-918f-ec3d53f81851" x="659.2756" y="310.9583" width="6.375" height="6.375"/><rect class="aa894c67-0221-4eee-918f-ec3d53f81851" x="629.7548" y="320.5833" width="6.375" height="6.375"/><rect class="aa894c67-0221-4eee-918f-ec3d53f81851" x="639.5673" y="320.5833" width="6.375" height="6.375"/><rect class="aa894c67-0221-4eee-918f-ec3d53f81851" x="649.4631" y="320.5833" width="6.375" height="6.375"/><rect class="aa894c67-0221-4eee-918f-ec3d53f81851" x="659.2756" y="320.5833" width="6.375" height="6.375"/></g><g id="be7a75ed-df69-4d61-88ae-61e1c8a040dc" data-name="Layer 10"><rect class="aa894c67-0221-4eee-918f-ec3d53f81851" x="244.1673" y="292.3986" width="6.375" height="6.375"/><rect class="aa894c67-0221-4eee-918f-ec3d53f81851" x="253.9798" y="292.3986" width="6.375" height="6.375"/><rect class="aa894c67-0221-4eee-918f-ec3d53f81851" x="263.8757" y="292.3986" width="6.375" height="6.375"/><rect class="aa894c67-0221-4eee-918f-ec3d53f81851" x="273.6882" y="292.3986" width="6.375" height="6.375"/><rect class="aa894c67-0221-4eee-918f-ec3d53f81851" x="244.1673" y="302.0236" width="6.375" height="6.375"/><rect class="aa894c67-0221-4eee-918f-ec3d53f81851" x="253.9798" y="302.0236" width="6.375" height="6.375"/><rect class="aa894c67-0221-4eee-918f-ec3d53f81851" x="263.8757" y="302.0236" width="6.375" height="6.375"/><rect class="aa894c67-0221-4eee-918f-ec3d53f81851" x="273.6882" y="302.0236" width="6.375" height="6.375"/><rect class="aa894c67-0221-4eee-918f-ec3d53f81851" x="244.1673" y="311.6486" width="6.375" height="6.375"/><rect class="aa894c67-0221-4eee-918f-ec3d53f81851" x="253.9798" y="311.6486" width="6.375" height="6.375"/><rect class="aa894c67-0221-4eee-918f-ec3d53f81851" x="263.8757" y="311.6486" width="6.375" height="6.375"/><rect class="aa894c67-0221-4eee-918f-ec3d53f81851" x="273.6882" y="311.6486" width="6.375" height="6.375"/><rect class="aa894c67-0221-4eee-918f-ec3d53f81851" x="244.1673" y="321.2736" width="6.375" height="6.375"/><rect class="aa894c67-0221-4eee-918f-ec3d53f81851" x="253.9798" y="321.2736" width="6.375" height="6.375"/><rect class="aa894c67-0221-4eee-918f-ec3d53f81851" x="263.8757" y="321.2736" width="6.375" height="6.375"/><rect class="aa894c67-0221-4eee-918f-ec3d53f81851" x="273.6882" y="321.2736" width="6.375" height="6.375"/></g><path class="aed01946-a9d9-4949-8ef4-2582c9f48f3b" d="M62.2237,51.1406l.0176.0528A4.1692,4.1692,0,0,1,60.98,54.4717a5.0622,5.0622,0,0,1-3.5991,1.2129,4.9954,4.9954,0,0,1-3.7529-1.4854,5.2609,5.2609,0,0,1-1.4414-3.8232v-2.54a5.3545,5.3545,0,0,1,1.4062-3.8232,4.792,4.792,0,0,1,3.6563-1.4941,5.3046,5.3046,0,0,1,3.709,1.2172,4.1645,4.1645,0,0,1,1.3008,3.3179l-.0176.0527H59.7452a2.7988,2.7988,0,0,0-.6065-1.9379,2.4227,2.4227,0,0,0-1.89-.6724,2.1409,2.1409,0,0,0-1.8281.9351,3.9659,3.9659,0,0,0-.6768,2.3842V50.37a3.8551,3.8551,0,0,0,.7119,2.4019,2.292,2.292,0,0,0,1.9248.935,2.2651,2.2651,0,0,0,1.78-.646,2.8068,2.8068,0,0,0,.5757-1.92Z"/><path class="aed01946-a9d9-4949-8ef4-2582c9f48f3b" d="M66.5567,55.5H63.99V41.7891h2.5664Z"/><path class="aed01946-a9d9-4949-8ef4-2582c9f48f3b" d="M68.2706,50.6572a5.1033,5.1033,0,0,1,1.1865-3.4848,4.1357,4.1357,0,0,1,3.2871-1.3579,4.18,4.18,0,0,1,3.3047,1.3535,5.0758,5.0758,0,0,1,1.1953,3.4892v.1846a5.084,5.084,0,0,1-1.1909,3.4936,4.7,4.7,0,0,1-6.5918,0,5.0835,5.0835,0,0,1-1.1909-3.4936Zm2.5576.18a4.1281,4.1281,0,0,0,.457,2.0845,1.7577,1.7577,0,0,0,2.9312-.0044,4.1007,4.1007,0,0,0,.4614-2.08v-.1846a4.0558,4.0558,0,0,0-.4658-2.062,1.5762,1.5762,0,0,0-1.4678-.7988,1.5569,1.5569,0,0,0-1.4546.8032,4.0924,4.0924,0,0,0-.4614,2.0576Z"/><path class="aed01946-a9d9-4949-8ef4-2582c9f48f3b" d="M83.9678,52.8809a.8963.8963,0,0,0-.4087-.7295,4.1635,4.1635,0,0,0-1.5161-.545,6.1042,6.1042,0,0,1-2.5444-1.0151,2.2039,2.2039,0,0,1-.8569-1.8325,2.62,2.62,0,0,1,1.0327-2.0874,4.1921,4.1921,0,0,1,2.7641-.8569,4.5371,4.5371,0,0,1,2.896.8525A2.5179,2.5179,0,0,1,86.3673,48.82l-.0176.0527H83.8712a1.2524,1.2524,0,0,0-.3648-.9316,1.7495,1.7495,0,0,0-2.0478-.0571.9573.9573,0,0,0-.356.76.8649.8649,0,0,0,.3735.7207,4.0848,4.0848,0,0,0,1.5162.501,6.1432,6.1432,0,0,1,2.61,1.0327,2.27,2.27,0,0,1,.8525,1.8765,2.4988,2.4988,0,0,1-1.0986,2.0962,4.76,4.76,0,0,1-2.9.813,4.4079,4.4079,0,0,1-3.0014-.9624,2.69,2.69,0,0,1-1.05-2.1929l.0175-.0527h2.3467a1.3339,1.3339,0,0,0,.501,1.1074,2.0684,2.0684,0,0,0,1.2393.3428,1.7827,1.7827,0,0,0,1.0854-.2813A.9063.9063,0,0,0,83.9678,52.8809Z"/><path class="aed01946-a9d9-4949-8ef4-2582c9f48f3b" d="M92.3174,55.6846A4.282,4.282,0,0,1,89.03,54.3662a4.7139,4.7139,0,0,1-1.23-3.3486V50.666a5.2022,5.2022,0,0,1,1.1645-3.4892,4.3419,4.3419,0,0,1,6.1128-.2022,4.4641,4.4641,0,0,1,1.0635,3.1377V51.51H90.463l-.0176.0522a2.4668,2.4668,0,0,0,.6284,1.541,1.9623,1.9623,0,0,0,1.5161.604,4.9354,4.9354,0,0,0,1.415-.1714,6.4993,6.4993,0,0,0,1.23-.5405l.6944,1.586a4.7371,4.7371,0,0,1-1.5206.79A6.587,6.587,0,0,1,92.3174,55.6846Zm-.2285-7.8926a1.3361,1.3361,0,0,0-1.125.5449,2.8366,2.8366,0,0,0-.51,1.4326l.0263.044H93.627V49.585a2.0585,2.0585,0,0,0-.3823-1.3052A1.378,1.378,0,0,0,92.0889,47.792Z"/><path class="aed01946-a9d9-4949-8ef4-2582c9f48f3b" d="M97.2393,50.8242a6.18,6.18,0,0,1,.9712-3.63,3.1538,3.1538,0,0,1,2.7378-1.38,2.6625,2.6625,0,0,1,1.2832.3076,3.0854,3.0854,0,0,1,1.002.8789V41.7891h2.5752V55.5h-2.2061l-.2109-1.16a3.151,3.151,0,0,1-1.0591,1.002,2.8156,2.8156,0,0,1-1.4019.3428,3.2157,3.2157,0,0,1-2.72-1.2832,5.48,5.48,0,0,1-.9712-3.3926Zm2.5576.1861a3.915,3.915,0,0,0,.4219,1.976,1.4665,1.4665,0,0,0,1.3711.7207,1.986,1.986,0,0,0,.9668-.2256,1.7914,1.7914,0,0,0,.6768-.6586V48.7471a1.9811,1.9811,0,0,0-.6724-.7032,1.7807,1.7807,0,0,0-.9536-.2519,1.4472,1.4472,0,0,0-1.3755.84,4.7726,4.7726,0,0,0-.4351,2.1929Z"/><path class="aed01946-a9d9-4949-8ef4-2582c9f48f3b" d="M112.7608,51.0176h-4.957V49.04h4.957Z"/><path class="aed01946-a9d9-4949-8ef4-2582c9f48f3b" d="M121.9542,52.16a1.4856,1.4856,0,0,0-.523-1.1866,5.2916,5.2916,0,0,0-1.8325-.8437,10.4365,10.4365,0,0,1-3.4541-1.5645,2.9643,2.9643,0,0,1-1.1689-2.4785,3.07,3.07,0,0,1,1.34-2.5708,5.5812,5.5812,0,0,1,3.4233-.9975,5.1438,5.1438,0,0,1,3.4365,1.1206,3.3545,3.3545,0,0,1,1.2833,2.7641l-.0176.0528h-2.4873a1.8676,1.8676,0,0,0-.5933-1.4371,2.36,2.36,0,0,0-1.6655-.5493,2.4614,2.4614,0,0,0-1.5908.4571,1.44,1.44,0,0,0-.5625,1.1689,1.2545,1.2545,0,0,0,.602,1.0679,8.3294,8.3294,0,0,0,2.0786.8833,8.0675,8.0675,0,0,1,3.208,1.5556,3.2326,3.2326,0,0,1,1.09,2.54,3.0421,3.0421,0,0,1-1.2964,2.5928,5.6628,5.6628,0,0,1-3.4234.9492,6.2491,6.2491,0,0,1-3.6474-1.0767,3.3624,3.3624,0,0,1-1.5117-3.019l.0175-.0528h2.4961a1.9687,1.9687,0,0,0,.6988,1.6743,3.1508,3.1508,0,0,0,1.9467.5318,2.5628,2.5628,0,0,0,1.6-.4307A1.3845,1.3845,0,0,0,121.9542,52.16Z"/><path class="aed01946-a9d9-4949-8ef4-2582c9f48f3b" d="M125.8565,50.6572a5.1033,5.1033,0,0,1,1.1865-3.4848,4.136,4.136,0,0,1,3.2871-1.3579,4.18,4.18,0,0,1,3.3047,1.3535,5.0758,5.0758,0,0,1,1.1953,3.4892v.1846a5.0835,5.0835,0,0,1-1.1909,3.4936,4.7,4.7,0,0,1-6.5918,0,5.084,5.084,0,0,1-1.1909-3.4936Zm2.5576.18a4.128,4.128,0,0,0,.4571,2.0845,1.7577,1.7577,0,0,0,2.9311-.0044,4.1007,4.1007,0,0,0,.4614-2.08v-.1846a4.0548,4.0548,0,0,0-.4658-2.062,1.5761,1.5761,0,0,0-1.4678-.7988,1.5567,1.5567,0,0,0-1.4545.8032,4.0913,4.0913,0,0,0-.4615,2.0576Z"/><path class="aed01946-a9d9-4949-8ef4-2582c9f48f3b" d="M142.2217,54.1289a3.1925,3.1925,0,0,1-1.1162,1.1514,3.2917,3.2917,0,0,1-3.9067-.5581,4.441,4.441,0,0,1-.8481-2.9927V45.99h2.5576v5.77a2.4693,2.4693,0,0,0,.3515,1.4931,1.232,1.232,0,0,0,1.0371.4536,2.5493,2.5493,0,0,0,1.0547-.1982,1.7736,1.7736,0,0,0,.7207-.5859V45.99h2.5664V55.5H142.45Z"/><path class="aed01946-a9d9-4949-8ef4-2582c9f48f3b" d="M151.5733,48.1963l-.94-.0264a1.71,1.71,0,0,0-.9405.2373,1.5053,1.5053,0,0,0-.5625.668V55.5h-2.5576V45.99h2.3819l.1142,1.4063a3.0016,3.0016,0,0,1,.8657-1.1646,2.0237,2.0237,0,0,1,1.5821-.3867q.1626.0307.33.0747Z"/><path class="aed01946-a9d9-4949-8ef4-2582c9f48f3b" d="M156.8643,53.707a1.5174,1.5174,0,0,0,1.0987-.3974,1.4053,1.4053,0,0,0,.413-1.0616h2.3291l.0264.0528a2.9625,2.9625,0,0,1-1.0854,2.4126,4.577,4.577,0,0,1-6.06-.3736,5.1234,5.1234,0,0,1-1.1514-3.4541v-.2636a5.1575,5.1575,0,0,1,1.147-3.4541,4.0538,4.0538,0,0,1,3.2739-1.3535,3.9939,3.9939,0,0,1,2.8345,1.0019,3.3283,3.3283,0,0,1,1.0415,2.6367l-.0176.0528H158.376a1.8566,1.8566,0,0,0-.4043-1.2261,1.371,1.371,0,0,0-1.1162-.4878,1.489,1.489,0,0,0-1.437.79,4.3437,4.3437,0,0,0-.4175,2.0357v.2636a4.3313,4.3313,0,0,0,.4175,2.0494A1.5025,1.5025,0,0,0,156.8643,53.707Z"/><path class="aed01946-a9d9-4949-8ef4-2582c9f48f3b" d="M166.4005,55.6846a4.2821,4.2821,0,0,1-3.2872-1.3184,4.7139,4.7139,0,0,1-1.23-3.3486V50.666a5.2022,5.2022,0,0,1,1.1645-3.4892,4.3419,4.3419,0,0,1,6.1128-.2022,4.4641,4.4641,0,0,1,1.0635,3.1377V51.51H164.546l-.0176.0522a2.4668,2.4668,0,0,0,.6284,1.541,1.9623,1.9623,0,0,0,1.5161.604,4.9362,4.9362,0,0,0,1.4151-.1714,6.4986,6.4986,0,0,0,1.23-.5405l.6944,1.586a4.7376,4.7376,0,0,1-1.52.79A6.5879,6.5879,0,0,1,166.4005,55.6846Zm-.2286-7.8926a1.3361,1.3361,0,0,0-1.125.5449,2.8375,2.8375,0,0,0-.51,1.4326l.0263.044H167.71V49.585a2.0585,2.0585,0,0,0-.3823-1.3052A1.378,1.378,0,0,0,166.1719,47.792Z"/><path class="bca78a2b-7116-4530-8552-a36bf6e4fe85" d="M60.2286,77H58.5743l-4.416-7.2666-.041.0137V77H52.4561V67.0469h1.6612l4.416,7.26.041-.0136V67.0469h1.6543Z"/><path class="bca78a2b-7116-4530-8552-a36bf6e4fe85" d="M61.89,73.2334a4.0295,4.0295,0,0,1,.9024-2.707,3.4514,3.4514,0,0,1,4.9765,0,3.9935,3.9935,0,0,1,.9092,2.707v.1436a4.0147,4.0147,0,0,1-.9092,2.7207,3.4748,3.4748,0,0,1-4.9765-.0069A4.0223,4.0223,0,0,1,61.89,73.377Zm1.6611.14a3.2942,3.2942,0,0,0,.4239,1.7613,1.5993,1.5993,0,0,0,2.6113,0,3.2157,3.2157,0,0,0,.4375-1.7613V73.23a3.1736,3.1736,0,0,0-.4375-1.7407,1.5809,1.5809,0,0,0-2.6113,0,3.273,3.273,0,0,0-.4239,1.7407Z"/><path class="bca78a2b-7116-4530-8552-a36bf6e4fe85" d="M71.6309,69.6035l.0957,1.0664a2.6468,2.6468,0,0,1,.9126-.8852,2.4344,2.4344,0,0,1,1.2407-.3179,2.3274,2.3274,0,0,1,1.8013.7007,3.1434,3.1434,0,0,1,.646,2.1841V77H74.6661V72.3652a1.6627,1.6627,0,0,0-.3452-1.186,1.4093,1.4093,0,0,0-1.0493-.3521,1.74,1.74,0,0,0-.8682.2154,1.7934,1.7934,0,0,0-.6289.5913V77H70.1133V69.6035Z"/><path class="bca78a2b-7116-4530-8552-a36bf6e4fe85" d="M81.2559,73.4316H77.6671v-1.333h3.5888Z"/><path class="bca78a2b-7116-4530-8552-a36bf6e4fe85" d="M89.1309,73.5479a4.1694,4.1694,0,0,1-.7588,2.6044,2.51,2.51,0,0,1-2.1123.9913,2.6155,2.6155,0,0,1-1.1142-.2256,2.2926,2.2926,0,0,1-.834-.6631v3.5889H82.6505v-10.24h1.4013l.1641.93a2.4653,2.4653,0,0,1,.8579-.793,2.4027,2.4027,0,0,1,1.1655-.2734A2.4568,2.4568,0,0,1,88.3687,70.55a4.86,4.86,0,0,1,.7622,2.854Zm-1.6543-.147a3.5969,3.5969,0,0,0-.4272-1.8535,1.39,1.39,0,0,0-1.2749-.72,1.6635,1.6635,0,0,0-.8819.2217,1.6343,1.6343,0,0,0-.581.6182v3.3379a1.5448,1.5448,0,0,0,.581.5976,1.7749,1.7749,0,0,0,.8956.208,1.4255,1.4255,0,0,0,1.268-.6245,2.8914,2.8914,0,0,0,.42-1.6421Z"/><path class="bca78a2b-7116-4530-8552-a36bf6e4fe85" d="M90.2725,73.2334a4.0295,4.0295,0,0,1,.9024-2.707,3.4514,3.4514,0,0,1,4.9765,0,3.9935,3.9935,0,0,1,.9092,2.707v.1436a4.0147,4.0147,0,0,1-.9092,2.7207,3.4748,3.4748,0,0,1-4.9765-.0069,4.0223,4.0223,0,0,1-.9024-2.7138Zm1.6612.14a3.2942,3.2942,0,0,0,.4238,1.7613,1.5993,1.5993,0,0,0,2.6113,0,3.2157,3.2157,0,0,0,.4375-1.7613V73.23a3.1736,3.1736,0,0,0-.4375-1.7407,1.5809,1.5809,0,0,0-2.6113,0,3.273,3.273,0,0,0-.4238,1.7407Z"/><path class="bca78a2b-7116-4530-8552-a36bf6e4fe85" d="M102.1944,71.1006l-.7109-.0274a1.489,1.489,0,0,0-.81.2051,1.3532,1.3532,0,0,0-.5024.5811V77H98.51V69.6035h1.5176l.1094,1.0733a2.372,2.372,0,0,1,.7212-.8887,1.6773,1.6773,0,0,1,1.0151-.3213,1.5348,1.5348,0,0,1,.28.0239,2.0515,2.0515,0,0,1,.2392.0581Z"/><path class="bca78a2b-7116-4530-8552-a36bf6e4fe85" d="M105.5645,67.8057v1.7978h1.3262V70.834h-1.3262v4.0879a.89.89,0,0,0,.1983.6528.7185.7185,0,0,0,.5263.1948,1.4527,1.4527,0,0,0,.2666-.0239,1.65,1.65,0,0,0,.2461-.0649l.1778,1.2168a1.9057,1.9057,0,0,1-.5059.1811,2.7992,2.7992,0,0,1-.6084.065,1.9037,1.9037,0,0,1-1.4355-.5367,2.3508,2.3508,0,0,1-.52-1.685V70.834h-1.1279V69.6035H103.91V67.8057Z"/><path class="bca78a2b-7116-4530-8552-a36bf6e4fe85" d="M112.8174,77q-.0885-.28-.1469-.5469a3.9172,3.9172,0,0,1-.0786-.5332,2.94,2.94,0,0,1-.899.8716,2.2849,2.2849,0,0,1-1.2475.3521,2.4592,2.4592,0,0,1-1.7739-.5948,2.1588,2.1588,0,0,1-.6187-1.6338,1.93,1.93,0,0,1,.8477-1.6713,4.0906,4.0906,0,0,1,2.3857-.5982h1.292v-.6494a1.2007,1.2007,0,0,0-.3418-.9092,1.3562,1.3562,0,0,0-.9775-.3281,1.3851,1.3851,0,0,0-.9024.2734.8682.8682,0,0,0-.3349.7041h-1.6l-.0068-.041a1.8322,1.8322,0,0,1,.7827-1.5517,3.3165,3.3165,0,0,1,2.1636-.6768,3.165,3.165,0,0,1,2.085.6562,2.3094,2.3094,0,0,1,.7929,1.8868v3.2881a6.0684,6.0684,0,0,0,.0615.8784,4.6622,4.6622,0,0,0,.1983.8237ZM110.78,75.8105a2.0892,2.0892,0,0,0,1.1314-.3144,1.5822,1.5822,0,0,0,.6665-.7178V73.6846h-1.3193a1.6655,1.6655,0,0,0-1.1348.3589,1.09,1.09,0,0,0-.41.8442.8612.8612,0,0,0,.2769.6733A1.1388,1.1388,0,0,0,110.78,75.8105Z"/><path class="bca78a2b-7116-4530-8552-a36bf6e4fe85" d="M122.4766,73.5479a4.1823,4.1823,0,0,1-.7553,2.6079,2.5244,2.5244,0,0,1-2.1294.9878,2.4475,2.4475,0,0,1-1.2-.28,2.3453,2.3453,0,0,1-.8511-.82L117.377,77h-1.3945V66.3359h1.6611v4.1084a2.3873,2.3873,0,0,1,.82-.7246,2.3529,2.3529,0,0,1,1.1143-.2529,2.46,2.46,0,0,1,2.1431,1.08,4.892,4.892,0,0,1,.7553,2.8574Zm-1.6611-.1436a3.8212,3.8212,0,0,0-.3965-1.8662,1.3365,1.3365,0,0,0-1.2578-.711,1.6466,1.6466,0,0,0-.9263.2461,1.722,1.722,0,0,0-.5913.6836V74.86a1.6281,1.6281,0,0,0,.5879.687,1.7078,1.7078,0,0,0,.9434.2426,1.3771,1.3771,0,0,0,1.2509-.6049,2.9963,2.9963,0,0,0,.39-1.6372Z"/><path class="bca78a2b-7116-4530-8552-a36bf6e4fe85" d="M125.6827,77h-1.6611V66.3359h1.6611Z"/><path class="bca78a2b-7116-4530-8552-a36bf6e4fe85" d="M130.7139,77.1436a3.2149,3.2149,0,0,1-2.5053-1.0289,3.7813,3.7813,0,0,1-.9331-2.642v-.2735a3.9257,3.9257,0,0,1,.9262-2.6763,2.9314,2.9314,0,0,1,2.3208-1.0561,2.8906,2.8906,0,0,1,2.2935.9058,3.55,3.55,0,0,1,.7964,2.43V73.78h-4.6143l-.0137.0342a2.3161,2.3161,0,0,0,.5162,1.4375,1.6344,1.6344,0,0,0,1.3159.5585,3.5549,3.5549,0,0,0,1.1484-.164,3.7681,3.7681,0,0,0,.9229-.4717l.5332,1.0894a3.4407,3.4407,0,0,1-1.1075.625A4.6208,4.6208,0,0,1,130.7139,77.1436ZM130.5225,70.8a1.2465,1.2465,0,0,0-1.0117.4888,2.4081,2.4081,0,0,0-.4922,1.2407l.0137.0342h2.9326v-.1709a1.7707,1.7707,0,0,0-.3589-1.1485A1.31,1.31,0,0,0,130.5225,70.8Z"/><path class="bca78a2b-7116-4530-8552-a36bf6e4fe85" d="M136.5587,76.7881l-1.06,2.1328h-1.0527l.4785-2.1943V75.373h1.6338Z"/><path class="bca78a2b-7116-4530-8552-a36bf6e4fe85" d="M148.0772,73.5479a4.1694,4.1694,0,0,1-.7588,2.6044,2.51,2.51,0,0,1-2.1123.9913,2.6155,2.6155,0,0,1-1.1142-.2256,2.2926,2.2926,0,0,1-.834-.6631v3.5889h-1.6612v-10.24h1.4014l.1641.93a2.4653,2.4653,0,0,1,.8579-.793,2.4024,2.4024,0,0,1,1.1655-.2734A2.4568,2.4568,0,0,1,147.315,70.55a4.86,4.86,0,0,1,.7622,2.854Zm-1.6543-.147a3.5979,3.5979,0,0,0-.4272-1.8535,1.39,1.39,0,0,0-1.2749-.72,1.6635,1.6635,0,0,0-.8819.2217,1.6343,1.6343,0,0,0-.581.6182v3.3379a1.5448,1.5448,0,0,0,.581.5976,1.7748,1.7748,0,0,0,.8955.208,1.4256,1.4256,0,0,0,1.2681-.6245,2.8914,2.8914,0,0,0,.42-1.6421Z"/><path class="bca78a2b-7116-4530-8552-a36bf6e4fe85" d="M153.211,71.1006l-.7109-.0274a1.489,1.489,0,0,0-.81.2051,1.3532,1.3532,0,0,0-.5024.5811V77h-1.6612V69.6035h1.5176l.1094,1.0733a2.372,2.372,0,0,1,.7212-.8887,1.6773,1.6773,0,0,1,1.0151-.3213,1.5348,1.5348,0,0,1,.28.0239,2.0515,2.0515,0,0,1,.2392.0581Z"/><path class="bca78a2b-7116-4530-8552-a36bf6e4fe85" d="M154.0655,73.2334a4.03,4.03,0,0,1,.9023-2.707,3.4515,3.4515,0,0,1,4.9766,0,3.9935,3.9935,0,0,1,.9092,2.707v.1436a4.0147,4.0147,0,0,1-.9092,2.7207,3.4749,3.4749,0,0,1-4.9766-.0069,4.0228,4.0228,0,0,1-.9023-2.7138Zm1.6611.14a3.2933,3.2933,0,0,0,.4239,1.7613,1.5993,1.5993,0,0,0,2.6113,0,3.2157,3.2157,0,0,0,.4375-1.7613V73.23a3.1736,3.1736,0,0,0-.4375-1.7407,1.5809,1.5809,0,0,0-2.6113,0,3.2721,3.2721,0,0,0-.4239,1.7407Z"/><path class="bca78a2b-7116-4530-8552-a36bf6e4fe85" d="M168.7833,73.5479a4.17,4.17,0,0,1-.7588,2.6044,2.51,2.51,0,0,1-2.1123.9913,2.6157,2.6157,0,0,1-1.1143-.2256,2.2943,2.2943,0,0,1-.834-.6631v3.5889h-1.6611v-10.24h1.4014l.164.93a2.4662,2.4662,0,0,1,.8579-.793,2.4031,2.4031,0,0,1,1.1656-.2734,2.4568,2.4568,0,0,1,2.1294,1.0835,4.86,4.86,0,0,1,.7622,2.854Zm-1.6543-.147a3.5969,3.5969,0,0,0-.4273-1.8535,1.39,1.39,0,0,0-1.2749-.72,1.6631,1.6631,0,0,0-.8818.2217,1.6345,1.6345,0,0,0-.5811.6182v3.3379a1.545,1.545,0,0,0,.5811.5976,1.7745,1.7745,0,0,0,.8955.208,1.4257,1.4257,0,0,0,1.2681-.6245,2.8922,2.8922,0,0,0,.42-1.6421Z"/><path class="bca78a2b-7116-4530-8552-a36bf6e4fe85" d="M173.9171,71.1006l-.711-.0274a1.4889,1.4889,0,0,0-.81.2051,1.3541,1.3541,0,0,0-.5025.5811V77h-1.6611V69.6035H171.75l.1093,1.0733a2.3739,2.3739,0,0,1,.7212-.8887,1.6778,1.6778,0,0,1,1.0152-.3213,1.5337,1.5337,0,0,1,.28.0239,2.0534,2.0534,0,0,1,.2393.0581Z"/><path class="bca78a2b-7116-4530-8552-a36bf6e4fe85" d="M176.85,67.792h-1.6612V66.3359H176.85Zm0,9.208h-1.6612V69.6035H176.85Z"/><path class="bca78a2b-7116-4530-8552-a36bf6e4fe85" d="M181.8809,77.1436a3.2149,3.2149,0,0,1-2.5053-1.0289,3.7814,3.7814,0,0,1-.9332-2.642v-.2735a3.9253,3.9253,0,0,1,.9263-2.6763,2.9314,2.9314,0,0,1,2.3208-1.0561,2.8906,2.8906,0,0,1,2.2935.9058,3.55,3.55,0,0,1,.7964,2.43V73.78h-4.6143l-.0137.0342a2.3166,2.3166,0,0,0,.5161,1.4375,1.6348,1.6348,0,0,0,1.316.5585,3.5549,3.5549,0,0,0,1.1484-.164,3.77,3.77,0,0,0,.9229-.4717l.5332,1.0894a3.4407,3.4407,0,0,1-1.1075.625A4.6208,4.6208,0,0,1,181.8809,77.1436ZM181.69,70.8a1.2465,1.2465,0,0,0-1.0117.4888,2.4081,2.4081,0,0,0-.4922,1.2407l.0137.0342h2.9326v-.1709a1.7707,1.7707,0,0,0-.3589-1.1485A1.31,1.31,0,0,0,181.69,70.8Z"/><path class="bca78a2b-7116-4530-8552-a36bf6e4fe85" d="M188.1837,67.8057v1.7978H189.51V70.834h-1.3261v4.0879a.8909.8909,0,0,0,.1982.6528.7186.7186,0,0,0,.5264.1948,1.4535,1.4535,0,0,0,.2666-.0239,1.6568,1.6568,0,0,0,.2461-.0649l.1777,1.2168a1.9044,1.9044,0,0,1-.5059.1811,2.7992,2.7992,0,0,1-.6084.065,1.9039,1.9039,0,0,1-1.4355-.5367,2.3508,2.3508,0,0,1-.5195-1.685V70.834h-1.128V69.6035h1.128V67.8057Z"/><path class="bca78a2b-7116-4530-8552-a36bf6e4fe85" d="M195.4366,77q-.0887-.28-.147-.5469a3.9328,3.9328,0,0,1-.0786-.5332,2.9384,2.9384,0,0,1-.8989.8716,2.2853,2.2853,0,0,1-1.2476.3521,2.4592,2.4592,0,0,1-1.7739-.5948,2.1588,2.1588,0,0,1-.6187-1.6338,1.9306,1.9306,0,0,1,.8477-1.6713,4.0906,4.0906,0,0,1,2.3857-.5982h1.292v-.6494a1.2,1.2,0,0,0-.3418-.9092,1.3562,1.3562,0,0,0-.9775-.3281,1.3848,1.3848,0,0,0-.9023.2734.868.868,0,0,0-.335.7041h-1.6l-.0069-.041a1.832,1.832,0,0,1,.7828-1.5517,3.3164,3.3164,0,0,1,2.1635-.6768,3.1647,3.1647,0,0,1,2.085.6562,2.31,2.31,0,0,1,.793,1.8868v3.2881a6.0684,6.0684,0,0,0,.0615.8784,4.6532,4.6532,0,0,0,.1982.8237ZM193.4,75.8105a2.0888,2.0888,0,0,0,1.1313-.3144,1.5811,1.5811,0,0,0,.6665-.7178V73.6846H193.878a1.6658,1.6658,0,0,0-1.1348.3589,1.09,1.09,0,0,0-.41.8442.8615.8615,0,0,0,.2768.6733A1.1391,1.1391,0,0,0,193.4,75.8105Z"/><path class="bca78a2b-7116-4530-8552-a36bf6e4fe85" d="M202.2862,71.1006l-.7109-.0274a1.489,1.489,0,0,0-.81.2051,1.3532,1.3532,0,0,0-.5024.5811V77h-1.6612V69.6035h1.5176l.1094,1.0733a2.372,2.372,0,0,1,.7212-.8887,1.6773,1.6773,0,0,1,1.0151-.3213,1.5348,1.5348,0,0,1,.28.0239,2.0515,2.0515,0,0,1,.2392.0581Z"/><path class="bca78a2b-7116-4530-8552-a36bf6e4fe85" d="M206.0528,74.0332l.1641.7383h.041l1.62-5.168h1.8184l-3.0625,8.5176a3.7947,3.7947,0,0,1-.8272,1.3193,2.0125,2.0125,0,0,1-1.5107.5469,2.5869,2.5869,0,0,1-.441-.041q-.2358-.0411-.4545-.0957l.1845-1.2852c.0591.0044.1436.0113.253.02s.1914.0137.2461.0137a.9118.9118,0,0,0,.7211-.3076,2.605,2.605,0,0,0,.441-.7109l.2734-.67-2.6865-7.3076h1.8115Z"/><path class="bca78a2b-7116-4530-8552-a36bf6e4fe85" d="M218.337,74.99a.7719.7719,0,0,0-.3281-.6357,3.2709,3.2709,0,0,0-1.2237-.4443,5.08,5.08,0,0,1-2.0063-.7964,1.6693,1.6693,0,0,1-.68-1.4048,2,2,0,0,1,.7861-1.586,3.1256,3.1256,0,0,1,2.0713-.6562,3.2437,3.2437,0,0,1,2.15.6665,1.9733,1.9733,0,0,1,.7622,1.6509l-.0136.041h-1.5928a1.0421,1.0421,0,0,0-.3486-.7861,1.34,1.34,0,0,0-.9571-.3282,1.3683,1.3683,0,0,0-.916.27.8384.8384,0,0,0-.3144.66.74.74,0,0,0,.2973.6187,3.1942,3.1942,0,0,0,1.2066.4067,5.0812,5.0812,0,0,1,2.0678.81,1.7078,1.7078,0,0,1,.6734,1.4253,1.9377,1.9377,0,0,1-.8238,1.62,3.5112,3.5112,0,0,1-2.17.6221,3.3129,3.3129,0,0,1-2.2763-.7383,2.0845,2.0845,0,0,1-.793-1.6953l.0137-.0411h1.5449a1.1081,1.1081,0,0,0,.4648.9366,1.8688,1.8688,0,0,0,1.0664.2939,1.703,1.703,0,0,0,.9912-.2461A.7714.7714,0,0,0,218.337,74.99Z"/><path class="bca78a2b-7116-4530-8552-a36bf6e4fe85" d="M223.5255,67.8057v1.7978h1.3261V70.834h-1.3261v4.0879a.8909.8909,0,0,0,.1982.6528.7186.7186,0,0,0,.5264.1948,1.4535,1.4535,0,0,0,.2666-.0239,1.6568,1.6568,0,0,0,.2461-.0649l.1777,1.2168a1.9044,1.9044,0,0,1-.5059.1811,2.7992,2.7992,0,0,1-.6084.065,1.9039,1.9039,0,0,1-1.4355-.5367,2.3508,2.3508,0,0,1-.52-1.685V70.834h-1.128V69.6035h1.128V67.8057Z"/><path class="bca78a2b-7116-4530-8552-a36bf6e4fe85" d="M230.7784,77q-.0887-.28-.147-.5469a3.9328,3.9328,0,0,1-.0786-.5332,2.9384,2.9384,0,0,1-.8989.8716,2.2853,2.2853,0,0,1-1.2476.3521,2.4592,2.4592,0,0,1-1.7739-.5948,2.1588,2.1588,0,0,1-.6187-1.6338,1.9306,1.9306,0,0,1,.8477-1.6713,4.0906,4.0906,0,0,1,2.3857-.5982h1.292v-.6494a1.2,1.2,0,0,0-.3418-.9092,1.3562,1.3562,0,0,0-.9775-.3281,1.3853,1.3853,0,0,0-.9024.2734.8682.8682,0,0,0-.3349.7041h-1.6l-.0069-.041a1.832,1.832,0,0,1,.7828-1.5517,3.3164,3.3164,0,0,1,2.1635-.6768,3.1647,3.1647,0,0,1,2.085.6562A2.31,2.31,0,0,1,232.2,72.01v3.2881a6.0684,6.0684,0,0,0,.0615.8784A4.6532,4.6532,0,0,0,232.46,77Zm-2.0371-1.1895a2.0888,2.0888,0,0,0,1.1313-.3144,1.5811,1.5811,0,0,0,.6665-.7178V73.6846H229.22a1.6658,1.6658,0,0,0-1.1348.3589,1.09,1.09,0,0,0-.41.8442.8615.8615,0,0,0,.2768.6733A1.1391,1.1391,0,0,0,228.7413,75.8105Z"/><path class="bca78a2b-7116-4530-8552-a36bf6e4fe85" d="M236.9991,75.8105a1.52,1.52,0,0,0,1.0254-.3569,1.1289,1.1289,0,0,0,.417-.894h1.5039l.0137.041a2.1845,2.1845,0,0,1-.8443,1.791,3.1433,3.1433,0,0,1-2.1157.752,3.068,3.068,0,0,1-2.5054-1.0528,4.04,4.04,0,0,1-.8716-2.666v-.2393a4.0447,4.0447,0,0,1,.8716-2.6626,3.4561,3.4561,0,0,1,4.669-.28,2.4979,2.4979,0,0,1,.8032,1.9721l-.0137.0411h-1.5107a1.4487,1.4487,0,0,0-.4-1.0323,1.3675,1.3675,0,0,0-1.0425-.4238,1.4032,1.4032,0,0,0-1.3262.6792,3.3838,3.3838,0,0,0-.39,1.7031v.2393a3.39,3.39,0,0,0,.39,1.7168A1.4067,1.4067,0,0,0,236.9991,75.8105Z"/><path class="bca78a2b-7116-4530-8552-a36bf6e4fe85" d="M243.6983,73.7666h-.7451V77h-1.6543V66.3359h1.6543v6.0977h.69l1.8662-2.83h1.9551l-2.44,3.3633L247.8272,77H245.9Z"/><path class="bca78a2b-7116-4530-8552-a36bf6e4fe85" d="M252.7764,74.99a.7717.7717,0,0,0-.3281-.6357,3.27,3.27,0,0,0-1.2236-.4443,5.0809,5.0809,0,0,1-2.0064-.7964,1.6692,1.6692,0,0,1-.68-1.4048,2,2,0,0,1,.7861-1.586,3.1252,3.1252,0,0,1,2.0713-.6562,3.244,3.244,0,0,1,2.15.6665,1.9738,1.9738,0,0,1,.7622,1.6509l-.0137.041h-1.5928a1.0421,1.0421,0,0,0-.3486-.7861,1.34,1.34,0,0,0-.957-.3282,1.3681,1.3681,0,0,0-.916.27.8385.8385,0,0,0-.3145.66.74.74,0,0,0,.2974.6187,3.1935,3.1935,0,0,0,1.2065.4067,5.0811,5.0811,0,0,1,2.0679.81,1.708,1.708,0,0,1,.6733,1.4253,1.9379,1.9379,0,0,1-.8237,1.62,3.5114,3.5114,0,0,1-2.17.6221,3.3133,3.3133,0,0,1-2.2764-.7383,2.0851,2.0851,0,0,1-.793-1.6953l.0137-.0411h1.5449a1.1082,1.1082,0,0,0,.4649.9366,1.8688,1.8688,0,0,0,1.0664.2939,1.7032,1.7032,0,0,0,.9912-.2461A.7716.7716,0,0,0,252.7764,74.99Z"/><path class="aed01946-a9d9-4949-8ef4-2582c9f48f3b" d="M450.19,50.2529a5.3688,5.3688,0,0,1-1.49,3.8936,5.1492,5.1492,0,0,1-3.8716,1.5381,5.0843,5.0843,0,0,1-3.8408-1.5381,5.3951,5.3951,0,0,1-1.4766-3.8936V47.95a5.4078,5.4078,0,0,1,1.4722-3.8892,5.0626,5.0626,0,0,1,3.8364-1.5424,5.156,5.156,0,0,1,3.876,1.5424A5.3637,5.3637,0,0,1,450.19,47.95ZM447.6236,47.94a3.8831,3.8831,0,0,0-.7471-2.4571,2.462,2.462,0,0,0-2.0566-.96,2.3946,2.3946,0,0,0-2.03.9555,3.9765,3.9765,0,0,0-.7207,2.4615v2.3242a3.9914,3.9914,0,0,0,.73,2.4834,2.4052,2.4052,0,0,0,2.03.96,2.4471,2.4471,0,0,0,2.0566-.96,3.9577,3.9577,0,0,0,.7383-2.4834Z"/><path class="aed01946-a9d9-4949-8ef4-2582c9f48f3b" d="M460.5611,51.0088a5.462,5.462,0,0,1-.9756,3.3926,3.2275,3.2275,0,0,1-2.7246,1.2832,3.0449,3.0449,0,0,1-1.3271-.2769,2.726,2.726,0,0,1-.9932-.813v4.5616H451.983V45.99h2.3115l.1494,1.125a3.0472,3.0472,0,0,1,1.0152-.9624,2.7455,2.7455,0,0,1,1.3842-.3383,3.1648,3.1648,0,0,1,2.7422,1.38,6.1589,6.1589,0,0,1,.9756,3.63Zm-2.5664-.1978a4.611,4.611,0,0,0-.4482-2.1826,1.462,1.462,0,0,0-1.3711-.8364,1.9329,1.9329,0,0,0-.9888.2378,1.6927,1.6927,0,0,0-.646.6777v4.1719a1.5722,1.5722,0,0,0,.646.6162,2.17,2.17,0,0,0,1.0063.2114,1.4761,1.4761,0,0,0,1.3667-.73,3.8622,3.8622,0,0,0,.4351-1.98Z"/><path class="aed01946-a9d9-4949-8ef4-2582c9f48f3b" d="M466.3531,55.6846a4.2817,4.2817,0,0,1-3.2871-1.3184,4.714,4.714,0,0,1-1.23-3.3486V50.666A5.2017,5.2017,0,0,1,463,47.1768a4.3419,4.3419,0,0,1,6.1128-.2022,4.4646,4.4646,0,0,1,1.0634,3.1377V51.51h-5.6777l-.0176.0522a2.4673,2.4673,0,0,0,.6284,1.541,1.9625,1.9625,0,0,0,1.5162.604,4.9359,4.9359,0,0,0,1.415-.1714,6.502,6.502,0,0,0,1.2305-.5405l.6943,1.586a4.7365,4.7365,0,0,1-1.52.79A6.5875,6.5875,0,0,1,466.3531,55.6846Zm-.2285-7.8926a1.3361,1.3361,0,0,0-1.125.5449,2.8375,2.8375,0,0,0-.51,1.4326l.0264.044h3.1465V49.585A2.0585,2.0585,0,0,0,467.28,48.28,1.3778,1.3778,0,0,0,466.1246,47.792Z"/><path class="aed01946-a9d9-4949-8ef4-2582c9f48f3b" d="M474.0172,45.99l.1142,1.3623a3.478,3.478,0,0,1,1.169-1.1337,3.0333,3.0333,0,0,1,1.5556-.4043,2.861,2.861,0,0,1,2.25.9052,4.18,4.18,0,0,1,.8086,2.8389V55.5h-2.5752V49.5537a1.93,1.93,0,0,0-.3867-1.3608,1.5551,1.5551,0,0,0-1.1689-.4009,1.9741,1.9741,0,0,0-.9141.207,1.8836,1.8836,0,0,0-.6768.586V55.5h-2.5664V45.99Z"/><path class="aed01946-a9d9-4949-8ef4-2582c9f48f3b" d="M494.39,49.875h-5.3v3.6475h6.1963V55.5H486.524V42.7031h8.7451v1.9776H489.09v3.2168h5.3Z"/><path class="aed01946-a9d9-4949-8ef4-2582c9f48f3b" d="M500.525,53.707a1.5173,1.5173,0,0,0,1.0986-.3974,1.405,1.405,0,0,0,.4131-1.0616h2.3291l.0264.0528a2.9623,2.9623,0,0,1-1.0855,2.4126,4.577,4.577,0,0,1-6.06-.3736,5.1238,5.1238,0,0,1-1.1513-3.4541v-.2636a5.157,5.157,0,0,1,1.147-3.4541,4.0535,4.0535,0,0,1,3.2739-1.3535,3.9939,3.9939,0,0,1,2.8345,1.0019,3.3286,3.3286,0,0,1,1.0415,2.6367l-.0176.0528h-2.3379a1.8571,1.8571,0,0,0-.4043-1.2261,1.371,1.371,0,0,0-1.1162-.4878,1.489,1.489,0,0,0-1.437.79,4.3425,4.3425,0,0,0-.4175,2.0357v.2636a4.33,4.33,0,0,0,.4175,2.0494A1.5024,1.5024,0,0,0,500.525,53.707Z"/><path class="aed01946-a9d9-4949-8ef4-2582c9f48f3b" d="M505.4556,50.6572a5.1028,5.1028,0,0,1,1.1866-3.4848,4.1357,4.1357,0,0,1,3.2871-1.3579,4.18,4.18,0,0,1,3.3047,1.3535,5.0763,5.0763,0,0,1,1.1953,3.4892v.1846a5.0836,5.0836,0,0,1-1.191,3.4936,4.7,4.7,0,0,1-6.5917,0,5.0836,5.0836,0,0,1-1.191-3.4936Zm2.5576.18a4.128,4.128,0,0,0,.4571,2.0845,1.7577,1.7577,0,0,0,2.9311-.0044,4.1,4.1,0,0,0,.4615-2.08v-.1846a4.0548,4.0548,0,0,0-.4659-2.062,1.576,1.576,0,0,0-1.4677-.7988,1.5569,1.5569,0,0,0-1.4546.8032,4.0924,4.0924,0,0,0-.4615,2.0576Z"/><path class="aed01946-a9d9-4949-8ef4-2582c9f48f3b" d="M521.1529,52.8809a.8963.8963,0,0,0-.4087-.7295,4.1643,4.1643,0,0,0-1.5161-.545,6.1037,6.1037,0,0,1-2.5444-1.0151,2.204,2.204,0,0,1-.857-1.8325,2.62,2.62,0,0,1,1.0327-2.0874,4.1924,4.1924,0,0,1,2.7642-.8569,4.5373,4.5373,0,0,1,2.896.8525,2.5178,2.5178,0,0,1,1.0327,2.1533l-.0176.0527h-2.4785a1.2527,1.2527,0,0,0-.3647-.9316,1.75,1.75,0,0,0-2.0479-.0571.9572.9572,0,0,0-.3559.76.8649.8649,0,0,0,.3735.7207,4.0841,4.0841,0,0,0,1.5161.501,6.1431,6.1431,0,0,1,2.61,1.0327,2.27,2.27,0,0,1,.8525,1.8765,2.4988,2.4988,0,0,1-1.0986,2.0962,4.7606,4.7606,0,0,1-2.9.813,4.4084,4.4084,0,0,1-3.0015-.9624,2.691,2.691,0,0,1-1.05-2.1929l.0176-.0527h2.3467a1.3336,1.3336,0,0,0,.501,1.1074,2.0681,2.0681,0,0,0,1.2392.3428,1.7833,1.7833,0,0,0,1.0855-.2813A.9063.9063,0,0,0,521.1529,52.8809Z"/><path class="aed01946-a9d9-4949-8ef4-2582c9f48f3b" d="M528.72,51.51l.1054.5273h.0528l1.8193-6.0469h2.76l-3.8584,10.9336a5.0343,5.0343,0,0,1-1.0986,1.7183,2.8184,2.8184,0,0,1-2.0831.6987,3.2254,3.2254,0,0,1-.602-.0527q-.2769-.0528-.6724-.1494l.2989-1.8721q.1141.0176.2461.0352a1.8126,1.8126,0,0,0,.2373.0175,1.3988,1.3988,0,0,0,.9755-.312,2.0587,2.0587,0,0,0,.5274-.7778l.2988-.7383-3.375-9.501h2.76Z"/><path class="aed01946-a9d9-4949-8ef4-2582c9f48f3b" d="M539.6275,52.8809a.8963.8963,0,0,0-.4087-.7295,4.1635,4.1635,0,0,0-1.5161-.545,6.1042,6.1042,0,0,1-2.5444-1.0151,2.204,2.204,0,0,1-.857-1.8325,2.62,2.62,0,0,1,1.0328-2.0874,4.1919,4.1919,0,0,1,2.7641-.8569,4.5373,4.5373,0,0,1,2.896.8525,2.5178,2.5178,0,0,1,1.0327,2.1533l-.0176.0527h-2.4785a1.2527,1.2527,0,0,0-.3647-.9316,1.75,1.75,0,0,0-2.0479-.0571.9572.9572,0,0,0-.3559.76.8649.8649,0,0,0,.3735.7207,4.0841,4.0841,0,0,0,1.5161.501,6.1431,6.1431,0,0,1,2.61,1.0327,2.27,2.27,0,0,1,.8525,1.8765,2.4988,2.4988,0,0,1-1.0986,2.0962,4.76,4.76,0,0,1-2.9.813,4.4084,4.4084,0,0,1-3.0015-.9624,2.691,2.691,0,0,1-1.05-2.1929l.0176-.0527h2.3467a1.3339,1.3339,0,0,0,.501,1.1074,2.0683,2.0683,0,0,0,1.2392.3428,1.7833,1.7833,0,0,0,1.0855-.2813A.9063.9063,0,0,0,539.6275,52.8809Z"/><path class="aed01946-a9d9-4949-8ef4-2582c9f48f3b" d="M546.817,43.6611V45.99h1.6V47.792h-1.6v4.8428a1.1191,1.1191,0,0,0,.2285.791.8142.8142,0,0,0,.6152.2373,2.35,2.35,0,0,0,.3472-.022,3.0227,3.0227,0,0,0,.3384-.0747l.22,1.8545a5.1559,5.1559,0,0,1-.7559.1978,4.5594,4.5594,0,0,1-.8.0659,2.7353,2.7353,0,0,1-2.0434-.73,3.1984,3.1984,0,0,1-.7163-2.3115V47.792h-1.3887V45.99h1.3887V43.6611Z"/><path class="aed01946-a9d9-4949-8ef4-2582c9f48f3b" d="M554.2613,55.6846a4.2817,4.2817,0,0,1-3.2871-1.3184,4.714,4.714,0,0,1-1.2305-3.3486V50.666a5.2017,5.2017,0,0,1,1.1646-3.4892,4.3419,4.3419,0,0,1,6.1128-.2022,4.4646,4.4646,0,0,1,1.0634,3.1377V51.51h-5.6777l-.0176.0522a2.4673,2.4673,0,0,0,.6284,1.541,1.9625,1.9625,0,0,0,1.5162.604,4.9359,4.9359,0,0,0,1.415-.1714,6.4993,6.4993,0,0,0,1.2305-.5405l.6943,1.586a4.7365,4.7365,0,0,1-1.52.79A6.5875,6.5875,0,0,1,554.2613,55.6846Zm-.2285-7.8926a1.3361,1.3361,0,0,0-1.125.5449,2.8375,2.8375,0,0,0-.51,1.4326l.0264.044h3.1465V49.585a2.0585,2.0585,0,0,0-.3824-1.3052A1.3778,1.3778,0,0,0,554.0328,47.792Z"/><path class="aed01946-a9d9-4949-8ef4-2582c9f48f3b" d="M561.9605,45.99l.1055,1.2569a3.1939,3.1939,0,0,1,1.147-1.0591,3.2984,3.2984,0,0,1,1.5952-.3735,2.9044,2.9044,0,0,1,1.5644.4043,2.4941,2.4941,0,0,1,.9844,1.2216A3.2964,3.2964,0,0,1,568.5,46.2451a3.1,3.1,0,0,1,1.6523-.4306,2.741,2.741,0,0,1,2.2193.9711,4.5339,4.5339,0,0,1,.8129,2.9576V55.5h-2.5664V49.7212a2.4143,2.4143,0,0,0-.3515-1.5064,1.2828,1.2828,0,0,0-1.0459-.4228,1.7873,1.7873,0,0,0-.9448.2422,1.7656,1.7656,0,0,0-.6373.6738c0,.1118.003.207.0088.2866s.0088.16.0088.2422V55.5h-2.5576V49.7212a2.4215,2.4215,0,0,0-.3516-1.4932,1.2744,1.2744,0,0,0-1.0546-.436,1.9911,1.9911,0,0,0-.91.1982,1.75,1.75,0,0,0-.646.56V55.5h-2.5576V45.99Z"/><path class="bca78a2b-7116-4530-8552-a36bf6e4fe85" d="M445.1832,74.4355a1.2732,1.2732,0,0,0-.4615-1.0136,4.3377,4.3377,0,0,0-1.63-.708,6.8922,6.8922,0,0,1-2.5669-1.1587,2.3077,2.3077,0,0,1-.8989-1.89,2.4135,2.4135,0,0,1,.9946-1.9824,4.0391,4.0391,0,0,1,2.5669-.7793,3.8155,3.8155,0,0,1,2.6352.8853,2.6413,2.6413,0,0,1,.9605,2.1225l-.0137.041h-1.5928a1.6037,1.6037,0,0,0-.52-1.2407,2.12,2.12,0,0,0-1.4834-.4751,2.1729,2.1729,0,0,0-1.3979.3955,1.2572,1.2572,0,0,0-.4888,1.023,1.1184,1.1184,0,0,0,.53.9414,5.8555,5.8555,0,0,0,1.7534.71,5.8414,5.8414,0,0,1,2.44,1.1894,2.4994,2.4994,0,0,1,.834,1.9346,2.3344,2.3344,0,0,1-.9946,1.979,4.2964,4.2964,0,0,1-2.6148.7349,4.6178,4.6178,0,0,1-2.7343-.8306,2.5487,2.5487,0,0,1-1.1416-2.2661l.0136-.041h1.6a1.5545,1.5545,0,0,0,.6289,1.3569,2.7562,2.7562,0,0,0,1.6338.4477,2.4129,2.4129,0,0,0,1.4356-.371A1.1748,1.1748,0,0,0,445.1832,74.4355Z"/><path class="bca78a2b-7116-4530-8552-a36bf6e4fe85" d="M450.4468,67.8057v1.7978h1.3262V70.834h-1.3262v4.0879a.8909.8909,0,0,0,.1983.6528.7186.7186,0,0,0,.5264.1948,1.4535,1.4535,0,0,0,.2666-.0239,1.6523,1.6523,0,0,0,.246-.0649l.1778,1.2168a1.9044,1.9044,0,0,1-.5059.1811,2.7992,2.7992,0,0,1-.6084.065,1.9039,1.9039,0,0,1-1.4355-.5367,2.3508,2.3508,0,0,1-.52-1.685V70.834h-1.1279V69.6035h1.1279V67.8057Z"/><path class="bca78a2b-7116-4530-8552-a36bf6e4fe85" d="M457.7,77q-.0887-.28-.147-.5469a3.9328,3.9328,0,0,1-.0786-.5332,2.94,2.94,0,0,1-.8989.8716,2.2853,2.2853,0,0,1-1.2476.3521,2.4592,2.4592,0,0,1-1.7739-.5948,2.1588,2.1588,0,0,1-.6187-1.6338,1.93,1.93,0,0,1,.8477-1.6713,4.0906,4.0906,0,0,1,2.3857-.5982h1.292v-.6494a1.2007,1.2007,0,0,0-.3418-.9092,1.3562,1.3562,0,0,0-.9775-.3281,1.3853,1.3853,0,0,0-.9024.2734.8682.8682,0,0,0-.3349.7041h-1.6l-.0069-.041a1.8322,1.8322,0,0,1,.7827-1.5517,3.3167,3.3167,0,0,1,2.1636-.6768,3.1649,3.1649,0,0,1,2.085.6562,2.3094,2.3094,0,0,1,.7929,1.8868v3.2881a6.0681,6.0681,0,0,0,.0616.8784,4.6532,4.6532,0,0,0,.1982.8237Zm-2.0371-1.1895a2.0888,2.0888,0,0,0,1.1313-.3144,1.5816,1.5816,0,0,0,.6665-.7178V73.6846h-1.3193a1.6658,1.6658,0,0,0-1.1348.3589,1.09,1.09,0,0,0-.41.8442.8611.8611,0,0,0,.2768.6733A1.1391,1.1391,0,0,0,455.6627,75.8105Z"/><path class="bca78a2b-7116-4530-8552-a36bf6e4fe85" d="M462.3687,69.6035l.0957,1.0664a2.6468,2.6468,0,0,1,.9126-.8852,2.4344,2.4344,0,0,1,1.2407-.3179,2.3275,2.3275,0,0,1,1.8013.7007,3.1434,3.1434,0,0,1,.646,2.1841V77h-1.6611V72.3652a1.6627,1.6627,0,0,0-.3452-1.186,1.4094,1.4094,0,0,0-1.0494-.3521,1.7394,1.7394,0,0,0-.8681.2154,1.7934,1.7934,0,0,0-.6289.5913V77h-1.6612V69.6035Z"/><path class="bca78a2b-7116-4530-8552-a36bf6e4fe85" d="M468.4869,73.4043a4.8773,4.8773,0,0,1,.7588-2.854,2.4545,2.4545,0,0,1,2.1328-1.0835,2.336,2.336,0,0,1,1.0766.2427,2.4326,2.4326,0,0,1,.8238.6938V66.3359H474.94V77h-1.3945l-.1641-.916a2.4467,2.4467,0,0,1-.8545.79,2.4026,2.4026,0,0,1-1.1621.27,2.5171,2.5171,0,0,1-2.1191-.9913,4.1694,4.1694,0,0,1-.7588-2.6044Zm1.6611.1436a2.9774,2.9774,0,0,0,.3931,1.6337,1.3759,1.3759,0,0,0,1.2475.6084,1.6678,1.6678,0,0,0,.8921-.2255,1.7189,1.7189,0,0,0,.5982-.6426V71.6953a1.749,1.749,0,0,0-.6016-.6391,1.6239,1.6239,0,0,0-.875-.2291,1.34,1.34,0,0,0-1.251.7144,3.7676,3.7676,0,0,0-.4033,1.8628Z"/><path class="bca78a2b-7116-4530-8552-a36bf6e4fe85" d="M481.1744,77q-.0887-.28-.147-.5469a3.9328,3.9328,0,0,1-.0786-.5332,2.9384,2.9384,0,0,1-.8989.8716,2.2853,2.2853,0,0,1-1.2476.3521,2.4592,2.4592,0,0,1-1.7739-.5948,2.1588,2.1588,0,0,1-.6187-1.6338,1.93,1.93,0,0,1,.8477-1.6713,4.0906,4.0906,0,0,1,2.3857-.5982h1.292v-.6494a1.2,1.2,0,0,0-.3418-.9092,1.3562,1.3562,0,0,0-.9775-.3281,1.3853,1.3853,0,0,0-.9024.2734.8682.8682,0,0,0-.3349.7041h-1.6l-.0069-.041a1.832,1.832,0,0,1,.7828-1.5517,3.3164,3.3164,0,0,1,2.1635-.6768,3.1647,3.1647,0,0,1,2.085.6562,2.31,2.31,0,0,1,.793,1.8868v3.2881a6.0684,6.0684,0,0,0,.0615.8784A4.6532,4.6532,0,0,0,482.856,77Zm-2.0371-1.1895a2.0888,2.0888,0,0,0,1.1313-.3144,1.5816,1.5816,0,0,0,.6665-.7178V73.6846h-1.3193a1.6658,1.6658,0,0,0-1.1348.3589,1.09,1.09,0,0,0-.41.8442.8615.8615,0,0,0,.2768.6733A1.1391,1.1391,0,0,0,479.1373,75.8105Z"/><path class="bca78a2b-7116-4530-8552-a36bf6e4fe85" d="M488.024,71.1006l-.7109-.0274a1.489,1.489,0,0,0-.81.2051,1.3532,1.3532,0,0,0-.5024.5811V77h-1.6612V69.6035h1.5176l.1094,1.0733a2.372,2.372,0,0,1,.7212-.8887,1.6773,1.6773,0,0,1,1.0151-.3213,1.5348,1.5348,0,0,1,.28.0239,2.0515,2.0515,0,0,1,.2392.0581Z"/><path class="bca78a2b-7116-4530-8552-a36bf6e4fe85" d="M488.8785,73.4043a4.8773,4.8773,0,0,1,.7588-2.854,2.4545,2.4545,0,0,1,2.1328-1.0835,2.3357,2.3357,0,0,1,1.0766.2427,2.4326,2.4326,0,0,1,.8238.6938V66.3359h1.6611V77h-1.3945l-.1641-.916a2.4467,2.4467,0,0,1-.8545.79,2.4026,2.4026,0,0,1-1.1621.27,2.5171,2.5171,0,0,1-2.1191-.9913,4.1694,4.1694,0,0,1-.7588-2.6044Zm1.6611.1436a2.9774,2.9774,0,0,0,.3931,1.6337,1.3759,1.3759,0,0,0,1.2475.6084,1.6678,1.6678,0,0,0,.8921-.2255,1.7189,1.7189,0,0,0,.5982-.6426V71.6953a1.749,1.749,0,0,0-.6016-.6391,1.6239,1.6239,0,0,0-.875-.2291,1.34,1.34,0,0,0-1.251.7144,3.7676,3.7676,0,0,0-.4033,1.8628Z"/><path class="bca78a2b-7116-4530-8552-a36bf6e4fe85" d="M501.272,74.99a.7717.7717,0,0,0-.3281-.6357A3.27,3.27,0,0,0,499.72,73.91a5.0809,5.0809,0,0,1-2.0064-.7964,1.6692,1.6692,0,0,1-.68-1.4048,2,2,0,0,1,.7861-1.586,3.1252,3.1252,0,0,1,2.0713-.6562,3.244,3.244,0,0,1,2.15.6665,1.9738,1.9738,0,0,1,.7622,1.6509l-.0137.041h-1.5928a1.0421,1.0421,0,0,0-.3486-.7861,1.34,1.34,0,0,0-.957-.3282,1.3681,1.3681,0,0,0-.916.27.8385.8385,0,0,0-.3145.66.74.74,0,0,0,.2974.6187,3.1935,3.1935,0,0,0,1.2065.4067,5.0811,5.0811,0,0,1,2.0679.81,1.708,1.708,0,0,1,.6733,1.4253,1.9379,1.9379,0,0,1-.8237,1.62,3.5114,3.5114,0,0,1-2.17.6221,3.3133,3.3133,0,0,1-2.2764-.7383,2.0847,2.0847,0,0,1-.7929-1.6953l.0136-.0411h1.5449a1.1082,1.1082,0,0,0,.4649.9366,1.8688,1.8688,0,0,0,1.0664.2939,1.7032,1.7032,0,0,0,.9912-.2461A.7716.7716,0,0,0,501.272,74.99Z"/><path class="bca78a2b-7116-4530-8552-a36bf6e4fe85" d="M507.5953,73.4316h-3.5889v-1.333h3.5889Z"/><path class="bca78a2b-7116-4530-8552-a36bf6e4fe85" d="M515.484,73.5479a4.1824,4.1824,0,0,1-.7554,2.6079,2.5243,2.5243,0,0,1-2.1294.9878,2.4475,2.4475,0,0,1-1.2-.28,2.3453,2.3453,0,0,1-.8511-.82l-.1641.957H508.99V66.3359h1.6611v4.1084a2.3876,2.3876,0,0,1,.82-.7246,2.3522,2.3522,0,0,1,1.1142-.2529,2.46,2.46,0,0,1,2.1431,1.08,4.892,4.892,0,0,1,.7554,2.8574Zm-1.6612-.1436a3.8212,3.8212,0,0,0-.3965-1.8662,1.3365,1.3365,0,0,0-1.2578-.711,1.646,1.646,0,0,0-.9262.2461,1.7214,1.7214,0,0,0-.5914.6836V74.86a1.6288,1.6288,0,0,0,.5879.687,1.7078,1.7078,0,0,0,.9434.2426,1.3774,1.3774,0,0,0,1.251-.6049,2.9972,2.9972,0,0,0,.39-1.6372Z"/><path class="bca78a2b-7116-4530-8552-a36bf6e4fe85" d="M521.37,77q-.0886-.28-.147-.5469a3.9328,3.9328,0,0,1-.0786-.5332,2.9384,2.9384,0,0,1-.8989.8716,2.2853,2.2853,0,0,1-1.2476.3521,2.4592,2.4592,0,0,1-1.7739-.5948,2.1588,2.1588,0,0,1-.6187-1.6338,1.9306,1.9306,0,0,1,.8477-1.6713,4.0908,4.0908,0,0,1,2.3857-.5982h1.292v-.6494a1.2,1.2,0,0,0-.3418-.9092,1.3562,1.3562,0,0,0-.9775-.3281,1.3848,1.3848,0,0,0-.9023.2734.868.868,0,0,0-.335.7041h-1.6l-.0068-.041a1.8319,1.8319,0,0,1,.7827-1.5517,3.3164,3.3164,0,0,1,2.1635-.6768,3.1647,3.1647,0,0,1,2.085.6562,2.31,2.31,0,0,1,.793,1.8868v3.2881a6.0684,6.0684,0,0,0,.0615.8784,4.6532,4.6532,0,0,0,.1982.8237Zm-2.0371-1.1895a2.0888,2.0888,0,0,0,1.1313-.3144,1.5811,1.5811,0,0,0,.6665-.7178V73.6846h-1.3193a1.6658,1.6658,0,0,0-1.1348.3589,1.09,1.09,0,0,0-.41.8442.8615.8615,0,0,0,.2768.6733A1.1391,1.1391,0,0,0,519.3326,75.8105Z"/><path class="bca78a2b-7116-4530-8552-a36bf6e4fe85" d="M528.691,74.99a.7719.7719,0,0,0-.3281-.6357,3.2709,3.2709,0,0,0-1.2237-.4443,5.08,5.08,0,0,1-2.0063-.7964,1.6693,1.6693,0,0,1-.68-1.4048,2,2,0,0,1,.7861-1.586,3.1256,3.1256,0,0,1,2.0713-.6562,3.2437,3.2437,0,0,1,2.15.6665,1.9733,1.9733,0,0,1,.7622,1.6509l-.0136.041h-1.5928a1.0421,1.0421,0,0,0-.3486-.7861,1.34,1.34,0,0,0-.9571-.3282,1.3683,1.3683,0,0,0-.916.27.8384.8384,0,0,0-.3144.66.74.74,0,0,0,.2973.6187,3.1942,3.1942,0,0,0,1.2066.4067,5.0812,5.0812,0,0,1,2.0678.81,1.7078,1.7078,0,0,1,.6734,1.4253,1.9377,1.9377,0,0,1-.8238,1.62,3.5112,3.5112,0,0,1-2.17.6221,3.3129,3.3129,0,0,1-2.2763-.7383,2.0848,2.0848,0,0,1-.793-1.6953l.0137-.0411H525.82a1.1081,1.1081,0,0,0,.4648.9366,1.8688,1.8688,0,0,0,1.0664.2939,1.7035,1.7035,0,0,0,.9913-.2461A.7716.7716,0,0,0,528.691,74.99Z"/><path class="bca78a2b-7116-4530-8552-a36bf6e4fe85" d="M534.9869,77.1436a3.2151,3.2151,0,0,1-2.5054-1.0289,3.7813,3.7813,0,0,1-.9331-2.642v-.2735a3.9253,3.9253,0,0,1,.9263-2.6763,2.9314,2.9314,0,0,1,2.3208-1.0561,2.89,2.89,0,0,1,2.2934.9058,3.55,3.55,0,0,1,.7964,2.43V73.78h-4.6142l-.0137.0342a2.3154,2.3154,0,0,0,.5161,1.4375,1.6347,1.6347,0,0,0,1.3159.5585,3.5556,3.5556,0,0,0,1.1485-.164,3.7693,3.7693,0,0,0,.9228-.4717l.5332,1.0894a3.44,3.44,0,0,1-1.1074.625A4.6216,4.6216,0,0,1,534.9869,77.1436ZM534.7955,70.8a1.2462,1.2462,0,0,0-1.0117.4888,2.4072,2.4072,0,0,0-.4922,1.2407l.0136.0342h2.9327v-.1709a1.7713,1.7713,0,0,0-.3589-1.1485A1.31,1.31,0,0,0,534.7955,70.8Z"/><path class="bca78a2b-7116-4530-8552-a36bf6e4fe85" d="M538.9175,73.4043a4.878,4.878,0,0,1,.7588-2.854,2.4546,2.4546,0,0,1,2.1328-1.0835,2.3364,2.3364,0,0,1,1.0767.2427,2.4322,2.4322,0,0,1,.8237.6938V66.3359h1.6612V77h-1.3946l-.164-.916a2.4467,2.4467,0,0,1-.8545.79,2.4026,2.4026,0,0,1-1.1621.27,2.5173,2.5173,0,0,1-2.1192-.9913,4.17,4.17,0,0,1-.7588-2.6044Zm1.6612.1436a2.9774,2.9774,0,0,0,.393,1.6337,1.3762,1.3762,0,0,0,1.2476.6084,1.668,1.668,0,0,0,.8921-.2255,1.7187,1.7187,0,0,0,.5981-.6426V71.6953a1.7479,1.7479,0,0,0-.6015-.6391,1.6239,1.6239,0,0,0-.875-.2291,1.34,1.34,0,0,0-1.251.7144,3.7676,3.7676,0,0,0-.4033,1.8628Z"/><path class="bca78a2b-7116-4530-8552-a36bf6e4fe85" d="M548.7613,76.7881l-1.06,2.1328H546.649l.4785-2.1943V75.373h1.6338Z"/><path class="bca78a2b-7116-4530-8552-a36bf6e4fe85" d="M560.28,73.5479a4.17,4.17,0,0,1-.7588,2.6044,2.51,2.51,0,0,1-2.1123.9913,2.6157,2.6157,0,0,1-1.1143-.2256,2.2935,2.2935,0,0,1-.834-.6631v3.5889h-1.6611v-10.24h1.4013l.1641.93a2.4662,2.4662,0,0,1,.8579-.793,2.403,2.403,0,0,1,1.1655-.2734,2.4567,2.4567,0,0,1,2.1294,1.0835,4.86,4.86,0,0,1,.7623,2.854Zm-1.6543-.147a3.5969,3.5969,0,0,0-.4273-1.8535,1.39,1.39,0,0,0-1.2749-.72,1.6631,1.6631,0,0,0-.8818.2217,1.6345,1.6345,0,0,0-.5811.6182v3.3379a1.545,1.545,0,0,0,.5811.5976,1.7745,1.7745,0,0,0,.8955.208,1.4254,1.4254,0,0,0,1.268-.6245,2.8914,2.8914,0,0,0,.42-1.6421Z"/><path class="bca78a2b-7116-4530-8552-a36bf6e4fe85" d="M561.4215,73.2334a4.0294,4.0294,0,0,1,.9023-2.707,3.4515,3.4515,0,0,1,4.9766,0,3.9939,3.9939,0,0,1,.9091,2.707v.1436a4.0151,4.0151,0,0,1-.9091,2.7207,3.4749,3.4749,0,0,1-4.9766-.0069,4.0223,4.0223,0,0,1-.9023-2.7138Zm1.6611.14a3.2942,3.2942,0,0,0,.4238,1.7613,1.5993,1.5993,0,0,0,2.6113,0,3.2157,3.2157,0,0,0,.4375-1.7613V73.23a3.1736,3.1736,0,0,0-.4375-1.7407,1.5809,1.5809,0,0,0-2.6113,0,3.273,3.273,0,0,0-.4238,1.7407Z"/><path class="bca78a2b-7116-4530-8552-a36bf6e4fe85" d="M573.3433,71.1006l-.7109-.0274a1.4893,1.4893,0,0,0-.81.2051,1.3532,1.3532,0,0,0-.5024.5811V77h-1.6611V69.6035h1.5175l.1094,1.0733a2.373,2.373,0,0,1,.7212-.8887,1.6773,1.6773,0,0,1,1.0151-.3213,1.5348,1.5348,0,0,1,.28.0239,2.0583,2.0583,0,0,1,.2393.0581Z"/><path class="bca78a2b-7116-4530-8552-a36bf6e4fe85" d="M576.7134,67.8057v1.7978H578.04V70.834h-1.3262v4.0879a.8909.8909,0,0,0,.1983.6528.7186.7186,0,0,0,.5264.1948,1.4535,1.4535,0,0,0,.2666-.0239,1.6523,1.6523,0,0,0,.246-.0649l.1778,1.2168a1.9044,1.9044,0,0,1-.5059.1811,2.7992,2.7992,0,0,1-.6084.065,1.9039,1.9039,0,0,1-1.4355-.5367,2.3508,2.3508,0,0,1-.52-1.685V70.834h-1.1279V69.6035h1.1279V67.8057Z"/><path class="bca78a2b-7116-4530-8552-a36bf6e4fe85" d="M583.9664,77q-.0887-.28-.147-.5469a3.9328,3.9328,0,0,1-.0786-.5332,2.94,2.94,0,0,1-.8989.8716,2.2853,2.2853,0,0,1-1.2476.3521,2.4592,2.4592,0,0,1-1.7739-.5948,2.1588,2.1588,0,0,1-.6187-1.6338,1.93,1.93,0,0,1,.8477-1.6713,4.0906,4.0906,0,0,1,2.3857-.5982h1.292v-.6494a1.2007,1.2007,0,0,0-.3418-.9092,1.3562,1.3562,0,0,0-.9775-.3281,1.3853,1.3853,0,0,0-.9024.2734.8682.8682,0,0,0-.3349.7041h-1.6l-.0069-.041a1.8322,1.8322,0,0,1,.7827-1.5517,3.3167,3.3167,0,0,1,2.1636-.6768,3.1649,3.1649,0,0,1,2.085.6562,2.3094,2.3094,0,0,1,.7929,1.8868v3.2881a6.0681,6.0681,0,0,0,.0616.8784A4.6532,4.6532,0,0,0,585.648,77Zm-2.0371-1.1895a2.0888,2.0888,0,0,0,1.1313-.3144,1.5816,1.5816,0,0,0,.6665-.7178V73.6846h-1.3193a1.6658,1.6658,0,0,0-1.1348.3589,1.09,1.09,0,0,0-.41.8442.8611.8611,0,0,0,.2768.6733A1.1391,1.1391,0,0,0,581.9293,75.8105Z"/><path class="bca78a2b-7116-4530-8552-a36bf6e4fe85" d="M593.6256,73.5479a4.1824,4.1824,0,0,1-.7554,2.6079,2.5243,2.5243,0,0,1-2.1294.9878,2.4475,2.4475,0,0,1-1.2-.28,2.3453,2.3453,0,0,1-.8511-.82l-.1641.957h-1.3945V66.3359h1.6611v4.1084a2.3876,2.3876,0,0,1,.82-.7246,2.3522,2.3522,0,0,1,1.1142-.2529,2.46,2.46,0,0,1,2.1431,1.08,4.892,4.892,0,0,1,.7554,2.8574Zm-1.6612-.1436a3.8212,3.8212,0,0,0-.3965-1.8662,1.3365,1.3365,0,0,0-1.2578-.711,1.646,1.646,0,0,0-.9262.2461,1.7214,1.7214,0,0,0-.5914.6836V74.86a1.6288,1.6288,0,0,0,.5879.687,1.7078,1.7078,0,0,0,.9434.2426,1.3774,1.3774,0,0,0,1.251-.6049,2.9972,2.9972,0,0,0,.39-1.6372Z"/><path class="bca78a2b-7116-4530-8552-a36bf6e4fe85" d="M596.8316,77h-1.6611V66.3359h1.6611Z"/><path class="bca78a2b-7116-4530-8552-a36bf6e4fe85" d="M601.8629,77.1436a3.2151,3.2151,0,0,1-2.5054-1.0289,3.7813,3.7813,0,0,1-.9331-2.642v-.2735a3.9253,3.9253,0,0,1,.9263-2.6763,2.9312,2.9312,0,0,1,2.3208-1.0561,2.8905,2.8905,0,0,1,2.2934.9058,3.55,3.55,0,0,1,.7964,2.43V73.78H600.147l-.0136.0342a2.3154,2.3154,0,0,0,.5161,1.4375,1.6347,1.6347,0,0,0,1.3159.5585,3.5545,3.5545,0,0,0,1.1484-.164,3.7681,3.7681,0,0,0,.9229-.4717l.5332,1.0894a3.44,3.44,0,0,1-1.1074.625A4.6216,4.6216,0,0,1,601.8629,77.1436ZM601.6715,70.8a1.2465,1.2465,0,0,0-1.0118.4888,2.4089,2.4089,0,0,0-.4922,1.2407l.0137.0342h2.9326v-.1709a1.7707,1.7707,0,0,0-.3589-1.1485A1.31,1.31,0,0,0,601.6715,70.8Z"/><path class="bca78a2b-7116-4530-8552-a36bf6e4fe85" d="M615.1929,74.4355a1.2734,1.2734,0,0,0-.4614-1.0136,4.3383,4.3383,0,0,0-1.63-.708,6.8929,6.8929,0,0,1-2.5669-1.1587,2.3077,2.3077,0,0,1-.8989-1.89,2.4138,2.4138,0,0,1,.9946-1.9824,4.0393,4.0393,0,0,1,2.5669-.7793,3.8156,3.8156,0,0,1,2.6353.8853,2.6409,2.6409,0,0,1,.96,2.1225l-.0136.041h-1.5928a1.6037,1.6037,0,0,0-.5195-1.2407,2.12,2.12,0,0,0-1.4834-.4751,2.1733,2.1733,0,0,0-1.398.3955,1.2571,1.2571,0,0,0-.4887,1.023,1.1185,1.1185,0,0,0,.53.9414,5.8564,5.8564,0,0,0,1.7535.71,5.842,5.842,0,0,1,2.44,1.1894,2.5,2.5,0,0,1,.834,1.9346,2.3345,2.3345,0,0,1-.9947,1.979,4.2959,4.2959,0,0,1-2.6147.7349,4.6181,4.6181,0,0,1-2.7344-.8306,2.5489,2.5489,0,0,1-1.1416-2.2661l.0137-.041h1.6a1.5545,1.5545,0,0,0,.6289,1.3569,2.756,2.756,0,0,0,1.6338.4477,2.4127,2.4127,0,0,0,1.4355-.371A1.1748,1.1748,0,0,0,615.1929,74.4355Z"/><path class="bca78a2b-7116-4530-8552-a36bf6e4fe85" d="M621.8511,71.8867l2.4063-4.84H626.11l-3.4521,6.46V77h-1.6543V73.418l-3.3975-6.3711h1.8526Z"/><path class="bca78a2b-7116-4530-8552-a36bf6e4fe85" d="M634.3336,73.6982l.0136.0411a3.1344,3.1344,0,0,1-.9809,2.4575,3.8287,3.8287,0,0,1-2.731.9468,3.6918,3.6918,0,0,1-2.8335-1.1724,4.2272,4.2272,0,0,1-1.09-2.9976V71.08a4.2742,4.2742,0,0,1,1.0767-2.9976,3.6147,3.6147,0,0,1,2.7993-1.1792,3.9665,3.9665,0,0,1,2.7788.9263,3.13,3.13,0,0,1,.9878,2.4917l-.0137.041H632.734a1.9281,1.9281,0,0,0-2.1465-2.126,1.9091,1.9091,0,0,0-1.6167.8057,3.2993,3.2993,0,0,0-.5982,2.022v1.9052a3.2726,3.2726,0,0,0,.6118,2.0357,1.9647,1.9647,0,0,0,1.6509.8056,2.08,2.08,0,0,0,1.5654-.5517,2.1549,2.1549,0,0,0,.5333-1.5606Z"/><path class="bca78a2b-7116-4530-8552-a36bf6e4fe85" d="M637.6353,75.667h4.5733V77h-6.2344V67.0469h1.6611Z"/><path class="bca78a2b-7116-4530-8552-a36bf6e4fe85" d="M651.0269,72.9189a4.2067,4.2067,0,0,1-1.145,3.0249,3.9205,3.9205,0,0,1-2.97,1.2,3.7925,3.7925,0,0,1-2.9087-1.2,4.2644,4.2644,0,0,1-1.1177-3.0249v-1.791a4.2676,4.2676,0,0,1,1.1177-3.0215,3.7788,3.7788,0,0,1,2.9019-1.2031,3.926,3.926,0,0,1,2.9736,1.2031,4.2024,4.2024,0,0,1,1.1484,3.0215Zm-1.6543-1.8046a3.0846,3.0846,0,0,0-.6665-2.044,2.2226,2.2226,0,0,0-1.8012-.8,2.0913,2.0913,0,0,0-1.73.8,3.1829,3.1829,0,0,0-.6358,2.044v1.8046a3.22,3.22,0,0,0,.6358,2.0611,2.0942,2.0942,0,0,0,1.7363.8032,2.21,2.21,0,0,0,1.8013-.8,3.137,3.137,0,0,0,.66-2.0645Z"/><path class="bca78a2b-7116-4530-8552-a36bf6e4fe85" d="M654.4859,73.2266V77h-1.6611V67.0469h3.89a3.6879,3.6879,0,0,1,2.5806.851,3.1605,3.1605,0,0,1,0,4.4844,3.7057,3.7057,0,0,1-2.5806.8443Zm0-1.333h2.2285a1.821,1.821,0,0,0,1.3877-.4922,1.7483,1.7483,0,0,0,.4649-1.251,1.6778,1.6778,0,0,0-1.8526-1.77h-2.2285Z"/><path class="bca78a2b-7116-4530-8552-a36bf6e4fe85" d="M667.2623,74.4355a1.2732,1.2732,0,0,0-.4615-1.0136,4.3377,4.3377,0,0,0-1.63-.708,6.8922,6.8922,0,0,1-2.5669-1.1587,2.3077,2.3077,0,0,1-.8989-1.89,2.4135,2.4135,0,0,1,.9946-1.9824,4.0391,4.0391,0,0,1,2.5669-.7793,3.8155,3.8155,0,0,1,2.6352.8853,2.6413,2.6413,0,0,1,.9605,2.1225l-.0137.041h-1.5928a1.6037,1.6037,0,0,0-.5195-1.2407,2.12,2.12,0,0,0-1.4834-.4751,2.173,2.173,0,0,0-1.3979.3955,1.2572,1.2572,0,0,0-.4888,1.023,1.1184,1.1184,0,0,0,.53.9414,5.8555,5.8555,0,0,0,1.7534.71,5.8414,5.8414,0,0,1,2.44,1.1894,2.4994,2.4994,0,0,1,.834,1.9346,2.3344,2.3344,0,0,1-.9946,1.979,4.2964,4.2964,0,0,1-2.6148.7349,4.6178,4.6178,0,0,1-2.7343-.8306,2.5487,2.5487,0,0,1-1.1416-2.2661l.0136-.041h1.6a1.5545,1.5545,0,0,0,.6289,1.3569,2.7562,2.7562,0,0,0,1.6338.4477,2.4129,2.4129,0,0,0,1.4356-.371A1.1748,1.1748,0,0,0,667.2623,74.4355Z"/><path class="bca78a2b-7116-4530-8552-a36bf6e4fe85" d="M679.5533,74.4355a1.2734,1.2734,0,0,0-.4614-1.0136,4.3391,4.3391,0,0,0-1.63-.708,6.8922,6.8922,0,0,1-2.5669-1.1587,2.3077,2.3077,0,0,1-.8989-1.89,2.4135,2.4135,0,0,1,.9946-1.9824,4.0393,4.0393,0,0,1,2.5669-.7793,3.8153,3.8153,0,0,1,2.6352.8853,2.6413,2.6413,0,0,1,.9605,2.1225l-.0137.041h-1.5927a1.6038,1.6038,0,0,0-.52-1.2407,2.12,2.12,0,0,0-1.4834-.4751,2.1732,2.1732,0,0,0-1.3979.3955,1.2572,1.2572,0,0,0-.4888,1.023,1.1186,1.1186,0,0,0,.53.9414,5.8555,5.8555,0,0,0,1.7534.71,5.8414,5.8414,0,0,1,2.44,1.1894,2.4994,2.4994,0,0,1,.834,1.9346,2.3344,2.3344,0,0,1-.9946,1.979,4.2964,4.2964,0,0,1-2.6148.7349,4.618,4.618,0,0,1-2.7343-.8306,2.5487,2.5487,0,0,1-1.1416-2.2661l.0136-.041h1.6a1.5542,1.5542,0,0,0,.6289,1.3569,2.7557,2.7557,0,0,0,1.6337.4477,2.4129,2.4129,0,0,0,1.4356-.371A1.1748,1.1748,0,0,0,679.5533,74.4355Z"/><path class="bca78a2b-7116-4530-8552-a36bf6e4fe85" d="M684.817,67.8057v1.7978h1.3261V70.834H684.817v4.0879a.8909.8909,0,0,0,.1982.6528.7186.7186,0,0,0,.5264.1948,1.4535,1.4535,0,0,0,.2666-.0239,1.6568,1.6568,0,0,0,.2461-.0649l.1777,1.2168a1.9044,1.9044,0,0,1-.5059.1811,2.7992,2.7992,0,0,1-.6084.065,1.9039,1.9039,0,0,1-1.4355-.5367,2.3508,2.3508,0,0,1-.5195-1.685V70.834h-1.128V69.6035h1.128V67.8057Z"/><path class="bca78a2b-7116-4530-8552-a36bf6e4fe85" d="M692.07,77q-.0886-.28-.147-.5469a3.9328,3.9328,0,0,1-.0786-.5332,2.9384,2.9384,0,0,1-.8989.8716,2.2853,2.2853,0,0,1-1.2476.3521,2.4592,2.4592,0,0,1-1.7739-.5948,2.1588,2.1588,0,0,1-.6187-1.6338,1.9306,1.9306,0,0,1,.8477-1.6713,4.0906,4.0906,0,0,1,2.3857-.5982h1.292v-.6494a1.2,1.2,0,0,0-.3418-.9092,1.3562,1.3562,0,0,0-.9775-.3281,1.3848,1.3848,0,0,0-.9023.2734.868.868,0,0,0-.335.7041h-1.6l-.0069-.041a1.8323,1.8323,0,0,1,.7828-1.5517,3.3164,3.3164,0,0,1,2.1635-.6768,3.1647,3.1647,0,0,1,2.085.6562,2.31,2.31,0,0,1,.793,1.8868v3.2881a6.0684,6.0684,0,0,0,.0615.8784,4.6532,4.6532,0,0,0,.1982.8237Zm-2.0371-1.1895a2.0888,2.0888,0,0,0,1.1313-.3144,1.5811,1.5811,0,0,0,.6665-.7178V73.6846h-1.3193a1.6658,1.6658,0,0,0-1.1348.3589,1.09,1.09,0,0,0-.41.8442.8615.8615,0,0,0,.2768.6733A1.1391,1.1391,0,0,0,690.0328,75.8105Z"/><path class="bca78a2b-7116-4530-8552-a36bf6e4fe85" d="M698.2906,75.8105a1.52,1.52,0,0,0,1.0254-.3569,1.1289,1.1289,0,0,0,.417-.894h1.5039l.0137.041a2.1845,2.1845,0,0,1-.8443,1.791,3.1433,3.1433,0,0,1-2.1157.752,3.068,3.068,0,0,1-2.5054-1.0528,4.04,4.04,0,0,1-.8716-2.666v-.2393a4.0447,4.0447,0,0,1,.8716-2.6626,3.4561,3.4561,0,0,1,4.669-.28,2.4979,2.4979,0,0,1,.8032,1.9721l-.0137.0411H699.733a1.4487,1.4487,0,0,0-.4-1.0323,1.3675,1.3675,0,0,0-1.0425-.4238,1.4032,1.4032,0,0,0-1.3262.6792,3.3838,3.3838,0,0,0-.39,1.7031v.2393a3.39,3.39,0,0,0,.39,1.7168A1.4067,1.4067,0,0,0,698.2906,75.8105Z"/><path class="bca78a2b-7116-4530-8552-a36bf6e4fe85" d="M704.99,73.7666h-.7451V77H702.59V66.3359h1.6543v6.0977h.69l1.8662-2.83h1.9551l-2.44,3.3633L709.1187,77H707.191Z"/></svg>