<?xml version="1.0" encoding="utf-8"?>
<!-- Generator: Adobe Illustrator 28.2.0, SVG Export Plug-In . SVG Version: 6.00 Build 0)  -->
<svg version="1.1" id="a8741276-a344-4ea9-a101-a47b946b3185"
	 xmlns="http://www.w3.org/2000/svg" xmlns:xlink="http://www.w3.org/1999/xlink" x="0px" y="0px" viewBox="0 0 764 464"
	 style="enable-background:new 0 0 764 464;" xml:space="preserve">
<style type="text/css">
	.st0{fill:#D1D0D1;}
	.st1{fill:#454444;}
	.st2{fill:#636363;}
	.st3{opacity:0.24;fill:#FFFFFF;enable-background:new    ;}
	.st4{fill:#FFFFFF;}
	.st5{opacity:0.57;}
	.st6{fill:url(#SVGID_1_);}
	.st7{fill:url(#SVGID_00000127046522347268880750000005544169805820567175_);}
	.st8{fill:#9A6AAA;}
	.st9{opacity:0.5;}
	.st10{fill:#3D2985;}
	.st11{fill:none;stroke:#FFFFFF;stroke-miterlimit:10;}
	.st12{fill:#1D1D1B;}
	.st13{fill:#6C6C6C;}
</style>
<path class="st0" d="M9.3,0h745.3c5.2,0,9.3,4.2,9.3,9.3v445.3c0,5.2-4.2,9.3-9.3,9.3H9.3c-5.2,0-9.3-4.2-9.3-9.3V9.3
	C0,4.2,4.2,0,9.3,0z"/>
<g id="fe79f674-7956-46b2-9e6b-ffab292e9d5c">
	<path class="st1" d="M59.7,108.6H177c4.6,0,8.3,3.7,8.3,8.3v296c0,4.6-3.7,8.3-8.3,8.3H59.7c-4.6,0-8.3-3.7-8.3-8.3V117
		C51.4,112.4,55.1,108.6,59.7,108.6z"/>
	<path class="st2" d="M62.8,186.1h110.5c3.1,0,5.6,2.5,5.6,5.6v38c0,3.1-2.5,5.6-5.6,5.6H62.8c-3.1,0-5.6-2.5-5.6-5.6v-38
		C57.2,188.7,59.7,186.1,62.8,186.1z"/>
	<circle class="st3" cx="118.1" cy="310" r="33.4"/>
	<path class="st4" d="M98.9,150.4l0.1,0.7h0.1l0.1-0.6l2.6-8.9h2.6l-4.1,12.1h-2.5l-4.1-12.1h2.6L98.9,150.4z"/>
	<path class="st4" d="M109,153.8c-1.2,0.1-2.3-0.4-3.1-1.2c-0.8-0.9-1.2-2-1.2-3.2v-0.3c0-1.2,0.3-2.4,1.1-3.3
		c1.5-1.6,4.1-1.7,5.8-0.2c0.7,0.8,1.1,1.9,1,3v1.3h-5.4l0,0c0,0.5,0.2,1.1,0.6,1.5c0.4,0.4,0.9,0.6,1.4,0.6c0.5,0,0.9,0,1.3-0.2
		c0.4-0.1,0.8-0.3,1.2-0.5l0.7,1.5c-0.4,0.3-0.9,0.6-1.4,0.7C110.3,153.7,109.7,153.8,109,153.8z M108.8,146.4
		c-0.4,0-0.8,0.2-1.1,0.5c-0.3,0.4-0.4,0.9-0.5,1.4l0,0h3v-0.2c0-0.4-0.1-0.9-0.4-1.2C109.6,146.5,109.2,146.3,108.8,146.4z"/>
	<path class="st4" d="M117.8,152c0.4,0,0.8-0.1,1-0.4c0.3-0.3,0.4-0.6,0.4-1h2.2l0,0.1c0,0.9-0.3,1.7-1,2.3
		c-1.7,1.3-4.2,1.2-5.7-0.4c-0.7-0.9-1.1-2.1-1.1-3.3V149c0-1.2,0.3-2.3,1.1-3.3c0.8-0.9,1.9-1.3,3.1-1.3c1,0,1.9,0.3,2.7,0.9
		c0.7,0.6,1,1.6,1,2.5l0,0.1h-2.2c0-0.4-0.1-0.8-0.4-1.2c-0.3-0.3-0.7-0.5-1.1-0.5c-0.6,0-1.1,0.2-1.4,0.7c-0.3,0.6-0.4,1.3-0.4,1.9
		v0.2c0,0.7,0.1,1.3,0.4,1.9C116.7,151.7,117.2,152,117.8,152z"/>
	<path class="st4" d="M125.7,142.5v2.2h1.5v1.7h-1.5v4.6c0,0.3,0.1,0.5,0.2,0.7c0.2,0.2,0.4,0.2,0.6,0.2c0.1,0,0.2,0,0.3,0
		c0.1,0,0.2,0,0.3-0.1l0.2,1.8c-0.2,0.1-0.5,0.1-0.7,0.2c-0.2,0-0.5,0.1-0.8,0.1c-0.7,0-1.4-0.2-1.9-0.7c-0.5-0.6-0.7-1.4-0.7-2.2
		v-4.6H122v-1.7h1.3v-2.2L125.7,142.5z"/>
	<path class="st4" d="M128.4,149.1c0-1.2,0.4-2.4,1.1-3.3c0.8-0.9,1.9-1.3,3.1-1.3c1.2-0.1,2.3,0.4,3.1,1.3c0.8,0.9,1.2,2.1,1.1,3.3
		v0.2c0.1,1.2-0.3,2.4-1.1,3.3c-1.7,1.7-4.5,1.7-6.2,0c-0.8-0.9-1.2-2.1-1.1-3.3L128.4,149.1z M130.8,149.2c0,0.7,0.1,1.4,0.4,2
		c0.5,0.8,1.5,1,2.3,0.5c0.2-0.1,0.3-0.3,0.5-0.5c0.3-0.6,0.5-1.3,0.4-2v-0.2c0-0.7-0.1-1.3-0.4-1.9c-0.3-0.5-0.8-0.8-1.4-0.8
		c-0.6,0-1.1,0.3-1.4,0.8c-0.3,0.6-0.5,1.3-0.4,1.9L130.8,149.2z"/>
	<path class="st4" d="M143.1,146.8l-0.9,0c-0.3,0-0.6,0.1-0.9,0.2c-0.2,0.2-0.4,0.4-0.5,0.6v6.1h-2.4v-9h2.2l0.1,1.3
		c0.2-0.4,0.5-0.8,0.8-1.1c0.3-0.3,0.7-0.4,1.2-0.4c0.1,0,0.2,0,0.3,0c0.1,0,0.2,0,0.3,0.1L143.1,146.8z"/>
	<path class="st4" d="M84.1,213.4L84.1,213.4c0.1,1.2-0.4,2.3-1.2,3c-0.9,0.8-2.1,1.2-3.3,1.1c-1.3,0-2.6-0.5-3.4-1.4
		c-0.9-1-1.4-2.3-1.3-3.6v-2.3c0-1.3,0.4-2.6,1.3-3.6c0.9-1,2.1-1.5,3.4-1.4c1.2-0.1,2.4,0.3,3.4,1.1c0.8,0.8,1.3,1.9,1.2,3l0,0.1
		h-2c0.1-1.3-0.8-2.4-2.1-2.6c-0.2,0-0.4,0-0.5,0c-0.8,0-1.5,0.3-2,1c-0.5,0.7-0.8,1.6-0.7,2.5v2.3c0,0.9,0.2,1.8,0.7,2.5
		c0.5,0.6,1.2,1,2,1c0.7,0.1,1.4-0.2,1.9-0.7c0.5-0.5,0.7-1.2,0.6-1.9L84.1,213.4z"/>
	<path class="st4" d="M95.3,205.3v8.1c0.1,1.2-0.4,2.3-1.3,3.1c-1,0.8-2.2,1.1-3.4,1.1c-1.2,0.1-2.4-0.3-3.4-1.1
		c-0.9-0.8-1.4-1.9-1.3-3.1v-8.1h2v8.1c-0.1,0.7,0.2,1.4,0.7,1.9c0.5,0.4,1.2,0.7,1.9,0.6c0.7,0,1.4-0.2,2-0.6
		c0.5-0.5,0.8-1.2,0.7-1.9v-8.1H95.3z"/>
	<path class="st4" d="M97.7,217.4v-12.1h3.9c1.4-0.1,2.7,0.5,3.7,1.4c1,1,1.5,2.3,1.4,3.7v1.8c0.1,1.4-0.5,2.7-1.4,3.7
		c-1,1-2.4,1.5-3.7,1.4H97.7z M99.7,206.9v8.8h1.8c0.9,0,1.8-0.3,2.4-1c0.6-0.7,0.9-1.6,0.9-2.5v-1.9c0-0.9-0.3-1.8-0.9-2.5
		c-0.6-0.7-1.5-1-2.4-1L99.7,206.9z"/>
	<path class="st4" d="M115.2,214.6h-4.7l-1,2.8h-2l4.4-12.1h1.9l4.4,12.1h-2.1L115.2,214.6z M111.1,212.9h3.6l-1.8-5.2h-0.1
		L111.1,212.9z"/>
	<path class="st4" d="M119,211.3c0-1.6,0.6-3.2,1.7-4.4c2.2-2.3,5.8-2.4,8.1-0.2c0.1,0.1,0.1,0.1,0.2,0.2c2.3,2.5,2.3,6.3,0,8.8
		c-2.2,2.3-5.8,2.4-8.1,0.2c-0.1-0.1-0.2-0.2-0.2-0.2C119.6,214.6,119,213,119,211.3z M120,211.3c0,1.4,0.5,2.7,1.4,3.7
		c1.8,1.9,4.8,2,6.7,0.2c0.1-0.1,0.2-0.1,0.2-0.2c1.9-2.1,1.9-5.3,0-7.4c-1.8-1.9-4.8-2-6.7-0.2c-0.1,0.1-0.1,0.1-0.2,0.2
		C120.5,208.7,120,210,120,211.3L120,211.3z M123.7,212v2.8h-1.3v-7.1h2.3c0.7,0,1.4,0.2,2,0.6c0.5,0.4,0.8,1,0.7,1.6
		c0,0.3-0.1,0.6-0.3,0.9c-0.2,0.3-0.4,0.5-0.7,0.6c0.3,0.1,0.6,0.4,0.7,0.7c0.2,0.3,0.2,0.7,0.2,1.1v0.5c0,0.2,0,0.4,0,0.6
		c0,0.2,0.1,0.3,0.1,0.4v0.1h-1.3c-0.1-0.2-0.1-0.3-0.1-0.5c0-0.2,0-0.5,0-0.7v-0.4c0-0.3-0.1-0.6-0.3-0.9c-0.3-0.2-0.6-0.3-0.9-0.3
		L123.7,212z M123.7,210.9h1.2c0.3,0,0.7-0.1,1-0.3c0.2-0.1,0.4-0.4,0.4-0.7c0-0.3-0.1-0.6-0.3-0.8c-0.3-0.2-0.7-0.3-1.1-0.2h-1.1
		L123.7,210.9z"/>
	<path class="st4" d="M133.5,218.4h-1.9l4.8-13.1h1.9L133.5,218.4z"/>
	<path class="st4" d="M149.3,217.4h-2v-5.2h-5.4v5.2h-2v-12.1h2v5.3h5.4v-5.3h2V217.4z"/>
	<path class="st4" d="M153.9,206.2h-2v-1.8h2V206.2z M153.9,217.4h-2v-9h2V217.4z"/>
	<path class="st4" d="M164,213.2c0.1,1.1-0.3,2.2-0.9,3.2c-0.6,0.8-1.6,1.2-2.6,1.2c-0.5,0-0.9-0.1-1.4-0.3c-0.4-0.2-0.7-0.5-1-0.8
		v4.4h-2v-12.4h1.7l0.2,1.1c0.3-0.4,0.6-0.7,1-1c0.4-0.2,0.9-0.3,1.4-0.3c1,0,2,0.5,2.6,1.3c0.7,1,1,2.2,0.9,3.5V213.2z M162,213
		c0-0.8-0.1-1.6-0.5-2.2c-0.3-0.6-0.9-0.9-1.5-0.9c-0.4,0-0.7,0.1-1.1,0.3c-0.3,0.2-0.5,0.4-0.7,0.8v4.1c0.2,0.3,0.4,0.6,0.7,0.7
		c0.3,0.2,0.7,0.3,1.1,0.3c0.6,0,1.2-0.3,1.5-0.8c0.4-0.6,0.5-1.3,0.5-2L162,213z"/>
	<path class="st4" d="M112.6,375.8c-0.5,0.5-1,1-1.7,1.3c-0.9,0.4-1.9,0.6-2.9,0.6c-1.3,0.1-2.6-0.4-3.6-1.4
		c-0.9-0.9-1.5-2.2-1.4-3.6v-2.5c-0.1-1.3,0.4-2.6,1.3-3.6c0.9-0.9,2.2-1.4,3.5-1.4c1.2-0.1,2.4,0.3,3.4,1.1
		c0.8,0.7,1.2,1.8,1.2,2.8l0,0.1h-2.3c0-0.6-0.2-1.1-0.6-1.5c-0.4-0.4-1-0.6-1.6-0.6c-0.7,0-1.4,0.3-1.8,0.9
		c-0.5,0.6-0.7,1.4-0.7,2.2v2.5c0,0.8,0.2,1.6,0.7,2.2c0.5,0.6,1.2,0.9,1.9,0.9c0.5,0,0.9,0,1.4-0.2c0.3-0.1,0.6-0.2,0.8-0.4V373
		H108v-1.7h4.6L112.6,375.8z"/>
	<path class="st4" d="M117.1,373.1v4.4h-2.4v-12.1h4.8c1.2-0.1,2.4,0.3,3.3,1.1c1.5,1.5,1.6,3.9,0.1,5.5c0,0-0.1,0.1-0.1,0.1
		c-0.9,0.7-2.1,1.1-3.3,1.1H117.1z M117.1,371.2h2.4c0.6,0,1.1-0.2,1.5-0.6c0.4-0.4,0.5-0.9,0.5-1.4c0-0.5-0.2-1-0.5-1.4
		c-0.4-0.4-1-0.6-1.5-0.6h-2.4L117.1,371.2z"/>
	<path class="st4" d="M135.3,365.4v8c0.1,1.2-0.4,2.4-1.3,3.1c-1,0.8-2.3,1.2-3.5,1.1c-1.3,0.1-2.5-0.3-3.5-1.1
		c-0.9-0.8-1.4-1.9-1.3-3.1v-8h2.4v8c-0.1,0.7,0.2,1.3,0.6,1.8c0.5,0.4,1.1,0.6,1.8,0.6c0.6,0,1.3-0.2,1.8-0.6
		c0.5-0.5,0.7-1.1,0.6-1.8v-8H135.3z"/>
	<g class="st5">
		<path class="st4" d="M86.5,393.2h-1.6l-3.2-5.3l0,0v5.3h-1.6v-7.8h1.6l3.2,5.3l0,0v-5.3h1.6V393.2z"/>
		<path class="st4" d="M90.6,391.2l0.1,0.4h0l0.1-0.4l1.7-5.8h1.7l-2.7,7.8h-1.6l-2.7-7.8h1.7L90.6,391.2z"/>
		<path class="st4" d="M96.6,393.2h-1.6v-7.8h1.6L96.6,393.2z"/>
		<path class="st4" d="M98.2,393.2v-7.8h2.7c0.9,0,1.7,0.3,2.4,0.9c0.6,0.6,1,1.5,0.9,2.4v1.3c0,0.9-0.3,1.7-0.9,2.4
			c-0.6,0.6-1.5,0.9-2.4,0.9H98.2z M99.8,386.6v5.4h1c0.5,0,1-0.2,1.3-0.6c0.3-0.4,0.5-0.9,0.5-1.5v-1.3c0-0.5-0.1-1.1-0.5-1.5
			c-0.3-0.4-0.8-0.6-1.3-0.6L99.8,386.6z"/>
		<path class="st4" d="M107.1,393.2h-1.6v-7.8h1.6V393.2z"/>
		<path class="st4" d="M112.8,391.6h-2.7l-0.5,1.7H108l2.7-7.8h1.6l2.7,7.8h-1.6L112.8,391.6z M110.5,390.3h2l-1-3.1h0L110.5,390.3z
			"/>
		<path class="st4" d="M115.4,389.3c0-1.1,0.4-2.1,1.1-2.9c1.4-1.5,3.8-1.6,5.3-0.1c0,0,0.1,0.1,0.1,0.1c1.5,1.6,1.5,4.1,0,5.7
			c-1.4,1.5-3.7,1.6-5.2,0.2c-0.1-0.1-0.1-0.1-0.2-0.2C115.8,391.4,115.4,390.4,115.4,389.3z M116.1,389.3c0,0.9,0.3,1.7,0.9,2.4
			c1.2,1.2,3.1,1.3,4.3,0.1c0,0,0.1-0.1,0.1-0.1c1.2-1.4,1.2-3.4,0-4.8c-1.2-1.2-3.1-1.3-4.3-0.1c0,0-0.1,0.1-0.1,0.1
			C116.4,387.6,116,388.5,116.1,389.3z M118.4,389.7v1.8h-0.8V387h1.5c0.5,0,0.9,0.1,1.3,0.4c0.3,0.3,0.5,0.6,0.5,1
			c0,0.2,0,0.4-0.2,0.5c-0.1,0.2-0.3,0.3-0.5,0.4c0.2,0.1,0.4,0.3,0.5,0.5c0.1,0.2,0.1,0.5,0.1,0.7v0.3c0,0.1,0,0.3,0,0.4
			c0,0.1,0,0.2,0.1,0.3v0.1h-0.8c0-0.1-0.1-0.2-0.1-0.3c0-0.1,0-0.3,0-0.4v-0.3c0-0.2,0-0.4-0.2-0.6c-0.2-0.1-0.4-0.2-0.6-0.2
			L118.4,389.7z M118.4,389h0.7c0.2,0,0.5,0,0.6-0.2c0.2-0.1,0.3-0.3,0.3-0.5c0-0.2-0.1-0.4-0.2-0.5c-0.2-0.1-0.5-0.2-0.7-0.2h-0.7
			V389z"/>
		<path class="st4" d="M126.6,391.1c0-0.4,0.1-0.8,0.3-1.1c0.3-0.4,0.7-0.7,1.1-1c-0.2-0.3-0.4-0.6-0.5-0.9
			c-0.1-0.3-0.2-0.5-0.2-0.8c0-0.6,0.2-1.1,0.6-1.5c0.4-0.4,1-0.6,1.6-0.6c0.5,0,1,0.2,1.4,0.5c0.3,0.3,0.5,0.8,0.5,1.3
			c0,0.3-0.1,0.7-0.3,1c-0.2,0.3-0.4,0.6-0.7,0.8l-0.5,0.4l1.5,1.7c0.1-0.2,0.2-0.5,0.3-0.7c0.1-0.3,0.1-0.5,0.1-0.8h1.2
			c0,0.5-0.1,0.9-0.2,1.4c-0.1,0.4-0.3,0.8-0.6,1.1l1.1,1.3l0,0h-1.7l-0.4-0.5c-0.3,0.2-0.6,0.3-0.9,0.4c-0.3,0.1-0.7,0.2-1,0.1
			c-0.7,0-1.3-0.2-1.9-0.6C126.9,392.3,126.6,391.8,126.6,391.1z M129.3,392.2c0.2,0,0.4,0,0.6-0.1c0.2,0,0.4-0.1,0.5-0.2l-1.6-1.9
			l-0.1,0.1c-0.2,0.1-0.3,0.3-0.4,0.5c-0.1,0.2-0.1,0.3-0.1,0.5c0,0.3,0.1,0.6,0.3,0.8C128.7,392.1,129,392.2,129.3,392.2
			L129.3,392.2z M128.7,387.3c0,0.2,0,0.3,0.1,0.5c0.1,0.2,0.2,0.4,0.3,0.5l0.5-0.3c0.2-0.1,0.3-0.2,0.4-0.4
			c0.1-0.1,0.1-0.3,0.1-0.4c0-0.2-0.1-0.4-0.2-0.5c-0.1-0.1-0.3-0.2-0.5-0.2c-0.2,0-0.4,0.1-0.5,0.2
			C128.8,386.9,128.7,387.1,128.7,387.3L128.7,387.3z"/>
		<path class="st4" d="M141.2,391.6h-2.7l-0.5,1.7h-1.6l2.7-7.8h1.6l2.7,7.8h-1.6L141.2,391.6z M138.8,390.3h2l-1-3.1h0L138.8,390.3
			z"/>
		<path class="st4" d="M146.1,385.4l2,5.8h0l2-5.8h2.1v7.8h-1.6v-2.3l0.1-3.5l0,0l-2.1,5.8h-1.1l-2.1-5.8l0,0l0.1,3.4v2.3h-1.6v-7.8
			H146.1z"/>
		<path class="st4" d="M153.6,393.2v-7.8h2.7c0.9,0,1.7,0.3,2.4,0.9c0.6,0.6,1,1.5,0.9,2.4v1.3c0,0.9-0.3,1.7-0.9,2.4
			c-0.6,0.6-1.5,0.9-2.4,0.9H153.6z M155.2,386.6v5.4h1c0.5,0,1-0.2,1.3-0.6c0.3-0.4,0.5-0.9,0.5-1.5v-1.3c0-0.5-0.1-1.1-0.5-1.5
			c-0.3-0.4-0.8-0.6-1.3-0.6L155.2,386.6z"/>
	</g>
</g>
<g id="f24f73e3-8f7f-4d66-bf85-847c6c7686f3">
	<path class="st1" d="M202.7,108.6H320c4.6,0,8.3,3.7,8.3,8.3v296c0,4.6-3.7,8.3-8.3,8.3H202.7c-4.6,0-8.3-3.7-8.3-8.3V117
		C194.3,112.4,198.1,108.6,202.7,108.6z"/>
	<path class="st2" d="M205.8,186.1h110.5c3.1,0,5.6,2.5,5.6,5.6v38c0,3.1-2.5,5.6-5.6,5.6H205.8c-3.1,0-5.6-2.5-5.6-5.6v-38
		C200.2,188.7,202.7,186.1,205.8,186.1z"/>
	<circle class="st3" cx="261" cy="310" r="33.4"/>
	<path class="st4" d="M241,141.6l3.1,8.9h0.1l3.1-8.9h3.2v12.1h-2.4V150l0.2-5.3l-0.1,0l-3.2,8.9h-1.6l-3.2-8.9l-0.1,0l0.2,5.3v3.6
		h-2.4v-12.1H241z"/>
	<path class="st4" d="M257.7,153.6c-0.1-0.2-0.2-0.4-0.2-0.6c-0.1-0.2-0.1-0.5-0.1-0.7c-0.2,0.4-0.6,0.8-1,1.1
		c-0.4,0.3-0.9,0.4-1.5,0.4c-0.8,0.1-1.6-0.2-2.2-0.7c-0.5-0.5-0.8-1.2-0.8-2c0-0.8,0.3-1.6,1-2c0.9-0.5,1.9-0.8,3-0.7h1.4v-0.7
		c0-0.4-0.1-0.7-0.3-1c-0.6-0.4-1.3-0.5-1.9-0.1c-0.2,0.2-0.3,0.5-0.3,0.8l-2.3,0l0-0.1c0-0.8,0.3-1.5,1-2c0.8-0.6,1.8-0.9,2.7-0.8
		c0.9,0,1.9,0.2,2.6,0.8c0.7,0.6,1.1,1.4,1,2.3v3.7c0,0.4,0,0.8,0.1,1.2c0.1,0.4,0.2,0.7,0.3,1.1L257.7,153.6z M255.5,152
		c0.4,0,0.8-0.1,1.1-0.3c0.3-0.2,0.5-0.4,0.7-0.7v-1.3h-1.4c-0.4,0-0.8,0.1-1.2,0.4c-0.3,0.2-0.4,0.6-0.4,0.9c0,0.3,0.1,0.5,0.3,0.7
		C254.9,151.9,255.2,152,255.5,152L255.5,152z"/>
	<path class="st4" d="M264.4,142.5v2.2h1.5v1.7h-1.5v4.6c0,0.3,0.1,0.5,0.2,0.7c0.2,0.2,0.4,0.2,0.6,0.2c0.1,0,0.2,0,0.3,0
		c0.1,0,0.2,0,0.3-0.1l0.2,1.8c-0.2,0.1-0.5,0.1-0.7,0.2c-0.2,0-0.5,0.1-0.8,0.1c-0.7,0-1.4-0.2-1.9-0.7c-0.5-0.6-0.7-1.4-0.7-2.2
		v-4.6h-1.3v-1.7h1.3v-2.2L264.4,142.5z"/>
	<path class="st4" d="M272.2,146.8l-0.9,0c-0.3,0-0.6,0.1-0.9,0.2c-0.2,0.2-0.4,0.4-0.5,0.6v6.1h-2.4v-9h2.2l0.1,1.3
		c0.2-0.4,0.5-0.8,0.8-1.1c0.3-0.3,0.7-0.4,1.2-0.4c0.1,0,0.2,0,0.3,0c0.1,0,0.2,0,0.3,0.1L272.2,146.8z"/>
	<path class="st4" d="M276,142.5h-2.4v-1.8h2.4V142.5z M276,153.6h-2.4v-9h2.4V153.6z"/>
	<path class="st4" d="M281.4,147.5L281.4,147.5l1.4-2.9h2.7l-2.7,4.4l2.8,4.5h-2.7l-1.5-3l-1.5,3h-2.7l2.8-4.5l-2.7-4.4h2.7
		L281.4,147.5z"/>
	<path class="st4" d="M242.5,213.4L242.5,213.4c0.1,1.2-0.4,2.3-1.2,3c-0.9,0.8-2.1,1.2-3.3,1.1c-1.3,0-2.6-0.5-3.4-1.4
		c-0.9-1-1.4-2.3-1.3-3.6v-2.3c0-1.3,0.4-2.6,1.3-3.6c0.9-1,2.1-1.5,3.4-1.4c1.2-0.1,2.4,0.3,3.4,1.1c0.8,0.8,1.3,1.9,1.2,3l0,0.1
		h-2c0.1-1.3-0.8-2.4-2.1-2.6c-0.2,0-0.4,0-0.5,0c-0.8,0-1.5,0.3-2,1c-0.5,0.7-0.8,1.6-0.7,2.5v2.3c0,0.9,0.2,1.8,0.7,2.5
		c0.5,0.6,1.2,1,2,1c0.7,0.1,1.4-0.2,1.9-0.7c0.5-0.5,0.7-1.2,0.6-1.9L242.5,213.4z"/>
	<path class="st4" d="M249.9,216.1c-0.3,0.5-0.6,0.8-1.1,1.1c-1.2,0.7-2.8,0.5-3.8-0.5c-0.6-0.8-0.9-1.8-0.8-2.9v-5.4h2v5.4
		c-0.1,0.6,0.1,1.2,0.4,1.7c0.3,0.3,0.7,0.5,1.2,0.5c0.4,0,0.8-0.1,1.2-0.3c0.3-0.2,0.6-0.4,0.8-0.8v-6.5h2v9H250L249.9,216.1z"/>
	<path class="st4" d="M259,215c0-0.3-0.1-0.6-0.4-0.8c-0.5-0.3-1-0.5-1.5-0.5c-0.9-0.1-1.7-0.5-2.4-1c-0.5-0.4-0.8-1-0.8-1.7
		c0-0.8,0.4-1.5,1-1.9c0.7-0.6,1.6-0.8,2.5-0.8c0.9-0.1,1.9,0.2,2.6,0.8c0.6,0.5,1,1.2,0.9,2l0,0.1h-1.9c0-0.4-0.2-0.7-0.4-1
		c-0.3-0.3-0.7-0.4-1.2-0.4c-0.4,0-0.8,0.1-1.1,0.3c-0.2,0.2-0.4,0.5-0.4,0.8c0,0.3,0.1,0.6,0.4,0.8c0.5,0.3,0.9,0.4,1.5,0.5
		c0.9,0.1,1.8,0.5,2.5,1c0.5,0.4,0.8,1.1,0.8,1.7c0,0.8-0.4,1.5-1,2c-0.8,0.5-1.7,0.8-2.6,0.8c-1,0.1-2-0.3-2.8-0.9
		c-0.6-0.5-1-1.3-1-2.1l0-0.1h1.9c0,0.4,0.2,0.9,0.6,1.1c0.4,0.2,0.8,0.4,1.3,0.4c0.4,0,0.8-0.1,1.2-0.3
		C258.8,215.6,259,215.3,259,215z"/>
	<path class="st4" d="M265.3,206.2v2.2h1.6v1.5h-1.6v5c0,0.3,0.1,0.6,0.2,0.8c0.2,0.2,0.4,0.2,0.6,0.2c0.1,0,0.2,0,0.3,0
		c0.1,0,0.2,0,0.3-0.1l0.2,1.5c-0.2,0.1-0.4,0.2-0.6,0.2c-0.2,0.1-0.5,0.1-0.7,0.1c-0.6,0-1.3-0.2-1.7-0.7c-0.5-0.6-0.7-1.3-0.6-2
		v-5h-1.4v-1.5h1.4v-2.2L265.3,206.2z"/>
	<path class="st4" d="M268.3,212.8c0-1.2,0.3-2.4,1.1-3.3c1.6-1.7,4.3-1.7,5.9-0.1c0,0,0.1,0.1,0.1,0.1c0.8,0.9,1.2,2.1,1.1,3.3v0.2
		c0.1,1.2-0.3,2.4-1.1,3.3c-1.6,1.7-4.3,1.7-6,0.1c0,0-0.1-0.1-0.1-0.1c-0.8-0.9-1.1-2.1-1.1-3.3V212.8z M270.3,213
		c0,0.7,0.1,1.5,0.5,2.1c0.6,0.9,1.8,1.1,2.7,0.5c0.2-0.1,0.3-0.3,0.5-0.5c0.4-0.6,0.6-1.4,0.5-2.1v-0.2c0-0.7-0.2-1.5-0.5-2.1
		c-0.6-0.9-1.8-1.1-2.7-0.5c-0.2,0.1-0.4,0.3-0.5,0.5c-0.4,0.6-0.5,1.4-0.5,2.1V213z"/>
	<path class="st4" d="M280.1,208.4l0.1,1.2c0.3-0.4,0.7-0.8,1.1-1c0.5-0.2,1-0.4,1.5-0.3c0.5,0,1.1,0.1,1.5,0.4
		c0.4,0.3,0.8,0.7,0.9,1.2c0.3-0.5,0.6-0.9,1.1-1.2c0.5-0.3,1-0.4,1.6-0.4c0.8,0,1.6,0.3,2.1,0.9c0.6,0.8,0.9,1.8,0.8,2.8v5.4h-2
		V212c0.1-0.6-0.1-1.1-0.4-1.6c-0.3-0.3-0.7-0.5-1.2-0.5c-0.4,0-0.8,0.1-1.1,0.3c-0.3,0.2-0.5,0.6-0.6,0.9c0,0.1,0,0.2,0,0.2
		s0,0.1,0,0.2v5.8h-2V212c0-0.6-0.1-1.1-0.4-1.6c-0.3-0.3-0.7-0.5-1.2-0.5c-0.4,0-0.7,0.1-1,0.2c-0.3,0.2-0.5,0.4-0.7,0.7v6.6h-2v-9
		L280.1,208.4z"/>
	<path class="st4" d="M250.4,374.9h-4.2l-0.8,2.6h-2.4l4.2-12.1h2.5l4.1,12.1h-2.4L250.4,374.9z M246.8,373h3l-1.5-4.7h-0.1
		L246.8,373z"/>
	<path class="st4" d="M261.4,374.3c0-0.4-0.2-0.8-0.5-1.1c-0.5-0.4-1.1-0.6-1.7-0.8c-1.2-0.3-2.3-0.8-3.3-1.5
		c-0.7-0.6-1.1-1.4-1.1-2.3c0-1,0.5-1.9,1.3-2.4c0.9-0.7,2.1-1,3.2-0.9c1.2-0.1,2.3,0.3,3.2,1.1c0.8,0.6,1.2,1.6,1.2,2.6l0,0.1h-2.3
		c0-0.5-0.2-1-0.6-1.4c-0.4-0.4-1-0.6-1.6-0.5c-0.5,0-1.1,0.1-1.5,0.4c-0.3,0.3-0.5,0.7-0.5,1.1c0,0.4,0.2,0.8,0.6,1
		c0.6,0.4,1.3,0.6,2,0.8c1.1,0.3,2.1,0.8,3,1.5c0.7,0.6,1.1,1.5,1,2.4c0,1-0.4,1.9-1.2,2.4c-1,0.6-2.1,1-3.2,0.9
		c-1.2,0-2.4-0.3-3.4-1c-1-0.6-1.5-1.7-1.4-2.9l0-0.1h2.4c-0.1,0.6,0.2,1.2,0.7,1.6c0.5,0.4,1.2,0.5,1.8,0.5c0.5,0,1.1-0.1,1.5-0.4
		C261.2,375.2,261.4,374.8,261.4,374.3z"/>
	<path class="st4" d="M268.2,377.5h-2.4v-12.1h2.4V377.5z"/>
	<path class="st4" d="M279.7,373.4L279.7,373.4c0.1,1.2-0.3,2.3-1.2,3.1c-0.9,0.8-2.2,1.2-3.4,1.1c-1.3,0.1-2.6-0.5-3.5-1.4
		c-0.9-1-1.4-2.3-1.4-3.6v-2.4c-0.1-1.3,0.4-2.6,1.3-3.6c0.9-0.9,2.2-1.5,3.5-1.4c1.3-0.1,2.5,0.3,3.5,1.1c0.9,0.8,1.3,2,1.2,3.1
		l0,0h-2.4c0-0.7-0.2-1.3-0.6-1.8c-0.5-0.5-1.1-0.7-1.8-0.6c-0.7,0-1.3,0.3-1.7,0.9c-0.4,0.7-0.7,1.5-0.6,2.3v2.4
		c0,0.8,0.2,1.6,0.7,2.3c0.4,0.6,1.1,0.9,1.8,0.9c0.6,0.1,1.2-0.2,1.7-0.6c0.4-0.5,0.6-1.2,0.5-1.8L279.7,373.4z"/>
	<g class="st5">
		<path class="st4" d="M241.3,389.8v3.1h-1.6v-7.8h2.9c0.7,0,1.5,0.2,2.1,0.6c0.5,0.4,0.8,1,0.8,1.7c0,0.4-0.1,0.7-0.3,1
			c-0.2,0.3-0.6,0.6-0.9,0.7c0.4,0.1,0.8,0.3,1,0.7c0.2,0.4,0.3,0.8,0.3,1.2v0.6c0,0.2,0,0.5,0.1,0.7c0,0.2,0.1,0.4,0.3,0.5v0.1
			h-1.6c-0.2-0.1-0.3-0.4-0.3-0.6c0-0.3-0.1-0.5-0.1-0.8V391c0-0.3-0.1-0.7-0.3-0.9c-0.2-0.2-0.6-0.3-0.9-0.3L241.3,389.8z
			 M241.3,388.6h1.4c0.4,0,0.7-0.1,1-0.3c0.2-0.2,0.3-0.5,0.3-0.8c0-0.3-0.1-0.6-0.3-0.9c-0.3-0.2-0.6-0.3-1-0.3h-1.4L241.3,388.6z"
			/>
		<path class="st4" d="M248.7,392.9h-1.6v-7.8h1.6V392.9z"/>
		<path class="st4" d="M254.4,390.9c0-0.3-0.1-0.5-0.3-0.7c-0.3-0.2-0.7-0.4-1.1-0.5c-0.8-0.2-1.5-0.5-2.1-1
			c-0.5-0.4-0.7-0.9-0.7-1.5c0-0.6,0.3-1.2,0.8-1.6c0.6-0.4,1.3-0.6,2.1-0.6c0.8,0,1.5,0.2,2.1,0.7c0.5,0.4,0.8,1,0.8,1.7l0,0h-1.5
			c0-0.3-0.1-0.7-0.4-0.9c-0.3-0.2-0.6-0.4-1-0.3c-0.3,0-0.7,0.1-1,0.3c-0.2,0.2-0.3,0.4-0.3,0.7c0,0.3,0.1,0.5,0.4,0.7
			c0.4,0.2,0.8,0.4,1.3,0.5c0.7,0.2,1.4,0.5,2,1c0.4,0.4,0.7,1,0.7,1.6c0,0.6-0.3,1.2-0.8,1.6c-0.6,0.4-1.4,0.6-2.1,0.6
			c-0.8,0-1.6-0.2-2.2-0.7c-0.6-0.4-1-1.1-0.9-1.8l0,0h1.5c0,0.4,0.1,0.8,0.4,1c0.4,0.2,0.8,0.4,1.2,0.3c0.3,0,0.7-0.1,1-0.3
			C254.3,391.4,254.5,391.2,254.4,390.9z"/>
		<path class="st4" d="M263.1,390.3L263.1,390.3c0.1,0.8-0.2,1.5-0.8,2c-0.6,0.5-1.4,0.8-2.2,0.7c-0.9,0-1.7-0.3-2.3-0.9
			c-0.6-0.6-0.9-1.5-0.9-2.3v-1.6c0-0.9,0.3-1.7,0.9-2.3c0.6-0.6,1.4-0.9,2.2-0.9c0.8,0,1.6,0.2,2.3,0.7c0.6,0.5,0.8,1.3,0.8,2l0,0
			h-1.5c0-0.4-0.1-0.9-0.4-1.2c-0.3-0.3-0.7-0.4-1.2-0.4c-0.4,0-0.9,0.2-1.1,0.6c-0.3,0.4-0.4,0.9-0.4,1.5v1.6c0,0.5,0.1,1,0.4,1.5
			c0.3,0.4,0.7,0.6,1.2,0.6c0.4,0,0.8-0.1,1.1-0.4c0.3-0.3,0.4-0.8,0.4-1.2H263.1z"/>
		<path class="st4" d="M264,389c0-1.1,0.4-2.1,1.1-2.9c1.4-1.5,3.8-1.6,5.3-0.1c0,0,0.1,0.1,0.1,0.1c1.5,1.6,1.5,4.1,0,5.7
			c-1.4,1.5-3.7,1.6-5.2,0.2c-0.1-0.1-0.1-0.1-0.2-0.2C264.3,391.1,263.9,390.1,264,389z M264.6,389c0,0.9,0.3,1.7,0.9,2.4
			c1.2,1.2,3.1,1.3,4.3,0.1c0,0,0.1-0.1,0.1-0.1c1.2-1.4,1.2-3.4,0-4.8c-1.2-1.2-3.1-1.3-4.3-0.1c0,0-0.1,0.1-0.1,0.1
			C264.9,387.3,264.6,388.1,264.6,389L264.6,389z M267,389.4v1.8h-0.8v-4.6h1.5c0.5,0,0.9,0.1,1.3,0.4c0.3,0.3,0.5,0.6,0.5,1
			c0,0.2,0,0.4-0.2,0.5c-0.1,0.2-0.3,0.3-0.5,0.4c0.2,0.1,0.4,0.3,0.5,0.5c0.1,0.2,0.1,0.5,0.1,0.7v0.3c0,0.1,0,0.3,0,0.4
			c0,0.1,0,0.2,0.1,0.3v0.1h-0.8c0-0.1-0.1-0.2-0.1-0.3c0-0.1,0-0.3,0-0.4v-0.3c0-0.2,0-0.4-0.2-0.6c-0.2-0.1-0.4-0.2-0.6-0.2
			L267,389.4z M267,388.7h0.7c0.2,0,0.5,0,0.6-0.2c0.2-0.1,0.3-0.3,0.3-0.5c0-0.2-0.1-0.4-0.2-0.5c-0.2-0.1-0.5-0.2-0.7-0.2H267
			V388.7z"/>
		<path class="st4" d="M275.8,390.2h-3V389h3V390.2z"/>
		<path class="st4" d="M279.8,390.8l0.1,0.4h0l0.1-0.4l1.7-5.8h1.7l-2.7,7.8h-1.6l-2.7-7.8h1.7L279.8,390.8z"/>
	</g>
</g>
<g id="a5dad8dc-f94f-4963-a0cc-9e1815f7f440">
	
		<linearGradient id="SVGID_1_" gradientUnits="userSpaceOnUse" x1="580.7027" y1="198.1362" x2="714.7027" y2="198.1362" gradientTransform="matrix(1 0 0 -1 0 463.1181)">
		<stop  offset="0" style="stop-color:#2A327F"/>
		<stop  offset="1" style="stop-color:#642584"/>
	</linearGradient>
	<path class="st6" d="M589,108.6h117.3c4.6,0,8.3,3.7,8.3,8.3v296c0,4.6-3.7,8.3-8.3,8.3H589c-4.6,0-8.3-3.7-8.3-8.3V117
		C580.7,112.4,584.4,108.6,589,108.6z"/>
	<circle class="st3" cx="647.4" cy="310" r="33.4"/>
	<path class="st4" d="M627.3,141.6l3.1,8.9h0l3.1-8.9h3.2v12.1h-2.4V150l0.2-5.3l0,0l-3.2,8.9h-1.6l-3.2-8.9l0,0l0.2,5.3v3.6h-2.4
		v-12.1H627.3z"/>
	<path class="st4" d="M644.1,153.6c-0.1-0.2-0.2-0.4-0.2-0.6c-0.1-0.2-0.1-0.5-0.1-0.7c-0.2,0.4-0.6,0.8-1,1.1
		c-0.4,0.3-0.9,0.4-1.5,0.4c-0.8,0.1-1.6-0.2-2.2-0.7c-0.5-0.5-0.8-1.2-0.8-2c0-0.8,0.3-1.6,1-2c0.9-0.5,1.9-0.8,3-0.7h1.4v-0.7
		c0-0.4-0.1-0.7-0.3-1c-0.6-0.4-1.3-0.5-1.9-0.1c-0.2,0.2-0.3,0.5-0.3,0.8l-2.3,0l0-0.1c0-0.8,0.3-1.5,1-2c0.8-0.6,1.8-0.9,2.7-0.8
		c0.9,0,1.9,0.2,2.6,0.8c0.7,0.6,1.1,1.4,1,2.3v3.7c0,0.4,0,0.8,0.1,1.2c0.1,0.4,0.2,0.7,0.3,1.1L644.1,153.6z M641.9,152
		c0.4,0,0.8-0.1,1.1-0.3c0.3-0.2,0.5-0.4,0.7-0.7v-1.3h-1.4c-0.4,0-0.8,0.1-1.2,0.4c-0.3,0.2-0.4,0.6-0.4,0.9c0,0.3,0.1,0.5,0.3,0.7
		C641.3,151.9,641.6,152,641.9,152L641.9,152z"/>
	<path class="st4" d="M650.8,142.5v2.2h1.5v1.7h-1.5v4.6c0,0.3,0.1,0.5,0.2,0.7c0.2,0.2,0.4,0.2,0.6,0.2c0.1,0,0.2,0,0.3,0
		c0.1,0,0.2,0,0.3-0.1l0.2,1.8c-0.2,0.1-0.5,0.1-0.7,0.2c-0.2,0-0.5,0.1-0.8,0.1c-0.7,0-1.4-0.2-1.9-0.7c-0.5-0.6-0.7-1.4-0.7-2.2
		v-4.6h-1.3v-1.7h1.3v-2.2L650.8,142.5z"/>
	<path class="st4" d="M658.6,146.8l-0.9,0c-0.3,0-0.6,0.1-0.9,0.2c-0.2,0.2-0.4,0.4-0.5,0.6v6.1h-2.4v-9h2.2l0.1,1.3
		c0.2-0.4,0.5-0.8,0.8-1.1c0.3-0.3,0.7-0.4,1.2-0.4c0.1,0,0.2,0,0.3,0c0.1,0,0.2,0,0.3,0.1L658.6,146.8z"/>
	<path class="st4" d="M662.4,142.5h-2.4v-1.8h2.4V142.5z M662.4,153.6h-2.4v-9h2.4V153.6z"/>
	<path class="st4" d="M667.7,147.5L667.7,147.5l1.4-2.9h2.7l-2.7,4.4l2.8,4.5h-2.7l-1.5-3l-1.5,3h-2.7l2.8-4.5l-2.7-4.4h2.7
		L667.7,147.5z"/>
	<path class="st4" d="M636.8,374.9h-4.2l-0.8,2.6h-2.4l4.2-12.1h2.5l4.1,12.1h-2.4L636.8,374.9z M633.2,373h3l-1.5-4.7h0L633.2,373z
		"/>
	<path class="st4" d="M647.7,374.3c0-0.4-0.2-0.8-0.5-1.1c-0.5-0.4-1.1-0.6-1.7-0.8c-1.2-0.3-2.3-0.8-3.3-1.5
		c-0.7-0.6-1.1-1.4-1.1-2.3c0-1,0.5-1.9,1.3-2.4c0.9-0.7,2.1-1,3.2-0.9c1.2-0.1,2.3,0.3,3.2,1.1c0.8,0.6,1.2,1.6,1.2,2.6l0,0.1h-2.3
		c0-0.5-0.2-1-0.6-1.4c-0.4-0.4-1-0.6-1.6-0.5c-0.5,0-1.1,0.1-1.5,0.4c-0.3,0.3-0.5,0.7-0.5,1.1c0,0.4,0.2,0.8,0.6,1
		c0.6,0.4,1.3,0.6,2,0.8c1.1,0.3,2.1,0.8,3,1.5c0.7,0.6,1.1,1.5,1,2.4c0,1-0.4,1.9-1.2,2.4c-1,0.6-2.1,1-3.2,0.9
		c-1.2,0-2.4-0.3-3.4-1c-1-0.6-1.5-1.7-1.4-2.9l0-0.1h2.4c-0.1,0.6,0.2,1.2,0.7,1.6c0.5,0.4,1.2,0.5,1.8,0.5c0.5,0,1.1-0.1,1.5-0.4
		C647.6,375.2,647.8,374.8,647.7,374.3z"/>
	<path class="st4" d="M654.6,377.5h-2.4v-12.1h2.4V377.5z"/>
	<path class="st4" d="M666.1,373.4L666.1,373.4c0.1,1.2-0.3,2.3-1.2,3.1c-0.9,0.8-2.2,1.2-3.4,1.1c-1.3,0.1-2.6-0.5-3.5-1.4
		c-0.9-1-1.4-2.3-1.4-3.6v-2.4c-0.1-1.3,0.4-2.6,1.3-3.6c0.9-0.9,2.2-1.5,3.5-1.4c1.3-0.1,2.5,0.3,3.5,1.1c0.9,0.8,1.3,2,1.2,3.1
		l0,0h-2.4c0-0.7-0.2-1.3-0.6-1.8c-0.5-0.5-1.1-0.7-1.8-0.6c-0.7,0-1.3,0.3-1.7,0.9c-0.4,0.7-0.7,1.5-0.6,2.3v2.4
		c0,0.8,0.2,1.6,0.7,2.3c0.4,0.6,1.1,0.9,1.8,0.9c0.6,0.1,1.2-0.2,1.7-0.6c0.4-0.5,0.6-1.2,0.5-1.8L666.1,373.4z"/>
	<g class="st5">
		<path class="st4" d="M627.8,390.1v3.1h-1.6v-7.8h2.9c0.7,0,1.5,0.2,2.1,0.6c0.5,0.4,0.8,1,0.8,1.7c0,0.4-0.1,0.7-0.3,1
			c-0.2,0.3-0.6,0.6-0.9,0.7c0.4,0.1,0.8,0.3,1,0.7c0.2,0.4,0.3,0.8,0.3,1.2v0.6c0,0.2,0,0.5,0.1,0.7c0,0.2,0.1,0.4,0.3,0.5v0.1
			h-1.6c-0.2-0.1-0.3-0.4-0.3-0.6c0-0.3-0.1-0.5-0.1-0.8v-0.6c0-0.3-0.1-0.7-0.3-0.9c-0.2-0.2-0.6-0.3-0.9-0.3L627.8,390.1z
			 M627.8,388.9h1.4c0.4,0,0.7-0.1,1-0.3c0.2-0.2,0.3-0.5,0.3-0.8c0-0.3-0.1-0.6-0.3-0.9c-0.3-0.2-0.6-0.3-1-0.3h-1.4L627.8,388.9z"
			/>
		<path class="st4" d="M635.2,393.2h-1.6v-7.8h1.6V393.2z"/>
		<path class="st4" d="M641,391.2c0-0.3-0.1-0.5-0.3-0.7c-0.3-0.2-0.7-0.4-1.1-0.5c-0.8-0.2-1.5-0.5-2.1-1c-0.5-0.4-0.7-0.9-0.7-1.5
			c0-0.6,0.3-1.2,0.8-1.6c0.6-0.4,1.3-0.6,2.1-0.6c0.8,0,1.5,0.2,2.1,0.7c0.5,0.4,0.8,1,0.8,1.7l0,0H641c0-0.3-0.1-0.7-0.4-0.9
			c-0.3-0.2-0.6-0.4-1-0.3c-0.3,0-0.7,0.1-1,0.3c-0.2,0.2-0.3,0.4-0.3,0.7c0,0.3,0.1,0.5,0.4,0.7c0.4,0.2,0.8,0.4,1.3,0.5
			c0.7,0.2,1.4,0.5,2,1c0.4,0.4,0.7,1,0.7,1.6c0,0.6-0.3,1.2-0.8,1.6c-0.6,0.4-1.4,0.6-2.1,0.6c-0.8,0-1.6-0.2-2.2-0.7
			c-0.6-0.4-1-1.1-0.9-1.8l0,0h1.5c0,0.4,0.1,0.8,0.4,1c0.4,0.2,0.8,0.4,1.2,0.3c0.3,0,0.7-0.1,1-0.3
			C640.9,391.7,641,391.5,641,391.2z"/>
		<path class="st4" d="M649.6,390.6L649.6,390.6c0.1,0.8-0.2,1.5-0.8,2c-0.6,0.5-1.4,0.8-2.2,0.7c-0.9,0-1.7-0.3-2.3-0.9
			c-0.6-0.6-0.9-1.5-0.9-2.3v-1.6c0-0.9,0.3-1.7,0.9-2.3c0.6-0.6,1.4-0.9,2.2-0.9c0.8,0,1.6,0.2,2.3,0.7c0.6,0.5,0.8,1.3,0.8,2l0,0
			h-1.5c0-0.4-0.1-0.9-0.4-1.2c-0.3-0.3-0.7-0.4-1.2-0.4c-0.4,0-0.9,0.2-1.1,0.6c-0.3,0.4-0.4,0.9-0.4,1.5v1.6c0,0.5,0.1,1,0.4,1.5
			c0.3,0.4,0.7,0.6,1.2,0.6c0.4,0,0.8-0.1,1.1-0.4c0.3-0.3,0.4-0.8,0.4-1.2L649.6,390.6z"/>
		<path class="st4" d="M650.5,389.3c0-1.1,0.4-2.1,1.1-2.9c1.4-1.5,3.8-1.6,5.3-0.1c0,0,0.1,0.1,0.1,0.1c1.5,1.6,1.5,4.1,0,5.7
			c-1.4,1.5-3.7,1.6-5.2,0.2c-0.1-0.1-0.1-0.1-0.2-0.2C650.9,391.4,650.5,390.4,650.5,389.3z M651.2,389.3c0,0.9,0.3,1.7,0.9,2.4
			c1.2,1.2,3.1,1.3,4.3,0.1c0,0,0.1-0.1,0.1-0.1c1.2-1.4,1.2-3.4,0-4.8c-1.2-1.2-3.1-1.3-4.3-0.1c0,0-0.1,0.1-0.1,0.1
			C651.5,387.6,651.1,388.5,651.2,389.3z M653.5,389.7v1.8h-0.8V387h1.5c0.5,0,0.9,0.1,1.3,0.4c0.3,0.3,0.5,0.6,0.5,1
			c0,0.2,0,0.4-0.2,0.5c-0.1,0.2-0.3,0.3-0.5,0.4c0.2,0.1,0.4,0.3,0.5,0.5c0.1,0.2,0.1,0.5,0.1,0.7v0.3c0,0.1,0,0.3,0,0.4
			c0,0.1,0,0.2,0.1,0.3v0.1h-0.8c0-0.1-0.1-0.2-0.1-0.3c0-0.1,0-0.3,0-0.4v-0.3c0-0.2,0-0.4-0.2-0.6c-0.2-0.1-0.4-0.2-0.6-0.2
			L653.5,389.7z M653.5,389h0.7c0.2,0,0.5,0,0.6-0.2c0.2-0.1,0.3-0.3,0.3-0.5c0-0.2-0.1-0.4-0.2-0.5c-0.2-0.1-0.5-0.2-0.7-0.2h-0.7
			V389z"/>
		<path class="st4" d="M662.3,390.5h-3v-1.2h3V390.5z"/>
		<path class="st4" d="M666.4,391.2l0.1,0.4h0l0.1-0.4l1.7-5.8h1.7l-2.7,7.8h-1.6l-2.7-7.8h1.7L666.4,391.2z"/>
	</g>
</g>
<g id="a590f20b-c8d7-488e-a16c-f5cfcfd13da7">
	
		<linearGradient id="SVGID_00000062185066552801396240000012639793567520113570_" gradientUnits="userSpaceOnUse" x1="505.7027" y1="41.8028" x2="505.7027" y2="354.4695" gradientTransform="matrix(1 0 0 -1 0 463.1181)">
		<stop  offset="0" style="stop-color:#2A327F"/>
		<stop  offset="1" style="stop-color:#642584"/>
	</linearGradient>
	<path style="fill:url(#SVGID_00000062185066552801396240000012639793567520113570_);" d="M447,108.6h117.3c4.6,0,8.3,3.7,8.3,8.3
		v296c0,4.6-3.7,8.3-8.3,8.3H447c-4.6,0-8.3-3.7-8.3-8.3V117C438.7,112.4,442.4,108.6,447,108.6z"/>
	<circle class="st3" cx="505.4" cy="310" r="33.4"/>
	<path class="st4" d="M486.3,150.4l0.1,0.7h0l0.1-0.6l2.6-8.9h2.6l-4.1,12.1h-2.5l-4.1-12.1h2.6L486.3,150.4z"/>
	<path class="st4" d="M496.3,153.8c-1.2,0.1-2.3-0.4-3.1-1.2c-0.8-0.9-1.2-2-1.2-3.2v-0.3c0-1.2,0.3-2.4,1.1-3.3
		c1.5-1.6,4.1-1.7,5.8-0.2c0.7,0.8,1.1,1.9,1,3v1.3h-5.4l0,0c0,0.5,0.2,1.1,0.6,1.5c0.4,0.4,0.9,0.6,1.4,0.6c0.5,0,0.9,0,1.3-0.2
		c0.4-0.1,0.8-0.3,1.2-0.5l0.7,1.5c-0.4,0.3-0.9,0.6-1.4,0.7C497.7,153.7,497,153.8,496.3,153.8z M496.1,146.4
		c-0.4,0-0.8,0.2-1.1,0.5c-0.3,0.4-0.4,0.9-0.5,1.4l0,0h3v-0.2c0-0.4-0.1-0.9-0.4-1.2C496.9,146.5,496.5,146.3,496.1,146.4
		L496.1,146.4z"/>
	<path class="st4" d="M505.1,152c0.4,0,0.8-0.1,1-0.4c0.3-0.3,0.4-0.6,0.4-1h2.2l0,0.1c0,0.9-0.3,1.7-1,2.3
		c-1.7,1.3-4.2,1.2-5.7-0.4c-0.7-0.9-1.1-2.1-1.1-3.3V149c0-1.2,0.3-2.3,1.1-3.3c0.8-0.9,1.9-1.3,3.1-1.3c1,0,1.9,0.3,2.7,0.9
		c0.7,0.6,1,1.6,1,2.5l0,0.1h-2.2c0-0.4-0.1-0.8-0.4-1.2c-0.3-0.3-0.7-0.5-1.1-0.5c-0.6,0-1.1,0.2-1.4,0.7c-0.3,0.6-0.4,1.3-0.4,1.9
		v0.2c0,0.7,0.1,1.3,0.4,1.9C504,151.7,504.6,152,505.1,152z"/>
	<path class="st4" d="M513,142.5v2.2h1.5v1.7H513v4.6c0,0.3,0.1,0.5,0.2,0.7c0.2,0.2,0.4,0.2,0.6,0.2c0.1,0,0.2,0,0.3,0
		c0.1,0,0.2,0,0.3-0.1l0.2,1.8c-0.2,0.1-0.5,0.1-0.7,0.2c-0.2,0-0.5,0.1-0.8,0.1c-0.7,0-1.4-0.2-1.9-0.7c-0.5-0.6-0.7-1.4-0.7-2.2
		v-4.6h-1.3v-1.7h1.3v-2.2L513,142.5z"/>
	<path class="st4" d="M515.7,149.1c0-1.2,0.4-2.4,1.1-3.3c0.8-0.9,1.9-1.3,3.1-1.3c1.2-0.1,2.3,0.4,3.1,1.3c0.8,0.9,1.2,2.1,1.1,3.3
		v0.2c0.1,1.2-0.3,2.4-1.1,3.3c-1.7,1.7-4.5,1.7-6.2,0c-0.8-0.9-1.2-2.1-1.1-3.3V149.1z M518.1,149.2c0,0.7,0.1,1.4,0.4,2
		c0.5,0.8,1.5,1,2.3,0.5c0.2-0.1,0.3-0.3,0.5-0.5c0.3-0.6,0.5-1.3,0.4-2v-0.2c0-0.7-0.1-1.3-0.4-1.9c-0.3-0.5-0.8-0.8-1.4-0.8
		c-0.6,0-1.1,0.3-1.4,0.8c-0.3,0.6-0.5,1.3-0.4,1.9L518.1,149.2z"/>
	<path class="st4" d="M530.4,146.8l-0.9,0c-0.3,0-0.6,0.1-0.9,0.2c-0.2,0.2-0.4,0.4-0.5,0.6v6.1h-2.4v-9h2.2l0.1,1.3
		c0.2-0.4,0.5-0.8,0.8-1.1c0.3-0.3,0.7-0.4,1.2-0.4c0.1,0,0.2,0,0.3,0c0.1,0,0.2,0,0.3,0.1L530.4,146.8z"/>
	<path class="st4" d="M499.9,375.8c-0.5,0.5-1,1-1.7,1.3c-0.9,0.4-1.9,0.6-2.9,0.6c-1.3,0.1-2.6-0.4-3.6-1.4
		c-0.9-0.9-1.5-2.2-1.4-3.6v-2.5c-0.1-1.3,0.4-2.6,1.3-3.6c0.9-0.9,2.2-1.4,3.5-1.4c1.2-0.1,2.4,0.3,3.4,1.1
		c0.8,0.7,1.2,1.8,1.2,2.8l0,0.1h-2.3c0-0.6-0.2-1.1-0.6-1.5c-0.4-0.4-1-0.6-1.6-0.6c-0.7,0-1.4,0.3-1.8,0.9
		c-0.5,0.6-0.7,1.4-0.7,2.2v2.5c0,0.8,0.2,1.6,0.7,2.2c0.5,0.6,1.2,0.9,1.9,0.9c0.5,0,0.9,0,1.4-0.2c0.3-0.1,0.6-0.2,0.8-0.4V373
		h-2.1v-1.7h4.6L499.9,375.8z"/>
	<path class="st4" d="M504.5,373.1v4.4H502v-12.1h4.8c1.2-0.1,2.4,0.3,3.3,1.1c1.5,1.5,1.6,3.9,0.1,5.5c0,0-0.1,0.1-0.1,0.1
		c-0.9,0.7-2.1,1.1-3.3,1.1H504.5z M504.5,371.2h2.4c0.6,0,1.1-0.2,1.5-0.6c0.4-0.4,0.5-0.9,0.5-1.4c0-0.5-0.2-1-0.5-1.4
		c-0.4-0.4-1-0.6-1.5-0.6h-2.4L504.5,371.2z"/>
	<path class="st4" d="M522.7,365.4v8c0.1,1.2-0.4,2.4-1.3,3.1c-1,0.8-2.3,1.2-3.5,1.1c-1.3,0.1-2.5-0.3-3.5-1.1
		c-0.9-0.8-1.4-1.9-1.3-3.1v-8h2.4v8c-0.1,0.7,0.2,1.3,0.6,1.8c0.5,0.4,1.1,0.6,1.8,0.6c0.6,0,1.3-0.2,1.8-0.6
		c0.5-0.5,0.7-1.1,0.6-1.8v-8L522.7,365.4z"/>
	<path class="st8" d="M450.2,186.1h250.9c3.1,0,5.6,2.5,5.6,5.6v38c0,3.1-2.5,5.6-5.6,5.6H450.2c-3.1,0-5.6-2.5-5.6-5.6v-38
		C444.5,188.7,447.1,186.1,450.2,186.1z"/>
	<path class="st4" d="M565.2,214.3c0-0.5-0.2-0.9-0.6-1.2c-0.6-0.4-1.3-0.7-2-0.9c-1.1-0.2-2.2-0.7-3.1-1.4
		c-0.7-0.5-1.1-1.4-1.1-2.3c0-1,0.4-1.8,1.2-2.4c0.9-0.7,2-1,3.1-0.9c1.2-0.1,2.3,0.3,3.2,1.1c0.8,0.6,1.2,1.6,1.2,2.6l0,0.1h-1.9
		c0-0.6-0.2-1.1-0.6-1.5c-0.5-0.4-1.1-0.6-1.8-0.6c-0.6,0-1.2,0.1-1.7,0.5c-0.4,0.3-0.6,0.8-0.6,1.2c0,0.5,0.2,0.9,0.6,1.1
		c0.7,0.4,1.4,0.7,2.1,0.9c1.1,0.2,2.1,0.7,3,1.4c0.7,0.6,1,1.5,1,2.3c0,1-0.4,1.9-1.2,2.4c-0.9,0.6-2,0.9-3.2,0.9
		c-1.2,0-2.3-0.3-3.3-1c-0.9-0.6-1.4-1.7-1.4-2.8l0-0.1h1.9c0,0.6,0.2,1.3,0.8,1.6c0.6,0.4,1.3,0.6,2,0.5c0.6,0,1.2-0.1,1.7-0.4
		C564.9,215.2,565.2,214.8,565.2,214.3z"/>
	<path class="st4" d="M573.2,211.2l2.9-5.9h2.2l-4.2,7.8v4.2h-2V213l-4.1-7.7h2.2L573.2,211.2z"/>
	<path class="st4" d="M588.4,213.4L588.4,213.4c0.1,1.2-0.4,2.3-1.2,3c-0.9,0.8-2.1,1.2-3.3,1.1c-1.3,0-2.6-0.5-3.4-1.4
		c-0.9-1-1.4-2.3-1.3-3.6v-2.3c0-1.3,0.4-2.6,1.3-3.6c0.9-1,2.1-1.5,3.4-1.4c1.2-0.1,2.4,0.3,3.4,1.1c0.8,0.8,1.3,1.9,1.2,3l0,0.1
		h-2c0.1-1.3-0.8-2.4-2.1-2.6c-0.2,0-0.4,0-0.5,0c-0.8,0-1.5,0.3-2,1c-0.5,0.7-0.8,1.6-0.7,2.5v2.3c0,0.9,0.2,1.8,0.7,2.5
		c0.5,0.6,1.2,1,2,1c0.7,0.1,1.4-0.2,1.9-0.7c0.5-0.5,0.7-1.2,0.6-1.9L588.4,213.4z"/>
	<path class="st4" d="M592.4,215.8h5.6v1.6h-7.6v-12.1h2L592.4,215.8z"/>
	<path class="st4" d="M602.3,206.1h-1.1v3.7h-1v-3.7h-1.1v-0.8h3.2L602.3,206.1z M606.7,207.2L606.7,207.2l-1.1,2.6H605l-1.1-2.7
		l0,0v2.7H603v-4.5h1.1l1.2,3.1h0l1.2-3.1h1.1v4.5h-0.9L606.7,207.2z"/>
	<g class="st9">
		<path class="st4" d="M463,391.1h-2.8l-0.5,1.6h-1.7l2.9-7.8h1.5l2.9,7.8h-1.7L463,391.1z M460.6,389.8h2l-1-2.9L460.6,389.8z"/>
		<path class="st4" d="M468.1,384.9l2,5.7l2-5.7h2.1v7.8h-1.6v-2.1l0.2-3.7l-2.1,5.8h-1.1l-2.1-5.8l0.2,3.7v2.1H466v-7.8H468.1z"/>
		<path class="st4" d="M475.6,392.7v-7.8h2.4c0.7,0,1.3,0.2,1.8,0.5c0.5,0.3,1,0.8,1.3,1.3s0.5,1.2,0.5,1.9v0.4
			c0,0.7-0.1,1.4-0.4,1.9c-0.3,0.6-0.7,1-1.3,1.3s-1.2,0.5-1.8,0.5H475.6z M477.2,386.2v5.2h0.8c0.6,0,1.1-0.2,1.4-0.6
			s0.5-1,0.5-1.8v-0.4c0-0.8-0.2-1.4-0.5-1.8c-0.3-0.4-0.8-0.6-1.4-0.6H477.2z"/>
		<path class="st4" d="M482.4,394.7l-0.8-0.4l0.2-0.3c0.2-0.4,0.4-0.9,0.4-1.3v-1.2h1.3l0,1.1c0,0.4-0.1,0.8-0.3,1.2
			C483,394.1,482.7,394.4,482.4,394.7z"/>
		<path class="st4" d="M489.2,392.7h-1.6v-7.8h1.6V392.7z"/>
		<path class="st4" d="M492.1,386.9l0,0.7c0.4-0.5,1-0.8,1.7-0.8c0.6,0,1.1,0.2,1.4,0.5c0.3,0.4,0.5,0.9,0.5,1.6v3.8h-1.6V389
			c0-0.3-0.1-0.6-0.2-0.7s-0.4-0.2-0.7-0.2c-0.4,0-0.8,0.2-1,0.6v4.1h-1.6v-5.8H492.1z"/>
		<path class="st4" d="M498.6,385.5v1.4h1v1.1h-1v2.9c0,0.2,0,0.4,0.1,0.5s0.2,0.1,0.5,0.1c0.2,0,0.3,0,0.5,0v1.2
			c-0.3,0.1-0.6,0.1-0.9,0.1c-1.1,0-1.6-0.5-1.7-1.6V388h-0.8v-1.1h0.8v-1.4H498.6z"/>
		<path class="st4" d="M503.2,392.8c-0.9,0-1.5-0.3-2.1-0.8s-0.8-1.2-0.8-2.1v-0.2c0-0.6,0.1-1.1,0.3-1.6c0.2-0.5,0.5-0.8,1-1.1
			c0.4-0.2,0.9-0.4,1.4-0.4c0.8,0,1.4,0.3,1.9,0.8c0.5,0.5,0.7,1.2,0.7,2.1v0.6h-3.7c0,0.4,0.2,0.7,0.5,0.9c0.3,0.2,0.6,0.3,1,0.3
			c0.6,0,1.1-0.2,1.4-0.6l0.8,0.9c-0.2,0.3-0.5,0.6-0.9,0.8C504.1,392.7,503.7,392.8,503.2,392.8z M503,388c-0.3,0-0.6,0.1-0.7,0.3
			s-0.3,0.5-0.4,0.9h2.2v-0.1c0-0.3-0.1-0.6-0.3-0.8C503.6,388.1,503.3,388,503,388z"/>
		<path class="st4" d="M508.1,392.7h-1.6v-8.2h1.6V392.7z"/>
		<path class="st4" d="M511.9,390.6c0-0.4,0.1-0.7,0.3-1c0.2-0.3,0.6-0.7,1.1-1c-0.2-0.3-0.4-0.6-0.5-0.9c-0.1-0.3-0.2-0.6-0.2-0.9
			c0-0.6,0.2-1.1,0.6-1.5c0.4-0.4,0.9-0.6,1.6-0.6c0.6,0,1.1,0.2,1.4,0.5c0.4,0.3,0.6,0.8,0.6,1.3c0,0.6-0.3,1.2-0.9,1.6l-0.6,0.4
			l1.3,1.6c0.2-0.4,0.3-0.9,0.3-1.4h1.3c0,1-0.2,1.8-0.7,2.5l1.2,1.4h-1.8l-0.4-0.5c-0.6,0.4-1.2,0.6-2,0.6c-0.8,0-1.4-0.2-1.9-0.6
			C512.1,391.8,511.9,391.2,511.9,390.6z M514.5,391.5c0.4,0,0.7-0.1,1.1-0.3l-1.5-1.8l-0.1,0.1c-0.3,0.3-0.5,0.6-0.5,1
			c0,0.3,0.1,0.6,0.3,0.8C513.9,391.5,514.2,391.5,514.5,391.5z M514,386.8c0,0.3,0.2,0.6,0.5,1l0.4-0.3c0.2-0.1,0.4-0.3,0.4-0.4
			c0.1-0.1,0.1-0.3,0.1-0.5c0-0.2-0.1-0.3-0.2-0.5c-0.1-0.1-0.3-0.2-0.5-0.2c-0.2,0-0.4,0.1-0.5,0.2C514,386.4,514,386.6,514,386.8z
			"/>
		<path class="st4" d="M528.5,392.7h-1.6l-3.1-5.1v5.1h-1.6v-7.8h1.6l3.1,5.2v-5.2h1.6V392.7z"/>
		<path class="st4" d="M532.8,390.8l1.8-5.9h1.8l-2.7,7.8H532l-2.7-7.8h1.8L532.8,390.8z"/>
		<path class="st4" d="M538.8,392.7h-1.6v-7.8h1.6V392.7z"/>
		<path class="st4" d="M540.3,392.7v-7.8h2.4c0.7,0,1.3,0.2,1.8,0.5c0.5,0.3,1,0.8,1.3,1.3s0.5,1.2,0.5,1.9v0.4
			c0,0.7-0.1,1.4-0.4,1.9c-0.3,0.6-0.7,1-1.3,1.3s-1.2,0.5-1.8,0.5H540.3z M541.9,386.2v5.2h0.8c0.6,0,1.1-0.2,1.4-0.6
			s0.5-1,0.5-1.8v-0.4c0-0.8-0.2-1.4-0.5-1.8c-0.3-0.4-0.8-0.6-1.4-0.6H541.9z"/>
		<path class="st4" d="M549.2,392.7h-1.6v-7.8h1.6V392.7z"/>
		<path class="st4" d="M555.2,391.1h-2.8l-0.5,1.6h-1.7l2.9-7.8h1.5l2.9,7.8h-1.7L555.2,391.1z M552.8,389.8h2l-1-2.9L552.8,389.8z"
			/>
	</g>
</g>
<g id="f0eb2972-4a5b-4c71-9bc9-5919c2319f2e">
	<polygon class="st10" points="384.2,250 413.2,274.5 384.2,299.5 384.2,287.5 361.2,287.5 361.2,264.5 383.7,264.5 	"/>
</g>
<g id="a949e2ca-5ba3-454f-8b46-7a1e4d01d1ab">
	<rect x="99.2" y="293.9" class="st4" width="2.2" height="32.2"/>
	<rect x="103.7" y="293.9" class="st4" width="2.2" height="32.2"/>
	<rect x="108.2" y="293.9" class="st4" width="2.2" height="32.2"/>
	<rect x="112.6" y="293.9" class="st4" width="2.2" height="32.2"/>
	<rect x="117.1" y="293.9" class="st4" width="2.2" height="32.2"/>
	<rect x="121.5" y="293.9" class="st4" width="2.2" height="32.2"/>
	<rect x="125.9" y="293.9" class="st4" width="2.2" height="32.2"/>
	<rect x="130.3" y="293.9" class="st4" width="2.2" height="32.2"/>
	<rect x="134.7" y="293.9" class="st4" width="2.2" height="32.2"/>
</g>
<g id="f361d136-e1cd-457f-8535-baaa039539c6">
	<rect x="486.9" y="294.9" class="st4" width="2.2" height="32.2"/>
	<rect x="491.4" y="294.9" class="st4" width="2.2" height="32.2"/>
	<rect x="495.8" y="294.9" class="st4" width="2.2" height="32.2"/>
	<rect x="500.2" y="294.9" class="st4" width="2.2" height="32.2"/>
	<rect x="504.7" y="294.9" class="st4" width="2.2" height="32.2"/>
	<rect x="509.1" y="294.9" class="st4" width="2.2" height="32.2"/>
	<rect x="513.5" y="294.9" class="st4" width="2.2" height="32.2"/>
	<rect x="518" y="294.9" class="st4" width="2.2" height="32.2"/>
	<rect x="522.4" y="294.9" class="st4" width="2.2" height="32.2"/>
</g>
<g id="a30d8ee7-85cd-4808-be7a-c330486248b3">
	<rect x="629.8" y="291.7" class="st11" width="6.4" height="6.4"/>
	<rect x="639.6" y="291.7" class="st11" width="6.4" height="6.4"/>
	<rect x="649.5" y="291.7" class="st11" width="6.4" height="6.4"/>
	<rect x="659.3" y="291.7" class="st11" width="6.4" height="6.4"/>
	<rect x="629.8" y="301.3" class="st11" width="6.4" height="6.4"/>
	<rect x="639.6" y="301.3" class="st11" width="6.4" height="6.4"/>
	<rect x="649.5" y="301.3" class="st11" width="6.4" height="6.4"/>
	<rect x="659.3" y="301.3" class="st11" width="6.4" height="6.4"/>
	<rect x="629.8" y="311" class="st11" width="6.4" height="6.4"/>
	<rect x="639.6" y="311" class="st11" width="6.4" height="6.4"/>
	<rect x="649.5" y="311" class="st11" width="6.4" height="6.4"/>
	<rect x="659.3" y="311" class="st11" width="6.4" height="6.4"/>
	<rect x="629.8" y="320.6" class="st11" width="6.4" height="6.4"/>
	<rect x="639.6" y="320.6" class="st11" width="6.4" height="6.4"/>
	<rect x="649.5" y="320.6" class="st11" width="6.4" height="6.4"/>
	<rect x="659.3" y="320.6" class="st11" width="6.4" height="6.4"/>
</g>
<g id="be7a75ed-df69-4d61-88ae-61e1c8a040dc">
	<rect x="244.2" y="292.4" class="st11" width="6.4" height="6.4"/>
	<rect x="254" y="292.4" class="st11" width="6.4" height="6.4"/>
	<rect x="263.9" y="292.4" class="st11" width="6.4" height="6.4"/>
	<rect x="273.7" y="292.4" class="st11" width="6.4" height="6.4"/>
	<rect x="244.2" y="302" class="st11" width="6.4" height="6.4"/>
	<rect x="254" y="302" class="st11" width="6.4" height="6.4"/>
	<rect x="263.9" y="302" class="st11" width="6.4" height="6.4"/>
	<rect x="273.7" y="302" class="st11" width="6.4" height="6.4"/>
	<rect x="244.2" y="311.6" class="st11" width="6.4" height="6.4"/>
	<rect x="254" y="311.6" class="st11" width="6.4" height="6.4"/>
	<rect x="263.9" y="311.6" class="st11" width="6.4" height="6.4"/>
	<rect x="273.7" y="311.6" class="st11" width="6.4" height="6.4"/>
	<rect x="244.2" y="321.3" class="st11" width="6.4" height="6.4"/>
	<rect x="254" y="321.3" class="st11" width="6.4" height="6.4"/>
	<rect x="263.9" y="321.3" class="st11" width="6.4" height="6.4"/>
	<rect x="273.7" y="321.3" class="st11" width="6.4" height="6.4"/>
</g>
<path class="st12" d="M62.2,51.1L62.2,51.1c0.1,1.3-0.4,2.5-1.2,3.3c-1,0.9-2.3,1.3-3.6,1.2c-1.4,0.1-2.8-0.5-3.8-1.5
	c-1-1-1.5-2.4-1.4-3.8v-2.5c-0.1-1.4,0.5-2.8,1.4-3.8c0.9-1,2.3-1.5,3.7-1.5c1.3-0.1,2.7,0.4,3.7,1.2c0.9,0.9,1.4,2.1,1.3,3.3l0,0.1
	h-2.5c0-0.7-0.2-1.4-0.6-1.9c-0.5-0.5-1.2-0.7-1.9-0.7c-0.7,0-1.4,0.3-1.8,0.9c-0.5,0.7-0.7,1.5-0.7,2.4v2.6c0,0.9,0.2,1.7,0.7,2.4
	c0.4,0.6,1.2,1,1.9,0.9c0.7,0.1,1.3-0.2,1.8-0.6c0.4-0.5,0.6-1.2,0.6-1.9L62.2,51.1z"/>
<path class="st12" d="M66.6,55.5H64V41.8h2.6L66.6,55.5z"/>
<path class="st12" d="M68.3,50.7c-0.1-1.3,0.4-2.5,1.2-3.5c0.8-0.9,2-1.4,3.3-1.4c1.2-0.1,2.5,0.4,3.3,1.4c0.8,1,1.2,2.2,1.2,3.5
	v0.2c0.1,1.3-0.4,2.5-1.2,3.5c-1.8,1.8-4.8,1.8-6.6,0c-0.8-1-1.2-2.2-1.2-3.5V50.7z M70.8,50.8c0,0.7,0.1,1.4,0.5,2.1
	c0.5,0.8,1.6,1,2.4,0.5c0.2-0.1,0.4-0.3,0.5-0.5c0.3-0.6,0.5-1.4,0.5-2.1v-0.2c0-0.7-0.1-1.4-0.5-2.1c-0.3-0.5-0.9-0.8-1.5-0.8
	c-0.6,0-1.2,0.3-1.5,0.8c-0.3,0.6-0.5,1.3-0.5,2.1L70.8,50.8z"/>
<path class="st12" d="M84,52.9c0-0.3-0.2-0.6-0.4-0.7c-0.5-0.3-1-0.5-1.5-0.5c-0.9-0.1-1.8-0.5-2.5-1c-0.6-0.4-0.9-1.1-0.9-1.8
	c0-0.8,0.4-1.6,1-2.1c0.8-0.6,1.8-0.9,2.8-0.9c1-0.1,2.1,0.2,2.9,0.9c0.7,0.5,1.1,1.3,1,2.2l0,0.1h-2.5c0-0.3-0.1-0.7-0.4-0.9
	c-0.6-0.5-1.4-0.5-2-0.1c-0.2,0.2-0.4,0.5-0.4,0.8c0,0.3,0.1,0.6,0.4,0.7c0.5,0.3,1,0.4,1.5,0.5c0.9,0.1,1.8,0.5,2.6,1
	c0.6,0.5,0.9,1.2,0.9,1.9c0,0.8-0.4,1.6-1.1,2.1c-0.9,0.6-1.9,0.9-2.9,0.8c-1.1,0.1-2.2-0.3-3-1c-0.7-0.5-1.1-1.3-1.1-2.2l0-0.1h2.3
	c0,0.4,0.2,0.8,0.5,1.1c0.4,0.2,0.8,0.4,1.2,0.3c0.4,0,0.8-0.1,1.1-0.3C83.8,53.5,84,53.2,84,52.9z"/>
<path class="st12" d="M92.3,55.7c-1.2,0.1-2.4-0.4-3.3-1.3c-0.8-0.9-1.3-2.1-1.2-3.3v-0.4c0-1.3,0.4-2.5,1.2-3.5
	c1.6-1.7,4.4-1.8,6.1-0.2c0.7,0.9,1.1,2,1.1,3.1v1.4h-5.7l0,0.1c0,0.6,0.2,1.1,0.6,1.5c0.4,0.4,0.9,0.6,1.5,0.6c0.5,0,1,0,1.4-0.2
	c0.4-0.1,0.8-0.3,1.2-0.5l0.7,1.6c-0.5,0.4-1,0.6-1.5,0.8C93.7,55.6,93,55.7,92.3,55.7z M92.1,47.8c-0.4,0-0.9,0.2-1.1,0.5
	c-0.3,0.4-0.5,0.9-0.5,1.4l0,0h3.1v-0.2c0-0.5-0.1-0.9-0.4-1.3C93,47.9,92.5,47.8,92.1,47.8z"/>
<path class="st12" d="M97.2,50.8c-0.1-1.3,0.3-2.6,1-3.6c0.6-0.9,1.6-1.4,2.7-1.4c0.4,0,0.9,0.1,1.3,0.3c0.4,0.2,0.7,0.5,1,0.9v-5.2
	h2.6v13.7h-2.2l-0.2-1.2c-0.3,0.4-0.6,0.8-1.1,1c-0.4,0.2-0.9,0.4-1.4,0.3c-1.1,0-2.1-0.4-2.7-1.3c-0.7-1-1-2.2-1-3.4L97.2,50.8z
	 M99.8,51c0,0.7,0.1,1.4,0.4,2c0.3,0.5,0.8,0.8,1.4,0.7c0.3,0,0.7-0.1,1-0.2c0.3-0.2,0.5-0.4,0.7-0.7v-4.1c-0.2-0.3-0.4-0.5-0.7-0.7
	c-0.3-0.2-0.6-0.3-1-0.3c-0.6,0-1.1,0.3-1.4,0.8c-0.3,0.7-0.5,1.4-0.4,2.2V51z"/>
<path class="st12" d="M112.8,51h-5v-2h5V51z"/>
<path class="st12" d="M122,52.2c0-0.5-0.2-0.9-0.5-1.2c-0.6-0.4-1.2-0.7-1.8-0.8c-1.2-0.3-2.4-0.8-3.5-1.6c-0.8-0.6-1.2-1.5-1.2-2.5
	c0-1,0.5-2,1.3-2.6c1-0.7,2.2-1,3.4-1c1.2-0.1,2.5,0.3,3.4,1.1c0.8,0.7,1.3,1.7,1.3,2.8l0,0.1H122c0-0.5-0.2-1.1-0.6-1.4
	c-0.5-0.4-1.1-0.6-1.7-0.5c-0.6,0-1.1,0.1-1.6,0.5c-0.4,0.3-0.6,0.7-0.6,1.2c0,0.4,0.2,0.8,0.6,1.1c0.6,0.4,1.3,0.7,2.1,0.9
	c1.2,0.3,2.3,0.8,3.2,1.6c0.7,0.6,1.1,1.6,1.1,2.5c0,1-0.5,2-1.3,2.6c-1,0.7-2.2,1-3.4,0.9c-1.3,0-2.6-0.3-3.6-1.1
	c-1-0.7-1.6-1.8-1.5-3l0-0.1h2.5c-0.1,0.6,0.2,1.3,0.7,1.7c0.6,0.4,1.3,0.6,1.9,0.5c0.6,0,1.1-0.1,1.6-0.4
	C121.8,53,122,52.6,122,52.2z"/>
<path class="st12" d="M125.9,50.7c-0.1-1.3,0.4-2.5,1.2-3.5c0.8-0.9,2-1.4,3.3-1.4c1.2-0.1,2.5,0.4,3.3,1.4c0.8,1,1.2,2.2,1.2,3.5
	v0.2c0.1,1.3-0.4,2.5-1.2,3.5c-1.8,1.8-4.8,1.8-6.6,0c-0.8-1-1.2-2.2-1.2-3.5L125.9,50.7z M128.4,50.8c0,0.7,0.1,1.4,0.5,2.1
	c0.5,0.8,1.6,1,2.4,0.5c0.2-0.1,0.4-0.3,0.5-0.5c0.3-0.6,0.5-1.4,0.5-2.1v-0.2c0-0.7-0.1-1.4-0.5-2.1c-0.3-0.5-0.9-0.8-1.5-0.8
	c-0.6,0-1.2,0.3-1.5,0.8c-0.3,0.6-0.5,1.3-0.5,2.1V50.8z"/>
<path class="st12" d="M142.2,54.1c-0.3,0.5-0.7,0.9-1.1,1.2c-1.3,0.7-2.9,0.5-3.9-0.6c-0.6-0.9-0.9-1.9-0.8-3V46h2.6v5.8
	c0,0.5,0.1,1,0.4,1.5c0.3,0.3,0.6,0.5,1,0.5c0.4,0,0.7-0.1,1.1-0.2c0.3-0.1,0.5-0.3,0.7-0.6V46h2.6v9.5h-2.2L142.2,54.1z"/>
<path class="st12" d="M151.6,48.2l-0.9,0c-0.3,0-0.7,0.1-0.9,0.2c-0.2,0.2-0.4,0.4-0.6,0.7v6.4h-2.6V46h2.4l0.1,1.4
	c0.2-0.5,0.5-0.9,0.9-1.2c0.4-0.3,1-0.5,1.6-0.4c0.1,0,0.2,0,0.3,0.1L151.6,48.2z"/>
<path class="st12" d="M156.9,53.7c0.4,0,0.8-0.1,1.1-0.4c0.3-0.3,0.4-0.7,0.4-1.1h2.3l0,0.1c0,0.9-0.4,1.8-1.1,2.4
	c-1.8,1.4-4.4,1.3-6.1-0.4c-0.8-1-1.2-2.2-1.2-3.5v-0.3c-0.1-1.3,0.4-2.5,1.1-3.5c0.8-0.9,2-1.4,3.3-1.4c1,0,2.1,0.3,2.8,1
	c0.7,0.7,1.1,1.6,1,2.6l0,0.1h-2.3c0-0.4-0.1-0.9-0.4-1.2c-0.3-0.3-0.7-0.5-1.1-0.5c-0.6,0-1.2,0.3-1.4,0.8c-0.3,0.6-0.4,1.3-0.4,2
	v0.3c0,0.7,0.1,1.4,0.4,2C155.7,53.5,156.3,53.8,156.9,53.7z"/>
<path class="st12" d="M166.4,55.7c-1.2,0.1-2.4-0.4-3.3-1.3c-0.8-0.9-1.3-2.1-1.2-3.3v-0.4c0-1.3,0.4-2.5,1.2-3.5
	c1.6-1.7,4.4-1.8,6.1-0.2c0.7,0.9,1.1,2,1.1,3.1v1.4h-5.7l0,0.1c0,0.6,0.2,1.1,0.6,1.5c0.4,0.4,0.9,0.6,1.5,0.6c0.5,0,1,0,1.4-0.2
	c0.4-0.1,0.8-0.3,1.2-0.5l0.7,1.6c-0.5,0.4-1,0.6-1.5,0.8C167.8,55.6,167.1,55.7,166.4,55.7z M166.2,47.8c-0.4,0-0.9,0.2-1.1,0.5
	c-0.3,0.4-0.5,0.9-0.5,1.4l0,0h3.1v-0.2c0-0.5-0.1-0.9-0.4-1.3C167,47.9,166.6,47.8,166.2,47.8L166.2,47.8z"/>
<path class="st13" d="M60.2,77h-1.7l-4.4-7.3l0,0V77h-1.7V67h1.7l4.4,7.3l0,0V67h1.7L60.2,77z"/>
<path class="st13" d="M61.9,73.2c0-1,0.3-1.9,0.9-2.7c1.3-1.4,3.5-1.4,4.9-0.1c0,0,0.1,0.1,0.1,0.1c0.6,0.8,1,1.7,0.9,2.7v0.1
	c0,1-0.3,2-0.9,2.7c-1.3,1.4-3.5,1.4-4.9,0.1c0,0,0,0-0.1-0.1c-0.6-0.8-0.9-1.7-0.9-2.7V73.2z M63.6,73.4c0,0.6,0.1,1.2,0.4,1.8
	c0.5,0.7,1.5,0.9,2.2,0.4c0.1-0.1,0.3-0.2,0.4-0.4c0.3-0.5,0.5-1.1,0.4-1.8v-0.1c0-0.6-0.1-1.2-0.4-1.7c-0.5-0.7-1.5-0.9-2.2-0.4
	c-0.2,0.1-0.3,0.3-0.4,0.4c-0.3,0.5-0.4,1.1-0.4,1.7L63.6,73.4z"/>
<path class="st13" d="M71.6,69.6l0.1,1.1c0.2-0.4,0.5-0.7,0.9-0.9c0.4-0.2,0.8-0.3,1.2-0.3c0.7,0,1.3,0.2,1.8,0.7
	c0.5,0.6,0.7,1.4,0.6,2.2V77h-1.7v-4.6c0-0.4-0.1-0.8-0.3-1.2c-0.3-0.3-0.7-0.4-1-0.4c-0.3,0-0.6,0.1-0.9,0.2
	c-0.3,0.1-0.5,0.3-0.6,0.6V77h-1.7v-7.4H71.6z"/>
<path class="st13" d="M81.3,73.4h-3.6v-1.3h3.6V73.4z"/>
<path class="st13" d="M89.1,73.5c0,0.9-0.2,1.8-0.8,2.6c-0.5,0.7-1.3,1-2.1,1c-0.4,0-0.8-0.1-1.1-0.2c-0.3-0.2-0.6-0.4-0.8-0.7v3.6
	h-1.7V69.6h1.4l0.2,0.9c0.2-0.3,0.5-0.6,0.9-0.8c0.4-0.2,0.8-0.3,1.2-0.3c0.8,0,1.7,0.4,2.1,1.1c0.5,0.8,0.8,1.8,0.8,2.9V73.5z
	 M87.5,73.4c0-0.6-0.1-1.3-0.4-1.9c-0.3-0.5-0.7-0.7-1.3-0.7c-0.3,0-0.6,0.1-0.9,0.2c-0.2,0.2-0.4,0.4-0.6,0.6V75
	c0.1,0.2,0.3,0.5,0.6,0.6c0.3,0.1,0.6,0.2,0.9,0.2c0.5,0,1-0.2,1.3-0.6c0.3-0.5,0.4-1.1,0.4-1.6L87.5,73.4z"/>
<path class="st13" d="M90.3,73.2c0-1,0.3-1.9,0.9-2.7c1.3-1.4,3.5-1.4,4.9-0.1c0,0,0.1,0.1,0.1,0.1c0.6,0.8,1,1.7,0.9,2.7v0.1
	c0,1-0.3,2-0.9,2.7c-1.3,1.4-3.5,1.4-4.9,0.1c0,0,0,0-0.1-0.1c-0.6-0.8-0.9-1.7-0.9-2.7V73.2z M91.9,73.4c0,0.6,0.1,1.2,0.4,1.8
	c0.5,0.7,1.5,0.9,2.2,0.4c0.1-0.1,0.3-0.2,0.4-0.4c0.3-0.5,0.5-1.1,0.4-1.8v-0.1c0-0.6-0.1-1.2-0.4-1.7c-0.5-0.7-1.5-0.9-2.2-0.4
	c-0.2,0.1-0.3,0.3-0.4,0.4c-0.3,0.5-0.4,1.1-0.4,1.7V73.4z"/>
<path class="st13" d="M102.2,71.1l-0.7,0c-0.3,0-0.6,0.1-0.8,0.2c-0.2,0.1-0.4,0.3-0.5,0.6V77h-1.7v-7.4h1.5l0.1,1.1
	c0.2-0.4,0.4-0.7,0.7-0.9c0.3-0.2,0.7-0.3,1-0.3c0.1,0,0.2,0,0.3,0c0.1,0,0.2,0,0.2,0.1L102.2,71.1z"/>
<path class="st13" d="M105.6,67.8v1.8h1.3v1.2h-1.3v4.1c0,0.2,0,0.5,0.2,0.7c0.1,0.1,0.3,0.2,0.5,0.2c0.1,0,0.2,0,0.3,0
	c0.1,0,0.2,0,0.2-0.1l0.2,1.2c-0.2,0.1-0.3,0.1-0.5,0.2c-0.2,0-0.4,0.1-0.6,0.1c-0.5,0-1.1-0.2-1.4-0.5c-0.4-0.5-0.6-1.1-0.5-1.7
	v-4.1h-1.1v-1.2h1.1v-1.8H105.6z"/>
<path class="st13" d="M112.8,77c-0.1-0.2-0.1-0.4-0.1-0.5c0-0.2-0.1-0.4-0.1-0.5c-0.2,0.4-0.5,0.6-0.9,0.9c-0.4,0.2-0.8,0.4-1.2,0.4
	c-0.6,0-1.3-0.2-1.8-0.6c-0.4-0.4-0.7-1-0.6-1.6c0-0.7,0.3-1.3,0.8-1.7c0.7-0.4,1.5-0.6,2.4-0.6h1.3V72c0-0.3-0.1-0.7-0.3-0.9
	c-0.3-0.2-0.6-0.4-1-0.3c-0.3,0-0.6,0.1-0.9,0.3c-0.2,0.2-0.3,0.4-0.3,0.7h-1.6l0,0c0-0.6,0.3-1.2,0.8-1.6c0.6-0.5,1.4-0.7,2.2-0.7
	c0.8,0,1.5,0.2,2.1,0.7c0.5,0.5,0.8,1.2,0.8,1.9v3.3c0,0.3,0,0.6,0.1,0.9c0,0.3,0.1,0.6,0.2,0.8L112.8,77z M110.8,75.8
	c0.4,0,0.8-0.1,1.1-0.3c0.3-0.2,0.5-0.4,0.7-0.7v-1.1h-1.3c-0.4,0-0.8,0.1-1.1,0.4c-0.3,0.2-0.4,0.5-0.4,0.8c0,0.3,0.1,0.5,0.3,0.7
	C110.2,75.7,110.5,75.8,110.8,75.8z"/>
<path class="st13" d="M122.5,73.5c0,0.9-0.2,1.8-0.8,2.6c-0.5,0.7-1.3,1-2.1,1c-0.4,0-0.8-0.1-1.2-0.3c-0.3-0.2-0.6-0.5-0.9-0.8
	l-0.2,1H116V66.3h1.7v4.1c0.2-0.3,0.5-0.5,0.8-0.7c0.3-0.2,0.7-0.3,1.1-0.3c0.9,0,1.7,0.4,2.1,1.1c0.5,0.9,0.8,1.8,0.8,2.9
	L122.5,73.5z M120.8,73.4c0-0.6-0.1-1.3-0.4-1.9c-0.2-0.5-0.7-0.7-1.3-0.7c-0.3,0-0.6,0.1-0.9,0.2c-0.3,0.2-0.5,0.4-0.6,0.7v3.1
	c0.1,0.3,0.3,0.5,0.6,0.7c0.3,0.2,0.6,0.3,0.9,0.2c0.5,0,1-0.2,1.3-0.6c0.3-0.5,0.4-1.1,0.4-1.6L120.8,73.4z"/>
<path class="st13" d="M125.7,77H124V66.3h1.7V77z"/>
<path class="st13" d="M130.7,77.1c-0.9,0-1.9-0.3-2.5-1c-0.6-0.7-1-1.7-0.9-2.6v-0.3c0-1,0.3-1.9,0.9-2.7c0.6-0.7,1.4-1.1,2.3-1.1
	c0.9-0.1,1.7,0.3,2.3,0.9c0.6,0.7,0.8,1.5,0.8,2.4v1H129l0,0c0,0.5,0.2,1,0.5,1.4c0.3,0.4,0.8,0.6,1.3,0.6c0.4,0,0.8,0,1.1-0.2
	c0.3-0.1,0.6-0.3,0.9-0.5l0.5,1.1c-0.3,0.3-0.7,0.5-1.1,0.6C131.8,77.1,131.3,77.2,130.7,77.1z M130.5,70.8c-0.4,0-0.8,0.2-1,0.5
	c-0.3,0.4-0.4,0.8-0.5,1.2l0,0h2.9v-0.2c0-0.4-0.1-0.8-0.4-1.1C131.3,70.9,130.9,70.8,130.5,70.8z"/>
<path class="st13" d="M136.6,76.8l-1.1,2.1h-1.1l0.5-2.2v-1.4h1.6L136.6,76.8z"/>
<path class="st13" d="M148.1,73.5c0,0.9-0.2,1.8-0.8,2.6c-0.5,0.7-1.3,1-2.1,1c-0.4,0-0.8-0.1-1.1-0.2c-0.3-0.2-0.6-0.4-0.8-0.7v3.6
	h-1.7V69.6h1.4l0.2,0.9c0.2-0.3,0.5-0.6,0.9-0.8c0.4-0.2,0.8-0.3,1.2-0.3c0.8,0,1.7,0.4,2.1,1.1c0.5,0.8,0.8,1.8,0.8,2.9L148.1,73.5
	z M146.4,73.4c0-0.6-0.1-1.3-0.4-1.9c-0.3-0.5-0.7-0.7-1.3-0.7c-0.3,0-0.6,0.1-0.9,0.2c-0.2,0.2-0.4,0.4-0.6,0.6V75
	c0.1,0.2,0.3,0.5,0.6,0.6c0.3,0.1,0.6,0.2,0.9,0.2c0.5,0,1-0.2,1.3-0.6c0.3-0.5,0.4-1.1,0.4-1.6L146.4,73.4z"/>
<path class="st13" d="M153.2,71.1l-0.7,0c-0.3,0-0.6,0.1-0.8,0.2c-0.2,0.1-0.4,0.3-0.5,0.6V77h-1.7v-7.4h1.5l0.1,1.1
	c0.2-0.4,0.4-0.7,0.7-0.9c0.3-0.2,0.7-0.3,1-0.3c0.1,0,0.2,0,0.3,0c0.1,0,0.2,0,0.2,0.1L153.2,71.1z"/>
<path class="st13" d="M154.1,73.2c0-1,0.3-1.9,0.9-2.7c1.3-1.4,3.5-1.4,4.9-0.1c0,0,0.1,0.1,0.1,0.1c0.6,0.8,1,1.7,0.9,2.7v0.1
	c0,1-0.3,2-0.9,2.7c-1.3,1.4-3.5,1.4-4.9,0.1c0,0,0,0-0.1-0.1c-0.6-0.8-0.9-1.7-0.9-2.7V73.2z M155.7,73.4c0,0.6,0.1,1.2,0.4,1.8
	c0.5,0.7,1.5,0.9,2.2,0.4c0.1-0.1,0.3-0.2,0.4-0.4c0.3-0.5,0.5-1.1,0.4-1.8v-0.1c0-0.6-0.1-1.2-0.4-1.7c-0.5-0.7-1.5-0.9-2.2-0.4
	c-0.2,0.1-0.3,0.3-0.4,0.4c-0.3,0.5-0.4,1.1-0.4,1.7V73.4z"/>
<path class="st13" d="M168.8,73.5c0,0.9-0.2,1.8-0.8,2.6c-0.5,0.7-1.3,1-2.1,1c-0.4,0-0.8-0.1-1.1-0.2c-0.3-0.2-0.6-0.4-0.8-0.7v3.6
	h-1.7V69.6h1.4l0.2,0.9c0.2-0.3,0.5-0.6,0.9-0.8c0.4-0.2,0.8-0.3,1.2-0.3c0.8,0,1.7,0.4,2.1,1.1c0.5,0.8,0.8,1.8,0.8,2.9L168.8,73.5
	z M167.1,73.4c0-0.6-0.1-1.3-0.4-1.9c-0.3-0.5-0.7-0.7-1.3-0.7c-0.3,0-0.6,0.1-0.9,0.2c-0.2,0.2-0.4,0.4-0.6,0.6V75
	c0.1,0.2,0.3,0.5,0.6,0.6c0.3,0.1,0.6,0.2,0.9,0.2c0.5,0,1-0.2,1.3-0.6c0.3-0.5,0.4-1.1,0.4-1.6L167.1,73.4z"/>
<path class="st13" d="M173.9,71.1l-0.7,0c-0.3,0-0.6,0.1-0.8,0.2c-0.2,0.1-0.4,0.3-0.5,0.6V77h-1.7v-7.4h1.5l0.1,1.1
	c0.2-0.4,0.4-0.7,0.7-0.9c0.3-0.2,0.7-0.3,1-0.3c0.1,0,0.2,0,0.3,0c0.1,0,0.2,0,0.2,0.1L173.9,71.1z"/>
<path class="st13" d="M176.9,67.8h-1.7v-1.5h1.7V67.8z M176.9,77h-1.7v-7.4h1.7V77z"/>
<path class="st13" d="M181.9,77.1c-0.9,0-1.9-0.3-2.5-1c-0.6-0.7-1-1.7-0.9-2.6v-0.3c0-1,0.3-1.9,0.9-2.7c0.6-0.7,1.4-1.1,2.3-1.1
	c0.9-0.1,1.7,0.3,2.3,0.9c0.6,0.7,0.8,1.5,0.8,2.4v1h-4.6l0,0c0,0.5,0.2,1,0.5,1.4c0.3,0.4,0.8,0.6,1.3,0.6c0.4,0,0.8,0,1.1-0.2
	c0.3-0.1,0.6-0.3,0.9-0.5l0.5,1.1c-0.3,0.3-0.7,0.5-1.1,0.6C183,77.1,182.4,77.2,181.9,77.1z M181.7,70.8c-0.4,0-0.8,0.2-1,0.5
	c-0.3,0.4-0.4,0.8-0.5,1.2l0,0h2.9v-0.2c0-0.4-0.1-0.8-0.4-1.1C182.5,70.9,182.1,70.8,181.7,70.8z"/>
<path class="st13" d="M188.2,67.8v1.8h1.3v1.2h-1.3v4.1c0,0.2,0,0.5,0.2,0.7c0.1,0.1,0.3,0.2,0.5,0.2c0.1,0,0.2,0,0.3,0
	c0.1,0,0.2,0,0.2-0.1l0.2,1.2c-0.2,0.1-0.3,0.1-0.5,0.2c-0.2,0-0.4,0.1-0.6,0.1c-0.5,0-1.1-0.2-1.4-0.5c-0.4-0.5-0.6-1.1-0.5-1.7
	v-4.1h-1.1v-1.2h1.1v-1.8H188.2z"/>
<path class="st13" d="M195.4,77c-0.1-0.2-0.1-0.4-0.1-0.5c0-0.2-0.1-0.4-0.1-0.5c-0.2,0.4-0.5,0.6-0.9,0.9c-0.4,0.2-0.8,0.4-1.2,0.4
	c-0.6,0-1.3-0.2-1.8-0.6c-0.4-0.4-0.7-1-0.6-1.6c0-0.7,0.3-1.3,0.8-1.7c0.7-0.4,1.5-0.6,2.4-0.6h1.3V72c0-0.3-0.1-0.7-0.3-0.9
	c-0.3-0.2-0.6-0.4-1-0.3c-0.3,0-0.6,0.1-0.9,0.3c-0.2,0.2-0.3,0.4-0.3,0.7H191l0,0c0-0.6,0.3-1.2,0.8-1.6c0.6-0.5,1.4-0.7,2.2-0.7
	c0.8,0,1.5,0.2,2.1,0.7c0.5,0.5,0.8,1.2,0.8,1.9v3.3c0,0.3,0,0.6,0.1,0.9c0,0.3,0.1,0.6,0.2,0.8L195.4,77z M193.4,75.8
	c0.4,0,0.8-0.1,1.1-0.3c0.3-0.2,0.5-0.4,0.7-0.7v-1.1h-1.3c-0.4,0-0.8,0.1-1.1,0.4c-0.3,0.2-0.4,0.5-0.4,0.8c0,0.3,0.1,0.5,0.3,0.7
	C192.8,75.7,193.1,75.8,193.4,75.8z"/>
<path class="st13" d="M202.3,71.1l-0.7,0c-0.3,0-0.6,0.1-0.8,0.2c-0.2,0.1-0.4,0.3-0.5,0.6V77h-1.7v-7.4h1.5l0.1,1.1
	c0.2-0.4,0.4-0.7,0.7-0.9c0.3-0.2,0.7-0.3,1-0.3c0.1,0,0.2,0,0.3,0c0.1,0,0.2,0,0.2,0.1L202.3,71.1z"/>
<path class="st13" d="M206.1,74l0.2,0.7h0l1.6-5.2h1.8l-3.1,8.5c-0.2,0.5-0.5,0.9-0.8,1.3c-0.4,0.4-1,0.6-1.5,0.5
	c-0.1,0-0.3,0-0.4,0c-0.2,0-0.3-0.1-0.5-0.1l0.2-1.3c0.1,0,0.1,0,0.3,0s0.2,0,0.2,0c0.3,0,0.5-0.1,0.7-0.3c0.2-0.2,0.3-0.5,0.4-0.7
	l0.3-0.7l-2.7-7.3h1.8L206.1,74z"/>
<path class="st13" d="M218.3,75c0-0.3-0.1-0.5-0.3-0.6c-0.4-0.2-0.8-0.4-1.2-0.4c-0.7-0.1-1.4-0.4-2-0.8c-0.4-0.3-0.7-0.9-0.7-1.4
	c0-0.6,0.3-1.2,0.8-1.6c0.6-0.5,1.3-0.7,2.1-0.7c0.8,0,1.5,0.2,2.1,0.7c0.5,0.4,0.8,1,0.8,1.7l0,0h-1.6c0-0.3-0.1-0.6-0.3-0.8
	c-0.3-0.2-0.6-0.3-1-0.3c-0.3,0-0.7,0.1-0.9,0.3c-0.2,0.2-0.3,0.4-0.3,0.7c0,0.2,0.1,0.5,0.3,0.6c0.4,0.2,0.8,0.4,1.2,0.4
	c0.7,0.1,1.4,0.4,2.1,0.8c0.4,0.3,0.7,0.9,0.7,1.4c0,0.6-0.3,1.3-0.8,1.6c-0.6,0.4-1.4,0.7-2.2,0.6c-0.8,0-1.6-0.2-2.3-0.7
	c-0.5-0.4-0.8-1-0.8-1.7l0,0h1.5c0,0.4,0.2,0.7,0.5,0.9c0.3,0.2,0.7,0.3,1.1,0.3c0.3,0,0.7-0.1,1-0.2
	C218.2,75.5,218.3,75.3,218.3,75z"/>
<path class="st13" d="M223.5,67.8v1.8h1.3v1.2h-1.3v4.1c0,0.2,0,0.5,0.2,0.7c0.1,0.1,0.3,0.2,0.5,0.2c0.1,0,0.2,0,0.3,0
	c0.1,0,0.2,0,0.2-0.1l0.2,1.2c-0.2,0.1-0.3,0.1-0.5,0.2c-0.2,0-0.4,0.1-0.6,0.1c-0.5,0-1.1-0.2-1.4-0.5c-0.4-0.5-0.6-1.1-0.5-1.7
	v-4.1h-1.1v-1.2h1.1v-1.8H223.5z"/>
<path class="st13" d="M230.8,77c-0.1-0.2-0.1-0.4-0.1-0.5c0-0.2-0.1-0.4-0.1-0.5c-0.2,0.4-0.5,0.6-0.9,0.9c-0.4,0.2-0.8,0.4-1.2,0.4
	c-0.6,0-1.3-0.2-1.8-0.6c-0.4-0.4-0.7-1-0.6-1.6c0-0.7,0.3-1.3,0.8-1.7c0.7-0.4,1.5-0.6,2.4-0.6h1.3V72c0-0.3-0.1-0.7-0.3-0.9
	c-0.3-0.2-0.6-0.4-1-0.3c-0.3,0-0.6,0.1-0.9,0.3c-0.2,0.2-0.3,0.4-0.3,0.7h-1.6l0,0c0-0.6,0.3-1.2,0.8-1.6c0.6-0.5,1.4-0.7,2.2-0.7
	c0.8,0,1.5,0.2,2.1,0.7c0.5,0.5,0.8,1.2,0.8,1.9v3.3c0,0.3,0,0.6,0.1,0.9c0,0.3,0.1,0.6,0.2,0.8H230.8z M228.7,75.8
	c0.4,0,0.8-0.1,1.1-0.3c0.3-0.2,0.5-0.4,0.7-0.7v-1.1h-1.3c-0.4,0-0.8,0.1-1.1,0.4c-0.3,0.2-0.4,0.5-0.4,0.8c0,0.3,0.1,0.5,0.3,0.7
	C228.2,75.7,228.5,75.8,228.7,75.8z"/>
<path class="st13" d="M237,75.8c0.4,0,0.7-0.1,1-0.4c0.3-0.2,0.4-0.5,0.4-0.9h1.5l0,0c0,0.7-0.3,1.4-0.8,1.8
	c-0.6,0.5-1.3,0.8-2.1,0.8c-1,0.1-1.9-0.3-2.5-1.1c-0.6-0.8-0.9-1.7-0.9-2.7v-0.2c0-1,0.3-1.9,0.9-2.7c1.2-1.3,3.3-1.4,4.7-0.3
	c0.5,0.5,0.8,1.2,0.8,2l0,0h-1.5c0-0.4-0.1-0.8-0.4-1c-0.3-0.3-0.7-0.4-1-0.4c-0.5,0-1.1,0.2-1.3,0.7c-0.3,0.5-0.4,1.1-0.4,1.7v0.2
	c0,0.6,0.1,1.2,0.4,1.7C236,75.6,236.5,75.9,237,75.8z"/>
<path class="st13" d="M243.7,73.8H243V77h-1.7V66.3h1.7v6.1h0.7l1.9-2.8h2L245,73l2.8,4h-1.9L243.7,73.8z"/>
<path class="st13" d="M252.8,75c0-0.3-0.1-0.5-0.3-0.6c-0.4-0.2-0.8-0.4-1.2-0.4c-0.7-0.1-1.4-0.4-2-0.8c-0.4-0.3-0.7-0.9-0.7-1.4
	c0-0.6,0.3-1.2,0.8-1.6c0.6-0.5,1.3-0.7,2.1-0.7c0.8,0,1.5,0.2,2.1,0.7c0.5,0.4,0.8,1,0.8,1.7l0,0h-1.6c0-0.3-0.1-0.6-0.3-0.8
	c-0.3-0.2-0.6-0.3-1-0.3c-0.3,0-0.7,0.1-0.9,0.3c-0.2,0.2-0.3,0.4-0.3,0.7c0,0.2,0.1,0.5,0.3,0.6c0.4,0.2,0.8,0.4,1.2,0.4
	c0.7,0.1,1.4,0.4,2.1,0.8c0.4,0.3,0.7,0.9,0.7,1.4c0,0.6-0.3,1.3-0.8,1.6c-0.6,0.4-1.4,0.7-2.2,0.6c-0.8,0-1.6-0.2-2.3-0.7
	c-0.5-0.4-0.8-1-0.8-1.7l0,0h1.5c0,0.4,0.2,0.7,0.5,0.9c0.3,0.2,0.7,0.3,1.1,0.3c0.3,0,0.7-0.1,1-0.2
	C252.7,75.5,252.8,75.3,252.8,75z"/>
<path class="st12" d="M450.2,50.3c0,1.4-0.5,2.8-1.5,3.9c-1,1-2.4,1.6-3.9,1.5c-1.4,0.1-2.8-0.5-3.8-1.5c-1-1-1.5-2.5-1.5-3.9V48
	c0-1.4,0.5-2.8,1.5-3.9c1-1,2.4-1.6,3.8-1.5c1.5-0.1,2.9,0.5,3.9,1.5c1,1,1.5,2.4,1.5,3.9V50.3z M447.6,47.9c0-0.9-0.2-1.7-0.7-2.5
	c-0.5-0.6-1.3-1-2.1-1c-0.8,0-1.6,0.3-2,1c-0.5,0.7-0.8,1.6-0.7,2.5v2.3c0,0.9,0.2,1.8,0.7,2.5c0.5,0.6,1.2,1,2,1
	c0.8,0,1.6-0.3,2.1-1c0.5-0.7,0.8-1.6,0.7-2.5L447.6,47.9z"/>
<path class="st12" d="M460.6,51c0.1,1.2-0.3,2.4-1,3.4c-0.6,0.9-1.7,1.3-2.7,1.3c-0.5,0-0.9-0.1-1.3-0.3c-0.4-0.2-0.7-0.5-1-0.8v4.6
	H452V46h2.3l0.1,1.1c0.3-0.4,0.6-0.7,1-1c0.4-0.2,0.9-0.3,1.4-0.3c1.1,0,2.1,0.5,2.7,1.4c0.7,1.1,1,2.3,1,3.6L460.6,51z M458,50.8
	c0-0.8-0.1-1.5-0.4-2.2c-0.2-0.5-0.8-0.9-1.4-0.8c-0.3,0-0.7,0.1-1,0.2c-0.3,0.2-0.5,0.4-0.6,0.7v4.2c0.2,0.3,0.4,0.5,0.6,0.6
	c0.3,0.2,0.7,0.2,1,0.2c0.6,0,1.1-0.2,1.4-0.7c0.3-0.6,0.5-1.3,0.4-2L458,50.8z"/>
<path class="st12" d="M466.4,55.7c-1.2,0.1-2.4-0.4-3.3-1.3c-0.8-0.9-1.3-2.1-1.2-3.3v-0.4c0-1.3,0.4-2.5,1.2-3.5
	c1.6-1.7,4.4-1.8,6.1-0.2c0.7,0.9,1.1,2,1.1,3.1v1.4h-5.7l0,0.1c0,0.6,0.2,1.1,0.6,1.5c0.4,0.4,0.9,0.6,1.5,0.6c0.5,0,1,0,1.4-0.2
	c0.4-0.1,0.8-0.3,1.2-0.5l0.7,1.6c-0.5,0.4-1,0.6-1.5,0.8C467.8,55.6,467.1,55.7,466.4,55.7z M466.1,47.8c-0.4,0-0.9,0.2-1.1,0.5
	c-0.3,0.4-0.5,0.9-0.5,1.4l0,0h3.1v-0.2c0-0.5-0.1-0.9-0.4-1.3C467,47.9,466.6,47.8,466.1,47.8z"/>
<path class="st12" d="M474,46l0.1,1.4c0.3-0.5,0.7-0.9,1.2-1.1c0.5-0.3,1-0.4,1.6-0.4c0.8,0,1.7,0.3,2.2,0.9
	c0.6,0.8,0.9,1.8,0.8,2.8v5.9h-2.6v-5.9c0-0.5-0.1-1-0.4-1.4c-0.3-0.3-0.7-0.4-1.2-0.4c-0.3,0-0.6,0.1-0.9,0.2
	c-0.3,0.1-0.5,0.3-0.7,0.6v6.9h-2.6V46H474z"/>
<path class="st12" d="M494.4,49.9h-5.3v3.6h6.2v2h-8.8V42.7h8.7v2h-6.2v3.2h5.3L494.4,49.9z"/>
<path class="st12" d="M500.5,53.7c0.4,0,0.8-0.1,1.1-0.4c0.3-0.3,0.4-0.7,0.4-1.1h2.3l0,0.1c0,0.9-0.4,1.8-1.1,2.4
	c-1.8,1.4-4.4,1.3-6.1-0.4c-0.8-1-1.2-2.2-1.2-3.5v-0.3c-0.1-1.3,0.4-2.5,1.1-3.5c0.8-0.9,2-1.4,3.3-1.4c1,0,2.1,0.3,2.8,1
	c0.7,0.7,1.1,1.6,1,2.6l0,0.1H502c0-0.4-0.1-0.9-0.4-1.2c-0.3-0.3-0.7-0.5-1.1-0.5c-0.6,0-1.2,0.3-1.4,0.8c-0.3,0.6-0.4,1.3-0.4,2
	v0.3c0,0.7,0.1,1.4,0.4,2C499.4,53.5,499.9,53.8,500.5,53.7z"/>
<path class="st12" d="M505.5,50.7c-0.1-1.3,0.4-2.5,1.2-3.5c0.8-0.9,2-1.4,3.3-1.4c1.2-0.1,2.5,0.4,3.3,1.4c0.8,1,1.2,2.2,1.2,3.5
	v0.2c0.1,1.3-0.4,2.5-1.2,3.5c-1.8,1.8-4.8,1.8-6.6,0c-0.8-1-1.2-2.2-1.2-3.5L505.5,50.7z M508,50.8c0,0.7,0.1,1.4,0.5,2.1
	c0.5,0.8,1.6,1,2.4,0.5c0.2-0.1,0.4-0.3,0.5-0.5c0.3-0.6,0.5-1.4,0.5-2.1v-0.2c0-0.7-0.1-1.4-0.5-2.1c-0.3-0.5-0.9-0.8-1.5-0.8
	c-0.6,0-1.2,0.3-1.5,0.8c-0.3,0.6-0.5,1.3-0.5,2.1L508,50.8z"/>
<path class="st12" d="M521.2,52.9c0-0.3-0.2-0.6-0.4-0.7c-0.5-0.3-1-0.5-1.5-0.5c-0.9-0.1-1.8-0.5-2.5-1c-0.6-0.4-0.9-1.1-0.9-1.8
	c0-0.8,0.4-1.6,1-2.1c0.8-0.6,1.8-0.9,2.8-0.9c1-0.1,2.1,0.2,2.9,0.9c0.7,0.5,1.1,1.3,1,2.2l0,0.1h-2.5c0-0.3-0.1-0.7-0.4-0.9
	c-0.6-0.5-1.4-0.5-2-0.1c-0.2,0.2-0.4,0.5-0.4,0.8c0,0.3,0.1,0.6,0.4,0.7c0.5,0.3,1,0.4,1.5,0.5c0.9,0.1,1.8,0.5,2.6,1
	c0.6,0.5,0.9,1.2,0.9,1.9c0,0.8-0.4,1.6-1.1,2.1c-0.9,0.6-1.9,0.9-2.9,0.8c-1.1,0.1-2.2-0.3-3-1c-0.7-0.5-1.1-1.3-1-2.2l0-0.1h2.3
	c0,0.4,0.2,0.8,0.5,1.1c0.4,0.2,0.8,0.4,1.2,0.3c0.4,0,0.8-0.1,1.1-0.3C521,53.5,521.2,53.2,521.2,52.9z"/>
<path class="st12" d="M528.7,51.5l0.1,0.5h0.1l1.8-6h2.8l-3.9,10.9c-0.2,0.6-0.6,1.2-1.1,1.7c-0.6,0.5-1.3,0.8-2.1,0.7
	c-0.2,0-0.4,0-0.6-0.1c-0.2,0-0.4-0.1-0.7-0.1l0.3-1.9c0.1,0,0.2,0,0.2,0c0.1,0,0.2,0,0.2,0c0.4,0,0.7-0.1,1-0.3
	c0.2-0.2,0.4-0.5,0.5-0.8l0.3-0.7l-3.4-9.5h2.8L528.7,51.5z"/>
<path class="st12" d="M539.6,52.9c0-0.3-0.2-0.6-0.4-0.7c-0.5-0.3-1-0.5-1.5-0.5c-0.9-0.1-1.8-0.5-2.5-1c-0.6-0.4-0.9-1.1-0.9-1.8
	c0-0.8,0.4-1.6,1-2.1c0.8-0.6,1.8-0.9,2.8-0.9c1-0.1,2.1,0.2,2.9,0.9c0.7,0.5,1.1,1.3,1,2.2l0,0.1h-2.5c0-0.3-0.1-0.7-0.4-0.9
	c-0.6-0.5-1.4-0.5-2-0.1c-0.2,0.2-0.4,0.5-0.4,0.8c0,0.3,0.1,0.6,0.4,0.7c0.5,0.3,1,0.4,1.5,0.5c0.9,0.1,1.8,0.5,2.6,1
	c0.6,0.5,0.9,1.2,0.9,1.9c0,0.8-0.4,1.6-1.1,2.1c-0.9,0.6-1.9,0.9-2.9,0.8c-1.1,0.1-2.2-0.3-3-1c-0.7-0.5-1.1-1.3-1-2.2l0-0.1h2.3
	c0,0.4,0.2,0.8,0.5,1.1c0.4,0.2,0.8,0.4,1.2,0.3c0.4,0,0.8-0.1,1.1-0.3C539.5,53.5,539.6,53.2,539.6,52.9z"/>
<path class="st12" d="M546.8,43.7V46h1.6v1.8h-1.6v4.8c0,0.3,0.1,0.6,0.2,0.8c0.2,0.2,0.4,0.2,0.6,0.2c0.1,0,0.2,0,0.3,0
	c0.1,0,0.2,0,0.3-0.1l0.2,1.9c-0.2,0.1-0.5,0.2-0.8,0.2c-0.3,0-0.5,0.1-0.8,0.1c-0.8,0-1.5-0.2-2-0.7c-0.5-0.6-0.8-1.5-0.7-2.3v-4.9
	h-1.4V46h1.4v-2.3H546.8z"/>
<path class="st12" d="M554.3,55.7c-1.2,0.1-2.4-0.4-3.3-1.3c-0.8-0.9-1.3-2.1-1.2-3.3v-0.4c0-1.3,0.4-2.5,1.2-3.5
	c1.6-1.7,4.4-1.8,6.1-0.2c0.7,0.9,1.1,2,1.1,3.1v1.4h-5.7l0,0.1c0,0.6,0.2,1.1,0.6,1.5c0.4,0.4,0.9,0.6,1.5,0.6c0.5,0,1,0,1.4-0.2
	c0.4-0.1,0.8-0.3,1.2-0.5l0.7,1.6c-0.5,0.4-1,0.6-1.5,0.8C555.7,55.6,555,55.7,554.3,55.7z M554,47.8c-0.4,0-0.9,0.2-1.1,0.5
	c-0.3,0.4-0.5,0.9-0.5,1.4l0,0h3.1v-0.2c0-0.5-0.1-0.9-0.4-1.3C554.9,47.9,554.5,47.8,554,47.8z"/>
<path class="st12" d="M562,46l0.1,1.3c0.3-0.4,0.7-0.8,1.1-1.1c0.5-0.3,1-0.4,1.6-0.4c0.5,0,1.1,0.1,1.6,0.4c0.5,0.3,0.8,0.7,1,1.2
	c0.3-0.5,0.7-0.9,1.1-1.2c0.5-0.3,1.1-0.4,1.7-0.4c0.9,0,1.7,0.3,2.2,1c0.6,0.9,0.9,1.9,0.8,3v5.8h-2.6v-5.8
	c0.1-0.5-0.1-1.1-0.4-1.5c-0.3-0.3-0.7-0.5-1-0.4c-0.3,0-0.7,0.1-0.9,0.2c-0.3,0.2-0.5,0.4-0.6,0.7c0,0.1,0,0.2,0,0.3s0,0.2,0,0.2
	v6.3h-2.6v-5.8c0-0.5-0.1-1-0.4-1.5c-0.3-0.3-0.7-0.5-1.1-0.4c-0.3,0-0.6,0.1-0.9,0.2c-0.3,0.1-0.5,0.3-0.6,0.6v6.9h-2.6V46H562z"/>
<path class="st13" d="M445.2,74.4c0-0.4-0.2-0.8-0.5-1c-0.5-0.3-1-0.6-1.6-0.7c-0.9-0.2-1.8-0.6-2.6-1.2c-0.6-0.5-0.9-1.2-0.9-1.9
	c0-0.8,0.4-1.5,1-2c0.7-0.5,1.6-0.8,2.6-0.8c1,0,1.9,0.3,2.6,0.9c0.6,0.5,1,1.3,1,2.1l0,0h-1.6c0-0.5-0.2-0.9-0.5-1.2
	c-0.4-0.3-0.9-0.5-1.5-0.5c-0.5,0-1,0.1-1.4,0.4c-0.3,0.2-0.5,0.6-0.5,1c0,0.4,0.2,0.7,0.5,0.9c0.5,0.3,1.1,0.6,1.8,0.7
	c0.9,0.2,1.7,0.6,2.4,1.2c0.5,0.5,0.9,1.2,0.8,1.9c0,0.8-0.4,1.5-1,2c-0.8,0.5-1.7,0.8-2.6,0.7c-1,0-1.9-0.3-2.7-0.8
	c-0.8-0.5-1.2-1.4-1.1-2.3l0,0h1.6c0,0.5,0.2,1,0.6,1.4c0.5,0.3,1.1,0.5,1.6,0.4c0.5,0,1-0.1,1.4-0.4
	C445,75.2,445.2,74.8,445.2,74.4z"/>
<path class="st13" d="M450.4,67.8v1.8h1.3v1.2h-1.3v4.1c0,0.2,0,0.5,0.2,0.7c0.1,0.1,0.3,0.2,0.5,0.2c0.1,0,0.2,0,0.3,0
	c0.1,0,0.2,0,0.2-0.1l0.2,1.2c-0.2,0.1-0.3,0.1-0.5,0.2c-0.2,0-0.4,0.1-0.6,0.1c-0.5,0-1.1-0.2-1.4-0.5c-0.4-0.5-0.6-1.1-0.5-1.7
	v-4.1h-1.1v-1.2h1.1v-1.8H450.4z"/>
<path class="st13" d="M457.7,77c-0.1-0.2-0.1-0.4-0.1-0.5c0-0.2-0.1-0.4-0.1-0.5c-0.2,0.4-0.5,0.6-0.9,0.9c-0.4,0.2-0.8,0.4-1.2,0.4
	c-0.6,0-1.3-0.2-1.8-0.6c-0.4-0.4-0.7-1-0.6-1.6c0-0.7,0.3-1.3,0.8-1.7c0.7-0.4,1.5-0.6,2.4-0.6h1.3V72c0-0.3-0.1-0.7-0.3-0.9
	c-0.3-0.2-0.6-0.4-1-0.3c-0.3,0-0.6,0.1-0.9,0.3c-0.2,0.2-0.3,0.4-0.3,0.7h-1.6l0,0c0-0.6,0.3-1.2,0.8-1.6c0.6-0.5,1.4-0.7,2.2-0.7
	c0.8,0,1.5,0.2,2.1,0.7c0.5,0.5,0.8,1.2,0.8,1.9v3.3c0,0.3,0,0.6,0.1,0.9c0,0.3,0.1,0.6,0.2,0.8L457.7,77z M455.7,75.8
	c0.4,0,0.8-0.1,1.1-0.3c0.3-0.2,0.5-0.4,0.7-0.7v-1.1h-1.3c-0.4,0-0.8,0.1-1.1,0.4c-0.3,0.2-0.4,0.5-0.4,0.8c0,0.3,0.1,0.5,0.3,0.7
	C455.1,75.7,455.4,75.8,455.7,75.8L455.7,75.8z"/>
<path class="st13" d="M462.4,69.6l0.1,1.1c0.2-0.4,0.5-0.7,0.9-0.9c0.4-0.2,0.8-0.3,1.2-0.3c0.7,0,1.3,0.2,1.8,0.7
	c0.5,0.6,0.7,1.4,0.6,2.2V77h-1.7v-4.6c0-0.4-0.1-0.8-0.3-1.2c-0.3-0.3-0.7-0.4-1-0.4c-0.3,0-0.6,0.1-0.9,0.2
	c-0.3,0.1-0.5,0.3-0.6,0.6V77h-1.7v-7.4H462.4z"/>
<path class="st13" d="M468.5,73.4c0-1,0.2-2,0.8-2.9c0.5-0.7,1.3-1.1,2.1-1.1c0.4,0,0.7,0.1,1.1,0.2c0.3,0.2,0.6,0.4,0.8,0.7v-4.1
	h1.7V77h-1.4l-0.2-0.9c-0.2,0.3-0.5,0.6-0.9,0.8c-0.4,0.2-0.8,0.3-1.2,0.3c-0.8,0-1.6-0.3-2.1-1c-0.5-0.8-0.8-1.7-0.8-2.6V73.4z
	 M470.1,73.5c0,0.6,0.1,1.1,0.4,1.6c0.3,0.4,0.8,0.6,1.2,0.6c0.3,0,0.6-0.1,0.9-0.2c0.3-0.2,0.5-0.4,0.6-0.6v-3.2
	c-0.1-0.3-0.4-0.5-0.6-0.6c-0.3-0.2-0.6-0.2-0.9-0.2c-0.5,0-1,0.3-1.3,0.7c-0.3,0.6-0.4,1.2-0.4,1.9V73.5z"/>
<path class="st13" d="M481.2,77c-0.1-0.2-0.1-0.4-0.1-0.5c0-0.2-0.1-0.4-0.1-0.5c-0.2,0.4-0.5,0.6-0.9,0.9c-0.4,0.2-0.8,0.4-1.2,0.4
	c-0.6,0-1.3-0.2-1.8-0.6c-0.4-0.4-0.7-1-0.6-1.6c0-0.7,0.3-1.3,0.8-1.7c0.7-0.4,1.5-0.6,2.4-0.6h1.3V72c0-0.3-0.1-0.7-0.3-0.9
	c-0.3-0.2-0.6-0.4-1-0.3c-0.3,0-0.6,0.1-0.9,0.3c-0.2,0.2-0.3,0.4-0.3,0.7h-1.6l0,0c0-0.6,0.3-1.2,0.8-1.6c0.6-0.5,1.4-0.7,2.2-0.7
	c0.8,0,1.5,0.2,2.1,0.7c0.5,0.5,0.8,1.2,0.8,1.9v3.3c0,0.3,0,0.6,0.1,0.9c0,0.3,0.1,0.6,0.2,0.8H481.2z M479.1,75.8
	c0.4,0,0.8-0.1,1.1-0.3c0.3-0.2,0.5-0.4,0.7-0.7v-1.1h-1.3c-0.4,0-0.8,0.1-1.1,0.4c-0.3,0.2-0.4,0.5-0.4,0.8c0,0.3,0.1,0.5,0.3,0.7
	C478.6,75.7,478.9,75.8,479.1,75.8z"/>
<path class="st13" d="M488,71.1l-0.7,0c-0.3,0-0.6,0.1-0.8,0.2c-0.2,0.1-0.4,0.3-0.5,0.6V77h-1.7v-7.4h1.5l0.1,1.1
	c0.2-0.4,0.4-0.7,0.7-0.9c0.3-0.2,0.7-0.3,1-0.3c0.1,0,0.2,0,0.3,0c0.1,0,0.2,0,0.2,0.1L488,71.1z"/>
<path class="st13" d="M488.9,73.4c0-1,0.2-2,0.8-2.9c0.5-0.7,1.3-1.1,2.1-1.1c0.4,0,0.7,0.1,1.1,0.2c0.3,0.2,0.6,0.4,0.8,0.7v-4.1
	h1.7V77h-1.4l-0.2-0.9c-0.2,0.3-0.5,0.6-0.9,0.8c-0.4,0.2-0.8,0.3-1.2,0.3c-0.8,0-1.6-0.3-2.1-1c-0.5-0.8-0.8-1.7-0.8-2.6V73.4z
	 M490.5,73.5c0,0.6,0.1,1.1,0.4,1.6c0.3,0.4,0.8,0.6,1.2,0.6c0.3,0,0.6-0.1,0.9-0.2c0.3-0.2,0.5-0.4,0.6-0.6v-3.2
	c-0.1-0.3-0.4-0.5-0.6-0.6c-0.3-0.2-0.6-0.2-0.9-0.2c-0.5,0-1,0.3-1.3,0.7c-0.3,0.6-0.4,1.2-0.4,1.9V73.5z"/>
<path class="st13" d="M501.3,75c0-0.3-0.1-0.5-0.3-0.6c-0.4-0.2-0.8-0.4-1.2-0.4c-0.7-0.1-1.4-0.4-2-0.8c-0.4-0.3-0.7-0.9-0.7-1.4
	c0-0.6,0.3-1.2,0.8-1.6c0.6-0.5,1.3-0.7,2.1-0.7c0.8,0,1.5,0.2,2.1,0.7c0.5,0.4,0.8,1,0.8,1.7l0,0h-1.6c0-0.3-0.1-0.6-0.3-0.8
	c-0.3-0.2-0.6-0.3-1-0.3c-0.3,0-0.7,0.1-0.9,0.3c-0.2,0.2-0.3,0.4-0.3,0.7c0,0.2,0.1,0.5,0.3,0.6c0.4,0.2,0.8,0.4,1.2,0.4
	c0.7,0.1,1.4,0.4,2.1,0.8c0.4,0.3,0.7,0.9,0.7,1.4c0,0.6-0.3,1.3-0.8,1.6c-0.6,0.4-1.4,0.7-2.2,0.6c-0.8,0-1.6-0.2-2.3-0.7
	c-0.5-0.4-0.8-1-0.8-1.7l0,0h1.5c0,0.4,0.2,0.7,0.5,0.9c0.3,0.2,0.7,0.3,1.1,0.3c0.3,0,0.7-0.1,1-0.2
	C501.1,75.5,501.3,75.3,501.3,75z"/>
<path class="st13" d="M507.6,73.4H504v-1.3h3.6V73.4z"/>
<path class="st13" d="M515.5,73.5c0,0.9-0.2,1.8-0.8,2.6c-0.5,0.7-1.3,1-2.1,1c-0.4,0-0.8-0.1-1.2-0.3c-0.3-0.2-0.6-0.5-0.9-0.8
	l-0.2,1H509V66.3h1.7v4.1c0.2-0.3,0.5-0.5,0.8-0.7c0.3-0.2,0.7-0.3,1.1-0.3c0.9,0,1.7,0.4,2.1,1.1c0.5,0.9,0.8,1.8,0.8,2.9
	L515.5,73.5z M513.8,73.4c0-0.6-0.1-1.3-0.4-1.9c-0.2-0.5-0.7-0.7-1.3-0.7c-0.3,0-0.6,0.1-0.9,0.2c-0.3,0.2-0.5,0.4-0.6,0.7v3.1
	c0.1,0.3,0.3,0.5,0.6,0.7c0.3,0.2,0.6,0.3,0.9,0.2c0.5,0,1-0.2,1.3-0.6c0.3-0.5,0.4-1.1,0.4-1.6L513.8,73.4z"/>
<path class="st13" d="M521.4,77c-0.1-0.2-0.1-0.4-0.1-0.5c0-0.2-0.1-0.4-0.1-0.5c-0.2,0.4-0.5,0.6-0.9,0.9c-0.4,0.2-0.8,0.4-1.2,0.4
	c-0.6,0-1.3-0.2-1.8-0.6c-0.4-0.4-0.7-1-0.6-1.6c0-0.7,0.3-1.3,0.8-1.7c0.7-0.4,1.5-0.6,2.4-0.6h1.3V72c0-0.3-0.1-0.7-0.3-0.9
	c-0.3-0.2-0.6-0.4-1-0.3c-0.3,0-0.6,0.1-0.9,0.3c-0.2,0.2-0.3,0.4-0.3,0.7H517l0,0c0-0.6,0.3-1.2,0.8-1.6c0.6-0.5,1.4-0.7,2.2-0.7
	c0.8,0,1.5,0.2,2.1,0.7c0.5,0.5,0.8,1.2,0.8,1.9v3.3c0,0.3,0,0.6,0.1,0.9c0,0.3,0.1,0.6,0.2,0.8L521.4,77z M519.3,75.8
	c0.4,0,0.8-0.1,1.1-0.3c0.3-0.2,0.5-0.4,0.7-0.7v-1.1h-1.3c-0.4,0-0.8,0.1-1.1,0.4c-0.3,0.2-0.4,0.5-0.4,0.8c0,0.3,0.1,0.5,0.3,0.7
	C518.8,75.7,519,75.8,519.3,75.8L519.3,75.8z"/>
<path class="st13" d="M528.7,75c0-0.3-0.1-0.5-0.3-0.6c-0.4-0.2-0.8-0.4-1.2-0.4c-0.7-0.1-1.4-0.4-2-0.8c-0.4-0.3-0.7-0.9-0.7-1.4
	c0-0.6,0.3-1.2,0.8-1.6c0.6-0.5,1.3-0.7,2.1-0.7c0.8,0,1.5,0.2,2.2,0.7c0.5,0.4,0.8,1,0.8,1.7l0,0h-1.6c0-0.3-0.1-0.6-0.3-0.8
	c-0.3-0.2-0.6-0.3-1-0.3c-0.3,0-0.7,0.1-0.9,0.3c-0.2,0.2-0.3,0.4-0.3,0.7c0,0.2,0.1,0.5,0.3,0.6c0.4,0.2,0.8,0.4,1.2,0.4
	c0.7,0.1,1.4,0.4,2.1,0.8c0.4,0.3,0.7,0.9,0.7,1.4c0,0.6-0.3,1.3-0.8,1.6c-0.6,0.4-1.4,0.7-2.2,0.6c-0.8,0-1.6-0.2-2.3-0.7
	c-0.5-0.4-0.8-1-0.8-1.7l0,0h1.5c0,0.4,0.2,0.7,0.5,0.9c0.3,0.2,0.7,0.3,1.1,0.3c0.3,0,0.7-0.1,1-0.2
	C528.6,75.5,528.7,75.3,528.7,75z"/>
<path class="st13" d="M535,77.1c-0.9,0-1.9-0.3-2.5-1c-0.6-0.7-1-1.7-0.9-2.6v-0.3c0-1,0.3-1.9,0.9-2.7c0.6-0.7,1.4-1.1,2.3-1.1
	c0.9-0.1,1.7,0.3,2.3,0.9c0.6,0.7,0.8,1.5,0.8,2.4v1h-4.6l0,0c0,0.5,0.2,1,0.5,1.4c0.3,0.4,0.8,0.6,1.3,0.6c0.4,0,0.8,0,1.1-0.2
	c0.3-0.1,0.6-0.3,0.9-0.5l0.5,1.1c-0.3,0.3-0.7,0.5-1.1,0.6C536.1,77.1,535.5,77.2,535,77.1z M534.8,70.8c-0.4,0-0.8,0.2-1,0.5
	c-0.3,0.4-0.4,0.8-0.5,1.2l0,0h2.9v-0.2c0-0.4-0.1-0.8-0.4-1.1C535.6,70.9,535.2,70.8,534.8,70.8z"/>
<path class="st13" d="M538.9,73.4c0-1,0.2-2,0.8-2.9c0.5-0.7,1.3-1.1,2.1-1.1c0.4,0,0.7,0.1,1.1,0.2c0.3,0.2,0.6,0.4,0.8,0.7v-4.1
	h1.7V77H544l-0.2-0.9c-0.2,0.3-0.5,0.6-0.9,0.8c-0.4,0.2-0.8,0.3-1.2,0.3c-0.8,0-1.6-0.3-2.1-1c-0.5-0.8-0.8-1.7-0.8-2.6L538.9,73.4
	z M540.6,73.5c0,0.6,0.1,1.1,0.4,1.6c0.3,0.4,0.8,0.6,1.2,0.6c0.3,0,0.6-0.1,0.9-0.2c0.3-0.2,0.5-0.4,0.6-0.6v-3.2
	c-0.1-0.3-0.3-0.5-0.6-0.6c-0.3-0.2-0.6-0.2-0.9-0.2c-0.5,0-1,0.3-1.3,0.7c-0.3,0.6-0.4,1.2-0.4,1.9V73.5z"/>
<path class="st13" d="M548.8,76.8l-1.1,2.1h-1.1l0.5-2.2v-1.4h1.6V76.8z"/>
<path class="st13" d="M560.3,73.5c0,0.9-0.2,1.8-0.8,2.6c-0.5,0.7-1.3,1-2.1,1c-0.4,0-0.8-0.1-1.1-0.2c-0.3-0.2-0.6-0.4-0.8-0.7v3.6
	h-1.7V69.6h1.4l0.2,0.9c0.2-0.3,0.5-0.6,0.9-0.8c0.4-0.2,0.8-0.3,1.2-0.3c0.8,0,1.7,0.4,2.1,1.1c0.5,0.8,0.8,1.8,0.8,2.9L560.3,73.5
	z M558.6,73.4c0-0.6-0.1-1.3-0.4-1.9c-0.3-0.5-0.7-0.7-1.3-0.7c-0.3,0-0.6,0.1-0.9,0.2c-0.2,0.2-0.4,0.4-0.6,0.6V75
	c0.1,0.2,0.3,0.5,0.6,0.6c0.3,0.1,0.6,0.2,0.9,0.2c0.5,0,1-0.2,1.3-0.6c0.3-0.5,0.4-1.1,0.4-1.6L558.6,73.4z"/>
<path class="st13" d="M561.4,73.2c0-1,0.3-1.9,0.9-2.7c1.3-1.4,3.5-1.4,4.9-0.1c0,0,0.1,0.1,0.1,0.1c0.6,0.8,1,1.7,0.9,2.7v0.1
	c0,1-0.3,2-0.9,2.7c-1.3,1.4-3.5,1.4-4.9,0.1c0,0,0,0-0.1-0.1c-0.6-0.8-0.9-1.7-0.9-2.7V73.2z M563.1,73.4c0,0.6,0.1,1.2,0.4,1.8
	c0.5,0.7,1.5,0.9,2.2,0.4c0.1-0.1,0.3-0.2,0.4-0.4c0.3-0.5,0.5-1.1,0.4-1.8v-0.1c0-0.6-0.1-1.2-0.4-1.7c-0.5-0.7-1.5-0.9-2.2-0.4
	c-0.2,0.1-0.3,0.3-0.4,0.4c-0.3,0.5-0.4,1.1-0.4,1.7V73.4z"/>
<path class="st13" d="M573.3,71.1l-0.7,0c-0.3,0-0.6,0.1-0.8,0.2c-0.2,0.1-0.4,0.3-0.5,0.6V77h-1.7v-7.4h1.5l0.1,1.1
	c0.2-0.4,0.4-0.7,0.7-0.9c0.3-0.2,0.7-0.3,1-0.3c0.1,0,0.2,0,0.3,0c0.1,0,0.2,0,0.2,0.1L573.3,71.1z"/>
<path class="st13" d="M576.7,67.8v1.8h1.3v1.2h-1.3v4.1c0,0.2,0,0.5,0.2,0.7c0.1,0.1,0.3,0.2,0.5,0.2c0.1,0,0.2,0,0.3,0
	c0.1,0,0.2,0,0.2-0.1l0.2,1.2c-0.2,0.1-0.3,0.1-0.5,0.2c-0.2,0-0.4,0.1-0.6,0.1c-0.5,0-1.1-0.2-1.4-0.5c-0.4-0.5-0.6-1.1-0.5-1.7
	v-4.1h-1.1v-1.2h1.1v-1.8H576.7z"/>
<path class="st13" d="M584,77c-0.1-0.2-0.1-0.4-0.1-0.5c0-0.2-0.1-0.4-0.1-0.5c-0.2,0.4-0.5,0.6-0.9,0.9c-0.4,0.2-0.8,0.4-1.2,0.4
	c-0.6,0-1.3-0.2-1.8-0.6c-0.4-0.4-0.7-1-0.6-1.6c0-0.7,0.3-1.3,0.8-1.7c0.7-0.4,1.5-0.6,2.4-0.6h1.3V72c0-0.3-0.1-0.7-0.3-0.9
	c-0.3-0.2-0.6-0.4-1-0.3c-0.3,0-0.6,0.1-0.9,0.3c-0.2,0.2-0.3,0.4-0.3,0.7h-1.6l0,0c0-0.6,0.3-1.2,0.8-1.6c0.6-0.5,1.4-0.7,2.2-0.7
	c0.8,0,1.5,0.2,2.1,0.7c0.5,0.5,0.8,1.2,0.8,1.9v3.3c0,0.3,0,0.6,0.1,0.9c0,0.3,0.1,0.6,0.2,0.8H584z M581.9,75.8
	c0.4,0,0.8-0.1,1.1-0.3c0.3-0.2,0.5-0.4,0.7-0.7v-1.1h-1.3c-0.4,0-0.8,0.1-1.1,0.4c-0.3,0.2-0.4,0.5-0.4,0.8c0,0.3,0.1,0.5,0.3,0.7
	C581.4,75.7,581.6,75.8,581.9,75.8L581.9,75.8z"/>
<path class="st13" d="M593.6,73.5c0,0.9-0.2,1.8-0.8,2.6c-0.5,0.7-1.3,1-2.1,1c-0.4,0-0.8-0.1-1.2-0.3c-0.3-0.2-0.6-0.5-0.9-0.8
	l-0.2,1h-1.4V66.3h1.7v4.1c0.2-0.3,0.5-0.5,0.8-0.7c0.3-0.2,0.7-0.3,1.1-0.3c0.9,0,1.7,0.4,2.1,1.1c0.5,0.9,0.8,1.8,0.8,2.9
	L593.6,73.5z M592,73.4c0-0.6-0.1-1.3-0.4-1.9c-0.2-0.5-0.7-0.7-1.3-0.7c-0.3,0-0.6,0.1-0.9,0.2c-0.3,0.2-0.5,0.4-0.6,0.7v3.1
	c0.1,0.3,0.3,0.5,0.6,0.7c0.3,0.2,0.6,0.3,0.9,0.2c0.5,0,1-0.2,1.3-0.6c0.3-0.5,0.4-1.1,0.4-1.6L592,73.4z"/>
<path class="st13" d="M596.8,77h-1.7V66.3h1.7V77z"/>
<path class="st13" d="M601.9,77.1c-0.9,0-1.9-0.3-2.5-1c-0.6-0.7-1-1.7-0.9-2.6v-0.3c0-1,0.3-1.9,0.9-2.7c0.6-0.7,1.4-1.1,2.3-1.1
	c0.9-0.1,1.7,0.3,2.3,0.9c0.6,0.7,0.8,1.5,0.8,2.4v1h-4.6l0,0c0,0.5,0.2,1,0.5,1.4c0.3,0.4,0.8,0.6,1.3,0.6c0.4,0,0.8,0,1.1-0.2
	c0.3-0.1,0.6-0.3,0.9-0.5l0.5,1.1c-0.3,0.3-0.7,0.5-1.1,0.6C602.9,77.1,602.4,77.2,601.9,77.1z M601.7,70.8c-0.4,0-0.8,0.2-1,0.5
	c-0.3,0.4-0.4,0.8-0.5,1.2l0,0h2.9v-0.2c0-0.4-0.1-0.8-0.4-1.1C602.5,70.9,602.1,70.8,601.7,70.8z"/>
<path class="st13" d="M615.2,74.4c0-0.4-0.2-0.8-0.5-1c-0.5-0.3-1-0.6-1.6-0.7c-0.9-0.2-1.8-0.6-2.6-1.2c-0.6-0.5-0.9-1.2-0.9-1.9
	c0-0.8,0.4-1.5,1-2c0.7-0.5,1.6-0.8,2.6-0.8c1,0,1.9,0.3,2.6,0.9c0.6,0.5,1,1.3,1,2.1l0,0h-1.6c0-0.5-0.2-0.9-0.5-1.2
	c-0.4-0.3-0.9-0.5-1.5-0.5c-0.5,0-1,0.1-1.4,0.4c-0.3,0.2-0.5,0.6-0.5,1c0,0.4,0.2,0.7,0.5,0.9c0.5,0.3,1.1,0.6,1.8,0.7
	c0.9,0.2,1.7,0.6,2.4,1.2c0.5,0.5,0.9,1.2,0.8,1.9c0,0.8-0.4,1.5-1,2c-0.8,0.5-1.7,0.8-2.6,0.7c-1,0-1.9-0.3-2.7-0.8
	c-0.8-0.5-1.2-1.4-1.1-2.3l0,0h1.6c0,0.5,0.2,1,0.6,1.4c0.5,0.3,1.1,0.5,1.6,0.4c0.5,0,1-0.1,1.4-0.4
	C615,75.2,615.2,74.8,615.2,74.4z"/>
<path class="st13" d="M621.9,71.9l2.4-4.8h1.9l-3.5,6.5V77H621v-3.6l-3.4-6.4h1.9L621.9,71.9z"/>
<path class="st13" d="M634.3,73.7L634.3,73.7c0.1,1-0.3,1.9-1,2.5c-0.8,0.7-1.7,1-2.7,0.9c-1.1,0-2.1-0.4-2.8-1.2
	c-0.7-0.8-1.1-1.9-1.1-3v-1.9c0-1.1,0.3-2.2,1.1-3c0.7-0.8,1.7-1.2,2.8-1.2c1-0.1,2,0.3,2.8,0.9c0.7,0.6,1,1.6,1,2.5l0,0h-1.6
	c0.1-1.1-0.6-2-1.7-2.1c-0.1,0-0.3,0-0.4,0c-0.6,0-1.2,0.3-1.6,0.8c-0.4,0.6-0.6,1.3-0.6,2V73c0,0.7,0.2,1.4,0.6,2
	c0.4,0.5,1,0.8,1.7,0.8c0.6,0,1.1-0.2,1.6-0.6c0.4-0.4,0.6-1,0.5-1.6L634.3,73.7z"/>
<path class="st13" d="M637.6,75.7h4.6V77H636V67h1.7V75.7z"/>
<path class="st13" d="M651,72.9c0,1.1-0.4,2.2-1.1,3c-0.8,0.8-1.9,1.2-3,1.2c-1.1,0-2.2-0.4-2.9-1.2c-0.8-0.8-1.2-1.9-1.1-3v-1.8
	c0-1.1,0.4-2.2,1.1-3c0.7-0.8,1.8-1.2,2.9-1.2c1.1,0,2.2,0.4,3,1.2c0.8,0.8,1.2,1.9,1.1,3L651,72.9z M649.4,71.1
	c0-0.7-0.2-1.5-0.7-2c-0.4-0.5-1.1-0.8-1.8-0.8c-0.7,0-1.3,0.3-1.7,0.8c-0.4,0.6-0.7,1.3-0.6,2v1.8c0,0.7,0.2,1.5,0.6,2.1
	c0.4,0.5,1.1,0.8,1.7,0.8c0.7,0,1.4-0.3,1.8-0.8c0.5-0.6,0.7-1.3,0.7-2.1L649.4,71.1z"/>
<path class="st13" d="M654.5,73.2V77h-1.7V67h3.9c0.9-0.1,1.9,0.2,2.6,0.9c1.2,1.2,1.2,3.2,0,4.5c0,0,0,0,0,0
	c-0.7,0.6-1.6,0.9-2.6,0.8L654.5,73.2z M654.5,71.9h2.2c0.5,0,1-0.1,1.4-0.5c0.3-0.3,0.5-0.8,0.5-1.3c0.1-0.9-0.6-1.7-1.6-1.8
	c-0.1,0-0.2,0-0.3,0h-2.2V71.9z"/>
<path class="st13" d="M667.3,74.4c0-0.4-0.2-0.8-0.5-1c-0.5-0.3-1-0.6-1.6-0.7c-0.9-0.2-1.8-0.6-2.6-1.2c-0.6-0.5-0.9-1.2-0.9-1.9
	c0-0.8,0.4-1.5,1-2c0.7-0.5,1.6-0.8,2.6-0.8c1,0,1.9,0.3,2.6,0.9c0.6,0.5,1,1.3,1,2.1l0,0h-1.6c0-0.5-0.2-0.9-0.5-1.2
	c-0.4-0.3-0.9-0.5-1.5-0.5c-0.5,0-1,0.1-1.4,0.4c-0.3,0.2-0.5,0.6-0.5,1c0,0.4,0.2,0.7,0.5,0.9c0.5,0.3,1.1,0.6,1.8,0.7
	c0.9,0.2,1.7,0.6,2.4,1.2c0.5,0.5,0.9,1.2,0.8,1.9c0,0.8-0.4,1.5-1,2c-0.8,0.5-1.7,0.8-2.6,0.7c-1,0-1.9-0.3-2.7-0.8
	c-0.8-0.5-1.2-1.4-1.1-2.3l0,0h1.6c0,0.5,0.2,1,0.6,1.4c0.5,0.3,1.1,0.5,1.6,0.4c0.5,0,1-0.1,1.4-0.4
	C667.1,75.2,667.3,74.8,667.3,74.4z"/>
<path class="st13" d="M679.6,74.4c0-0.4-0.2-0.8-0.5-1c-0.5-0.3-1-0.6-1.6-0.7c-0.9-0.2-1.8-0.6-2.6-1.2c-0.6-0.5-0.9-1.2-0.9-1.9
	c0-0.8,0.4-1.5,1-2c0.7-0.5,1.6-0.8,2.6-0.8c1,0,1.9,0.3,2.6,0.9c0.6,0.5,1,1.3,1,2.1l0,0h-1.6c0-0.5-0.2-0.9-0.5-1.2
	c-0.4-0.3-0.9-0.5-1.5-0.5c-0.5,0-1,0.1-1.4,0.4c-0.3,0.2-0.5,0.6-0.5,1c0,0.4,0.2,0.7,0.5,0.9c0.5,0.3,1.1,0.6,1.8,0.7
	c0.9,0.2,1.7,0.6,2.4,1.2c0.5,0.5,0.9,1.2,0.8,1.9c0,0.8-0.4,1.5-1,2c-0.8,0.5-1.7,0.8-2.6,0.7c-1,0-1.9-0.3-2.7-0.8
	c-0.8-0.5-1.2-1.4-1.1-2.3l0,0h1.6c0,0.5,0.2,1,0.6,1.4c0.5,0.3,1.1,0.5,1.6,0.4c0.5,0,1-0.1,1.4-0.4
	C679.4,75.2,679.6,74.8,679.6,74.4z"/>
<path class="st13" d="M684.8,67.8v1.8h1.3v1.2h-1.3v4.1c0,0.2,0,0.5,0.2,0.7c0.1,0.1,0.3,0.2,0.5,0.2c0.1,0,0.2,0,0.3,0
	c0.1,0,0.2,0,0.2-0.1l0.2,1.2c-0.2,0.1-0.3,0.1-0.5,0.2c-0.2,0-0.4,0.1-0.6,0.1c-0.5,0-1.1-0.2-1.4-0.5c-0.4-0.5-0.6-1.1-0.5-1.7
	v-4.1H682v-1.2h1.1v-1.8H684.8z"/>
<path class="st13" d="M692.1,77c-0.1-0.2-0.1-0.4-0.1-0.5c0-0.2-0.1-0.4-0.1-0.5c-0.2,0.4-0.5,0.6-0.9,0.9c-0.4,0.2-0.8,0.4-1.2,0.4
	c-0.6,0-1.3-0.2-1.8-0.6c-0.4-0.4-0.7-1-0.6-1.6c0-0.7,0.3-1.3,0.8-1.7c0.7-0.4,1.5-0.6,2.4-0.6h1.3V72c0-0.3-0.1-0.7-0.3-0.9
	c-0.3-0.2-0.6-0.4-1-0.3c-0.3,0-0.6,0.1-0.9,0.3c-0.2,0.2-0.3,0.4-0.3,0.7h-1.6l0,0c0-0.6,0.3-1.2,0.8-1.6c0.6-0.5,1.4-0.7,2.2-0.7
	c0.8,0,1.5,0.2,2.1,0.7c0.5,0.5,0.8,1.2,0.8,1.9v3.3c0,0.3,0,0.6,0.1,0.9c0,0.3,0.1,0.6,0.2,0.8L692.1,77z M690,75.8
	c0.4,0,0.8-0.1,1.1-0.3c0.3-0.2,0.5-0.4,0.7-0.7v-1.1h-1.3c-0.4,0-0.8,0.1-1.1,0.4c-0.3,0.2-0.4,0.5-0.4,0.8c0,0.3,0.1,0.5,0.3,0.7
	C689.5,75.7,689.7,75.8,690,75.8L690,75.8z"/>
<path class="st13" d="M698.3,75.8c0.4,0,0.7-0.1,1-0.4c0.3-0.2,0.4-0.5,0.4-0.9h1.5l0,0c0,0.7-0.3,1.4-0.8,1.8
	c-0.6,0.5-1.3,0.8-2.1,0.8c-1,0.1-1.9-0.3-2.5-1.1c-0.6-0.8-0.9-1.7-0.9-2.7v-0.2c0-1,0.3-1.9,0.9-2.7c1.2-1.3,3.3-1.4,4.7-0.3
	c0.5,0.5,0.8,1.2,0.8,2l0,0h-1.5c0-0.4-0.1-0.8-0.4-1c-0.3-0.3-0.7-0.4-1-0.4c-0.5,0-1.1,0.2-1.3,0.7c-0.3,0.5-0.4,1.1-0.4,1.7v0.2
	c0,0.6,0.1,1.2,0.4,1.7C697.2,75.6,697.8,75.9,698.3,75.8z"/>
<path class="st13" d="M705,73.8h-0.7V77h-1.7V66.3h1.7v6.1h0.7l1.9-2.8h2l-2.4,3.4l2.8,4h-1.9L705,73.8z"/>
</svg>
